<?xml version="1.0" encoding="UTF-8" standalone="no"?>
<!-- Created with Inkscape (http://www.inkscape.org/) -->

<svg
   xmlns:dc="http://purl.org/dc/elements/1.1/"
   xmlns:cc="http://creativecommons.org/ns#"
   xmlns:rdf="http://www.w3.org/1999/02/22-rdf-syntax-ns#"
   xmlns:svg="http://www.w3.org/2000/svg"
   xmlns="http://www.w3.org/2000/svg"
   xmlns:sodipodi="http://sodipodi.sourceforge.net/DTD/sodipodi-0.dtd"
   xmlns:inkscape="http://www.inkscape.org/namespaces/inkscape"
   width="612pt"
   height="792pt"
   id="svg3882"
   version="1.1"
   inkscape:version="0.48.1 r9760"
   sodipodi:docname="New document 3">
  <defs
     id="defs3884" />
  <sodipodi:namedview
     inkscape:document-units="in"
     pagecolor="#ffffff"
     bordercolor="#666666"
     borderopacity="1.0"
     inkscape:pageopacity="0.0"
     inkscape:pageshadow="2"
     inkscape:zoom="0.36"
     inkscape:cx="-39.166667"
     inkscape:cy="202.91973"
     inkscape:current-layer="layer1"
     id="namedview3886"
     showgrid="false"
     inkscape:window-width="1440"
     inkscape:window-height="846"
     inkscape:window-x="0"
     inkscape:window-y="26"
     inkscape:window-maximized="1" />
  <metadata
     id="metadata3888">
    <rdf:RDF>
      <cc:Work
         rdf:about="">
        <dc:format>image/svg+xml</dc:format>
        <dc:type
           rdf:resource="http://purl.org/dc/dcmitype/StillImage" />
        <dc:title></dc:title>
      </cc:Work>
    </rdf:RDF>
  </metadata>
  <g
     inkscape:label="Layer 1"
     inkscape:groupmode="layer"
     id="layer1">
    <g
       transform="matrix(3.5771668,0,0,3.5771668,78.440822,190.94082)"
       id="g3865">
      <path
         inkscape:connector-curvature="0"
         id="path3851"
         d="M 59.8125,-1.6875 A 1.6651665,1.6651665 0 0 0 58.34375,0 l 0,8.34375 -6.6875,0 0,-8.34375 A 1.6651665,1.6651665 0 0 0 50,-1.65625 l -9.71875,0 -0.28125,0 -0.15625,0 -9.84375,0 A 1.6651665,1.6651665 0 0 0 28.34375,0 l 0,8.34375 -6.6875,0 0,-8.34375 A 1.6651665,1.6651665 0 0 0 20,-1.65625 l -10,0 -10,0 A 1.6651665,1.6651665 0 0 0 -1.65625,0 l 0,10 a 1.6651665,1.6651665 0 1 0 3.3125,0 l 0,-8.34375 8.34375,0 8.34375,0 0,8.0625 a 1.6651665,1.6651665 0 0 0 0,0.15625 l 0,0.125 a 1.6651665,1.6651665 0 0 0 0,0.15625 l 0,9.84375 a 1.6651665,1.6651665 0 1 0 3.3125,0 l 0,-8.34375 8.34375,0 A 1.6651665,1.6651665 0 0 0 31.65625,10 l 0,-8.34375 6.6875,0 0,8.34375 a 1.6651665,1.6651665 0 1 0 3.3125,0 l 0,-8.34375 6.6875,0 0,8.34375 A 1.6651665,1.6651665 0 0 0 50,11.65625 l 8.34375,0 0,6.6875 -8.34375,0 a 1.6651665,1.6651665 0 1 0 0,3.3125 l 8.34375,0 0,8.34375 A 1.6651665,1.6651665 0 0 0 60,31.65625 l 8.34375,0 0,6.6875 -8.34375,0 A 1.6651665,1.6651665 0 0 0 58.34375,40 l 0,8.34375 -8.34375,0 a 1.6651665,1.6651665 0 1 0 0,3.3125 l 9.71875,0 0.28125,0 a 1.6651665,1.6651665 0 0 0 0.15625,0 l 8.1875,0 0,8.03125 a 1.6651665,1.6651665 0 0 0 0,0.65625 l 0,8 -8.34375,0 a 1.6651665,1.6651665 0 1 0 0,3.3125 l 10,0 A 1.6651665,1.6651665 0 0 0 71.65625,70 l 0,-8.34375 8.34375,0 a 1.6651665,1.6651665 0 1 0 0,-3.3125 l -8.34375,0 0,-6.6875 8.34375,0 a 1.6651665,1.6651665 0 1 0 0,-3.3125 l -9.71875,0 -0.15625,0 a 1.6651665,1.6651665 0 0 0 -0.125,0 l -0.15625,0 -8.1875,0 0,-6.6875 8.34375,0 A 1.6651665,1.6651665 0 0 0 71.65625,40 l 0,-10 A 1.6651665,1.6651665 0 0 0 70,28.34375 l -8.34375,0 0,-6.6875 8.0625,0 0.28125,0 0.15625,0 9.84375,0 a 1.6651665,1.6651665 0 1 0 0,-3.3125 l -8.34375,0 0,-6.6875 8.34375,0 A 1.6651665,1.6651665 0 0 0 81.65625,10 l 0,-8.34375 6.6875,0 0,8.34375 A 1.6651665,1.6651665 0 0 0 90,11.65625 l 9.71875,0 0.28125,0 0.15625,0 8.1875,0 0,8.34375 0,10 0,8.34375 -6.6875,0 0,-8.34375 A 1.6651665,1.6651665 0 0 0 100,28.34375 l -10,0 a 1.6651665,1.6651665 0 1 0 0,3.3125 l 8.34375,0 0,6.6875 -8.34375,0 a 1.6651665,1.6651665 0 1 0 0,3.3125 l 9.71875,0 0.28125,0 a 1.6651665,1.6651665 0 0 0 0.15625,0 l 9.5625,0 0.28125,0 0.15625,0 8.1875,0 0,6.6875 -8.34375,0 A 1.6651665,1.6651665 0 0 0 108.34375,50 l 0,8.34375 -8.0625,0 -0.28125,0 -0.15625,0 -9.84375,0 a 1.6651665,1.6651665 0 1 0 0,3.3125 l 8.34375,0 0,8.34375 a 1.6651665,1.6651665 0 1 0 3.3125,0 l 0,-8.34375 6.6875,0 0,8.34375 A 1.6651665,1.6651665 0 0 0 110,71.65625 l 8.34375,0 0,6.6875 -8.34375,0 A 1.6651665,1.6651665 0 0 0 108.34375,80 l 0,10 A 1.6651665,1.6651665 0 0 0 110,91.65625 l 10,0 8.34375,0 0,6.6875 -8.0625,0 -0.15625,0 a 1.6651665,1.6651665 0 0 0 -0.125,0 l -0.15625,0 -9.84375,0 -10,0 A 1.6651665,1.6651665 0 0 0 98.34375,100 l 0,8.34375 -8.34375,0 -10,0 a 1.6651665,1.6651665 0 1 0 0,3.3125 l 10,0 8.34375,0 0,8.34375 a 1.6651665,1.6651665 0 1 0 3.3125,0 l 0,-9.6875 a 1.6651665,1.6651665 0 0 0 0,-0.65625 l 0,-8 8.34375,0 8.34375,0 0,8.03125 a 1.6651665,1.6651665 0 0 0 0,0.65625 l 0,8 -8.34375,0 a 1.6651665,1.6651665 0 1 0 0,3.3125 l 8.34375,0 0,6.6875 -8.34375,0 A 1.6651665,1.6651665 0 0 0 108.34375,130 l 0,9.6875 a 1.6651665,1.6651665 0 0 0 0,0.65625 l 0,8 -8.34375,0 a 1.6651665,1.6651665 0 1 0 0,3.3125 l 8.34375,0 0,6.6875 -8.0625,0 -0.15625,0 a 1.6651665,1.6651665 0 0 0 -0.125,0 l -0.15625,0 -9.84375,0 A 1.6651665,1.6651665 0 0 0 88.34375,160 l 0,8.34375 -6.6875,0 0,-8.34375 A 1.6651665,1.6651665 0 0 0 80,158.34375 l -8.34375,0 0,-8.34375 a 1.6651665,1.6651665 0 1 0 -3.3125,0 l 0,8.34375 -6.6875,0 0,-8.03125 a 1.6651665,1.6651665 0 0 0 0,-0.65625 l 0,-9.34375 a 1.6651665,1.6651665 0 0 0 0,-0.65625 l 0,-9.65625 A 1.6651665,1.6651665 0 0 0 60,128.34375 l -8.34375,0 0,-6.6875 8.34375,0 A 1.6651665,1.6651665 0 0 0 61.65625,120 l 0,-8.34375 6.6875,0 0,8.34375 a 1.6651665,1.6651665 0 1 0 3.3125,0 l 0,-9.71875 a 1.6651665,1.6651665 0 0 0 0,-0.28125 1.6651665,1.6651665 0 0 0 0,-0.15625 l 0,-9.84375 A 1.6651665,1.6651665 0 0 0 70,98.34375 l -8.34375,0 0,-8.03125 a 1.6651665,1.6651665 0 0 0 0,-0.65625 l 0,-9.65625 a 1.6651665,1.6651665 0 1 0 -3.3125,0 l 0,8.34375 -8.34375,0 -10,0 A 1.6651665,1.6651665 0 0 0 38.34375,90 l 0,10 a 1.6651665,1.6651665 0 1 0 3.3125,0 l 0,-8.34375 8.34375,0 8.34375,0 0,6.6875 -8.34375,0 A 1.6651665,1.6651665 0 0 0 48.34375,100 l 0,10 a 1.6651665,1.6651665 0 1 0 3.3125,0 l 0,-8.34375 8.0625,0 0.28125,0 0.15625,0 8.1875,0 0,6.6875 -8.34375,0 A 1.6651665,1.6651665 0 0 0 58.34375,110 l 0,8.34375 -8.34375,0 A 1.6651665,1.6651665 0 0 0 48.34375,120 l 0,10 A 1.6651665,1.6651665 0 0 0 50,131.65625 l 8.34375,0 0,6.6875 -8.34375,0 -10,0 -10,0 A 1.6651665,1.6651665 0 0 0 28.34375,140 l 0,10 0,8.34375 -8.0625,0 -0.28125,0 -0.15625,0 -9.5625,0 -0.15625,0 a 1.6651665,1.6651665 0 0 0 -0.125,0 l -0.15625,0 -8.1875,0 0,-6.6875 8.34375,0 a 1.6651665,1.6651665 0 1 0 0,-3.3125 l -8.34375,0 0,-6.6875 8.34375,0 a 1.6651665,1.6651665 0 1 0 0,-3.3125 l -8.34375,0 0,-6.6875 8.34375,0 A 1.6651665,1.6651665 0 0 0 11.65625,130 l 0,-9.6875 a 1.6651665,1.6651665 0 0 0 0,-0.65625 l 0,-9.65625 A 1.6651665,1.6651665 0 0 0 10,108.34375 l -8.34375,0 0,-6.6875 8.0625,0 0.28125,0 a 1.6651665,1.6651665 0 0 0 0.15625,0 l 9.5625,0 0.28125,0 0.15625,0 9.84375,0 A 1.6651665,1.6651665 0 0 0 31.65625,100 l 0,-10 a 1.6651665,1.6651665 0 1 0 -3.3125,0 l 0,8.34375 -6.6875,0 0,-8.34375 a 1.6651665,1.6651665 0 1 0 -3.3125,0 l 0,8.34375 -6.6875,0 0,-8.34375 A 1.6651665,1.6651665 0 0 0 10,88.34375 l -8.34375,0 0,-8.34375 0,-8.34375 8.34375,0 9.71875,0 0.28125,0 a 1.6651665,1.6651665 0 0 0 0.15625,0 l 9.5625,0 0.28125,0 a 1.6651665,1.6651665 0 0 0 0.15625,0 l 8.1875,0 0,8.34375 a 1.6651665,1.6651665 0 1 0 3.3125,0 l 0,-9.71875 a 1.6651665,1.6651665 0 0 0 0,-0.28125 1.6651665,1.6651665 0 0 0 0,-0.15625 l 0,-8.1875 8.34375,0 a 1.6651665,1.6651665 0 1 0 0,-3.3125 l -10,0 A 1.6651665,1.6651665 0 0 0 38.34375,60 l 0,8.34375 -6.6875,0 0,-8.34375 a 1.6651665,1.6651665 0 1 0 -3.3125,0 l 0,8.34375 -6.6875,0 0,-8.03125 a 1.6651665,1.6651665 0 0 0 0,-0.65625 l 0,-9.65625 A 1.6651665,1.6651665 0 0 0 20,48.34375 l -10,0 -8.34375,0 0,-6.6875 8.34375,0 a 1.6651665,1.6651665 0 1 0 0,-3.3125 l -8.34375,0 0,-6.6875 8.34375,0 A 1.6651665,1.6651665 0 0 0 11.65625,30 l 0,-10 A 1.6651665,1.6651665 0 0 0 10,18.34375 l -10,0 a 1.6651665,1.6651665 0 1 0 0,3.3125 l 8.34375,0 0,6.6875 -8.34375,0 A 1.6651665,1.6651665 0 0 0 -1.65625,30 l 0,9.6875 a 1.6651665,1.6651665 0 0 0 0,0.65625 l 0,9.65625 A 1.6651665,1.6651665 0 0 0 0,51.65625 l 10,0 8.34375,0 0,6.6875 -8.34375,0 -10,0 a 1.6651665,1.6651665 0 1 0 0,3.3125 l 10,0 8.34375,0 0,6.6875 -8.34375,0 -10,0 A 1.6651665,1.6651665 0 0 0 -1.65625,70 l 0,10 0,10 A 1.6651665,1.6651665 0 0 0 0,91.65625 l 8.34375,0 0,6.6875 -8.34375,0 A 1.6651665,1.6651665 0 0 0 -1.65625,100 l 0,10 A 1.6651665,1.6651665 0 0 0 0,111.65625 l 8.34375,0 0,6.6875 -8.34375,0 a 1.6651665,1.6651665 0 1 0 0,3.3125 l 8.34375,0 0,6.6875 -8.34375,0 A 1.6651665,1.6651665 0 0 0 -1.65625,130 l 0,9.6875 a 1.6651665,1.6651665 0 0 0 0,0.65625 l 0,9.34375 a 1.6651665,1.6651665 0 0 0 0,0.65625 l 0,9.65625 A 1.6651665,1.6651665 0 0 0 0,161.65625 l 8.34375,0 0,6.6875 -8.34375,0 a 1.6651665,1.6651665 0 1 0 0,3.3125 l 10,0 A 1.6651665,1.6651665 0 0 0 11.65625,170 l 0,-8.34375 6.6875,0 0,8.34375 a 1.6651665,1.6651665 0 1 0 3.3125,0 l 0,-8.34375 6.6875,0 0,8.34375 a 1.6651665,1.6651665 0 1 0 3.3125,0 l 0,-9.6875 a 1.6651665,1.6651665 0 0 0 0,-0.65625 l 0,-9.65625 0,-8.34375 8.34375,0 10,0 8.34375,0 0,6.6875 -8.34375,0 a 1.6651665,1.6651665 0 1 0 0,3.3125 l 8.34375,0 0,6.6875 -8.34375,0 A 1.6651665,1.6651665 0 0 0 48.34375,160 l 0,8.34375 -8.34375,0 a 1.6651665,1.6651665 0 1 0 0,3.3125 l 10,0 A 1.6651665,1.6651665 0 0 0 51.65625,170 l 0,-8.34375 6.6875,0 0,8.34375 a 1.6651665,1.6651665 0 1 0 3.3125,0 l 0,-8.34375 6.6875,0 0,8.34375 a 1.6651665,1.6651665 0 1 0 3.3125,0 l 0,-8.34375 6.6875,0 0,8.34375 A 1.6651665,1.6651665 0 0 0 80,171.65625 l 10,0 A 1.6651665,1.6651665 0 0 0 91.65625,170 l 0,-8.34375 6.6875,0 0,8.34375 a 1.6651665,1.6651665 0 1 0 3.3125,0 l 0,-8.34375 6.6875,0 0,8.34375 a 1.6651665,1.6651665 0 1 0 3.3125,0 l 0,-9.6875 a 1.6651665,1.6651665 0 0 0 0,-0.65625 l 0,-8 6.6875,0 0,8.03125 a 1.6651665,1.6651665 0 0 0 0,0.65625 l 0,9.65625 a 1.6651665,1.6651665 0 1 0 3.3125,0 l 0,-8.34375 6.6875,0 0,8.34375 a 1.6651665,1.6651665 0 1 0 3.3125,0 l 0,-10 A 1.6651665,1.6651665 0 0 0 130,158.34375 l -8.34375,0 0,-8.34375 A 1.6651665,1.6651665 0 0 0 120,148.34375 l -8.34375,0 0,-6.6875 8.34375,0 a 1.6651665,1.6651665 0 1 0 0,-3.3125 l -8.34375,0 0,-6.6875 8.34375,0 A 1.6651665,1.6651665 0 0 0 121.65625,130 l 0,-9.6875 a 1.6651665,1.6651665 0 0 0 0,-0.65625 l 0,-8 8.34375,0 10,0 8.34375,0 0,8.34375 A 1.6651665,1.6651665 0 0 0 150,121.65625 l 10,0 8.34375,0 0,6.6875 -8.34375,0 A 1.6651665,1.6651665 0 0 0 158.34375,130 l 0,9.6875 a 1.6651665,1.6651665 0 0 0 0,0.65625 l 0,8 -8.34375,0 A 1.6651665,1.6651665 0 0 0 148.34375,150 l 0,8.34375 -8.34375,0 A 1.6651665,1.6651665 0 0 0 138.34375,160 l 0,10 a 1.6651665,1.6651665 0 1 0 3.3125,0 l 0,-8.34375 6.6875,0 0,8.34375 A 1.6651665,1.6651665 0 0 0 150,171.65625 l 10,0 10,0 a 1.6651665,1.6651665 0 1 0 0,-3.3125 l -10,0 -8.34375,0 0,-8.03125 a 1.6651665,1.6651665 0 0 0 0,-0.65625 l 0,-8 8.0625,0 0.28125,0 0.15625,0 8.1875,0 0,8.34375 a 1.6651665,1.6651665 0 1 0 3.3125,0 l 0,-10 A 1.6651665,1.6651665 0 0 0 170,148.34375 l -8.34375,0 0,-6.6875 8.34375,0 a 1.6651665,1.6651665 0 1 0 0,-3.3125 l -8.34375,0 0,-6.6875 8.34375,0 A 1.6651665,1.6651665 0 0 0 171.65625,130 l 0,-9.71875 a 1.6651665,1.6651665 0 0 0 0,-0.28125 1.6651665,1.6651665 0 0 0 0,-0.15625 l 0,-9.84375 0,-10 0,-10 0,-10 0,-10 a 1.6651665,1.6651665 0 1 0 -3.3125,0 l 0,10 0,10 0,10 0,10 0,8.34375 -8.34375,0 -8.34375,0 0,-8.34375 A 1.6651665,1.6651665 0 0 0 150,108.34375 l -10,0 -10,0 -8.34375,0 0,-6.6875 8.34375,0 A 1.6651665,1.6651665 0 0 0 131.65625,100 l 0,-10 A 1.6651665,1.6651665 0 0 0 130,88.34375 l -10,0 -8.34375,0 0,-6.6875 8.0625,0 0.28125,0 a 1.6651665,1.6651665 0 0 0 0.15625,0 l 9.84375,0 a 1.6651665,1.6651665 0 1 0 0,-3.3125 l -8.34375,0 0,-6.6875 8.34375,0 a 1.6651665,1.6651665 0 1 0 0,-3.3125 l -9.71875,0 -0.15625,0 a 1.6651665,1.6651665 0 0 0 -0.125,0 l -0.15625,0 -8.1875,0 0,-6.6875 8.34375,0 10,0 10,0 A 1.6651665,1.6651665 0 0 0 141.65625,60 l 0,-10 a 1.6651665,1.6651665 0 1 0 -3.3125,0 l 0,8.34375 -8.34375,0 -10,0 -8.34375,0 0,-6.6875 8.34375,0 A 1.6651665,1.6651665 0 0 0 121.65625,50 l 0,-9.6875 a 1.6651665,1.6651665 0 0 0 0,-0.65625 l 0,-9.65625 a 1.6651665,1.6651665 0 1 0 -3.3125,0 l 0,8.34375 -6.6875,0 0,-8.34375 0,-10 0,-9.6875 a 1.6651665,1.6651665 0 0 0 0,-0.65625 l 0,-8 6.6875,0 0,8.34375 a 1.6651665,1.6651665 0 1 0 3.3125,0 l 0,-8.34375 6.6875,0 0,8.34375 a 1.6651665,1.6651665 0 1 0 3.3125,0 l 0,-8.34375 6.6875,0 0,8.34375 A 1.6651665,1.6651665 0 0 0 140,11.65625 l 8.34375,0 0,8.34375 0,8.34375 -8.34375,0 A 1.6651665,1.6651665 0 0 0 138.34375,30 l 0,10 a 1.6651665,1.6651665 0 1 0 3.3125,0 l 0,-8.34375 8.34375,0 A 1.6651665,1.6651665 0 0 0 151.65625,30 l 0,-10 0,-9.71875 a 1.6651665,1.6651665 0 0 0 0,-0.28125 1.6651665,1.6651665 0 0 0 0,-0.15625 l 0,-8.1875 8.34375,0 8.34375,0 0,8.34375 0,10 0,10 0,10 0,10 0,10 a 1.6651665,1.6651665 0 1 0 3.3125,0 l 0,-10 0,-10 0,-10 0,-10 0,-10 0,-10 A 1.6651665,1.6651665 0 0 0 170,-1.65625 l -10,0 -10,0 A 1.6651665,1.6651665 0 0 0 148.34375,0 l 0,8.34375 -6.6875,0 0,-8.34375 A 1.6651665,1.6651665 0 0 0 140,-1.65625 l -9.71875,0 -0.28125,0 -0.15625,0 -9.5625,0 -0.15625,0 a 1.6651665,1.6651665 0 0 0 -0.125,0 l -0.15625,0 -9.84375,0 A 1.6651665,1.6651665 0 0 0 108.34375,0 l 0,8.34375 -6.6875,0 0,-8.34375 a 1.6651665,1.6651665 0 1 0 -3.3125,0 l 0,8.34375 -6.6875,0 0,-8.34375 A 1.6651665,1.6651665 0 0 0 90,-1.65625 l -10,0 A 1.6651665,1.6651665 0 0 0 78.34375,0 l 0,8.34375 -6.6875,0 0,-8.34375 a 1.6651665,1.6651665 0 1 0 -3.3125,0 l 0,9.71875 a 1.6651665,1.6651665 0 0 0 0,0.28125 1.6651665,1.6651665 0 0 0 0,0.15625 l 0,8.1875 -6.6875,0 0,-8.03125 a 1.6651665,1.6651665 0 0 0 0,-0.65625 L 61.65625,0 A 1.6651665,1.6651665 0 0 0 59.8125,-1.6875 z"
         style="font-size:medium;font-style:normal;font-variant:normal;font-weight:normal;font-stretch:normal;text-indent:0;text-align:start;text-decoration:none;line-height:normal;letter-spacing:normal;word-spacing:normal;text-transform:none;direction:ltr;block-progression:tb;writing-mode:lr-tb;text-anchor:start;baseline-shift:baseline;color:#000000;fill:none;stroke:#0000ff;stroke-width:0.56444442;stroke-miterlimit:4;stroke-opacity:1;stroke-dasharray:none;marker:none;visibility:visible;display:inline;overflow:visible;enable-background:accumulate;font-family:Sans;-inkscape-font-specification:Sans" />
      <path
         style="fill:none;stroke:#000000;stroke-width:1"
         inkscape:connector-curvature="0"
         id="path3853"
         d="m -5,-5 180,0 M 5,5 165,5 M 5,15 15,15 m 10,0 20,0 m 20,0 10,0 m 10,0 20,0 m 10,0 30,0 M 15,25 25,25 m 20,0 10,0 m 20,0 50,0 m 10,0 10,0 m -50,10 20,0 m 30,0 10,0 M 15,45 25,45 m 20,0 10,0 m 20,0 30,0 m -80,10 20,0 m 10,0 20,0 m 10,0 20,0 m 20,0 10,0 M 15,65 65,65 m 10,0 40,0 m 20,0 10,0 M 5,75 35,75 m 30,0 10,0 m 20,0 10,0 M 5,85 35,85 m 10,0 10,0 M 5,95 45,95 m 10,0 20,0 m 20,0 10,0 m -90,10 40,0 m 10,0 30,0 m 10,0 10,0 m 20,0 20,0 m -100,10 10,0 m 10,0 40,0 m 10,0 20,0 m 10,0 10,0 m -100,10 10,0 m 20,0 10,0 m 40,0 10,0 m -130,10 20,0 m -10,10 10,0 m 20,0 10,0 m 20,0 10,0 m 40,0 10,0 m -140,10 10,0 m 30,0 40,0 m 10,0 10,0 m 10,0 20,0 m 10,0 10,0 m -160,10 160,0 m 10,-170 0,180 m -180,0 180,0 M -5,-5 -5,175 M 5,5 5,165 M 15,5 15,15 m 0,10 0,40 m 0,40 0,50 M 25,15 25,25 m 0,20 0,10 m 0,80 0,20 m 10,-80 0,10 m 0,60 0,20 M 45,15 45,25 m 0,20 0,10 m 0,10 0,30 m 0,10 0,60 M 55,5 55,45 m 0,10 0,30 m 0,10 0,10 m 0,10 0,40 M 65,15 65,65 m 0,10 0,20 m 0,10 0,10 m 0,10 0,20 M 75,5 75,15 m 0,10 0,20 m 0,10 0,20 m 0,20 0,10 m 0,10 0,10 m 0,20 0,10 M 85,15 85,55 m 10,-20 0,10 m 0,20 0,10 m 0,20 0,10 m 0,10 0,10 m 0,20 0,10 m 10,-150 0,20 m 0,20 0,10 m 0,20 0,20 m 0,10 0,10 m 0,10 0,20 m 0,10 0,10 m 10,-150 0,10 m 0,10 0,120 m 10,-130 0,140 m 10,-140 0,30 m 0,10 0,40 m 10,-90 0,10 m 0,10 0,30 m 0,50 0,10 m 0,20 0,10 m 10,-150 0,30 m 0,70 0,10 m 0,10 0,20 m 0,10 0,10 m 10,-160 0,160" />
    </g>
  </g>
</svg>
