<?xml version="1.0" encoding="UTF-8" standalone="no"?>
<!-- Created with Inkscape (http://www.inkscape.org/) -->

<svg
   xmlns:dc="http://purl.org/dc/elements/1.1/"
   xmlns:cc="http://creativecommons.org/ns#"
   xmlns:rdf="http://www.w3.org/1999/02/22-rdf-syntax-ns#"
   xmlns:svg="http://www.w3.org/2000/svg"
   xmlns="http://www.w3.org/2000/svg"
   xmlns:sodipodi="http://sodipodi.sourceforge.net/DTD/sodipodi-0.dtd"
   xmlns:inkscape="http://www.inkscape.org/namespaces/inkscape"
   width="792pt"
   height="612pt"
   id="svg5773"
   version="1.1"
   inkscape:version="0.47 r22583"
   sodipodi:docname="New document 6">
  <defs
     id="defs5775">
    <inkscape:perspective
       sodipodi:type="inkscape:persp3d"
       inkscape:vp_x="0 : 382.5 : 1"
       inkscape:vp_y="0 : 1000 : 0"
       inkscape:vp_z="990 : 382.5 : 1"
       inkscape:persp3d-origin="495 : 255 : 1"
       id="perspective5782" />
    <inkscape:perspective
       id="perspective5217"
       inkscape:persp3d-origin="0.5 : 0.33333333 : 1"
       inkscape:vp_z="1 : 0.5 : 1"
       inkscape:vp_y="0 : 1000 : 0"
       inkscape:vp_x="0 : 0.5 : 1"
       sodipodi:type="inkscape:persp3d" />
  </defs>
  <sodipodi:namedview
     inkscape:document-units="in"
     pagecolor="#ffffff"
     bordercolor="#666666"
     borderopacity="1.0"
     inkscape:pageopacity="0.0"
     inkscape:pageshadow="2"
     inkscape:zoom="0.43415836"
     inkscape:cx="630.24176"
     inkscape:cy="380"
     inkscape:current-layer="layer1"
     id="namedview5777"
     showgrid="false"
     inkscape:window-width="713"
     inkscape:window-height="615"
     inkscape:window-x="241"
     inkscape:window-y="136"
     inkscape:window-maximized="0" />
  <metadata
     id="metadata5779">
    <rdf:RDF>
      <cc:Work
         rdf:about="">
        <dc:format>image/svg+xml</dc:format>
        <dc:type
           rdf:resource="http://purl.org/dc/dcmitype/StillImage" />
        <dc:title></dc:title>
      </cc:Work>
    </rdf:RDF>
  </metadata>
  <g
     inkscape:label="Layer 1"
     inkscape:groupmode="layer"
     id="layer1">
    <g
       id="g6938"
       transform="translate(-24.257502,-19.666135)">
      <g
         id="g3875"
         transform="matrix(3.6946837,0,0,3.6946837,86.850648,291.20474)">
        <path
           style="fill:#fefde3;stroke:#000000;stroke-width:0.5"
           id="path3877"
           d="m -5,0 0,3 a 2,2 0 0 0 2,2 L 3,5 A 2,2 0 0 0 5,3 L 0,0 5,-3 A 2,2 0 0 0 3,-5 l -6,0 a 2,2 0 0 0 -2,2 z M 0,0 -1,-1 -3,1 -4,0" />
        <path
           style="fill:#77ff88;stroke:#000000;stroke-width:0.5"
           id="path3879"
           d="m 0,0 5,3 a 2,2 0 0 0 2,2 l 6,0 a 2,2 0 0 0 2,-2 2,2 0 0 0 2,2 l 6,0 a 2,2 0 0 0 2,-2 2,2 0 0 0 2,2 l 6,0 a 2,2 0 0 0 2,-2 2,2 0 0 0 2,2 l 6,0 a 2,2 0 0 0 2,-2 l -5,-3 5,3 a 2,2 0 0 0 2,2 2,2 0 0 0 -2,2 l 0,6 a 2,2 0 0 0 2,2 2,2 0 0 0 -2,2 2,2 0 0 0 -2,-2 l -6,0 a 2,2 0 0 0 -2,2 2,2 0 0 0 -2,-2 l -6,0 a 2,2 0 0 0 -2,2 l 5,3 -5,-3 a 2,2 0 0 0 -2,-2 l -6,0 a 2,2 0 0 0 -2,2 2,2 0 0 0 -2,-2 l -6,0 a 2,2 0 0 0 -2,2 l 0,6 a 2,2 0 0 0 2,2 2,2 0 0 0 -2,2 l 5,3 -5,-3 A 2,2 0 0 0 3,25 l -6,0 a 2,2 0 0 0 -2,2 l 0,6 a 2,2 0 0 0 2,2 2,2 0 0 0 -2,2 l 0,6 a 2,2 0 0 0 2,2 2,2 0 0 0 -2,2 l 0,6 a 2,2 0 0 0 2,2 l 6,0 a 2,2 0 0 0 2,-2 2,2 0 0 0 2,2 l 6,0 a 2,2 0 0 0 2,-2 2,2 0 0 0 2,2 l 6,0 a 2,2 0 0 0 2,-2 l -5,-3 5,3 -5,-3 5,-3 -5,3 5,-3 a 2,2 0 0 0 -2,-2 l -6,0 a 2,2 0 0 0 -2,2 2,2 0 0 0 -2,-2 L 7,45 A 2,2 0 0 0 5,47 2,2 0 0 0 3,45 2,2 0 0 0 5,43 L 5,37 A 2,2 0 0 0 3,35 2,2 0 0 0 5,33 l 5,-3 -5,3 a 2,2 0 0 0 2,2 l 6,0 a 2,2 0 0 0 2,-2 l 0,-6 a 2,2 0 0 0 -2,-2 2,2 0 0 0 2,-2 2,2 0 0 0 2,2 l 6,0 a 2,2 0 0 0 2,-2 l 5,-3 -5,3 a 2,2 0 0 0 2,2 l 6,0 a 2,2 0 0 0 2,-2 2,2 0 0 0 2,2 l 6,0 a 2,2 0 0 0 2,-2 2,2 0 0 0 2,2 l 6,0 a 2,2 0 0 0 2,-2 l 0,-6 a 2,2 0 0 0 -2,-2 2,2 0 0 0 2,-2 L 55,7 A 2,2 0 0 0 53,5 2,2 0 0 0 55,3 l 0,-6 a 2,2 0 0 0 -2,-2 l -6,0 a 2,2 0 0 0 -2,2 l -5,3 5,-3 a 2,2 0 0 0 -2,-2 l -6,0 a 2,2 0 0 0 -2,2 2,2 0 0 0 -2,-2 l -6,0 a 2,2 0 0 0 -2,2 2,2 0 0 0 -2,-2 l -6,0 a 2,2 0 0 0 -2,2 2,2 0 0 0 -2,-2 L 7,-5 A 2,2 0 0 0 5,-3 L 0,0" />
        <circle
           style="fill:#000000"
           sodipodi:ry="1"
           sodipodi:rx="1"
           sodipodi:cy="-3"
           sodipodi:cx="40"
           d="m 41,-3 c 0,0.5522847 -0.447715,1 -1,1 -0.552285,0 -1,-0.4477153 -1,-1 0,-0.5522847 0.447715,-1 1,-1 0.552285,0 1,0.4477153 1,1 z"
           id="circle3881"
           r="1"
           cy="-3"
           cx="40" />
        <text
           id="text3883"
           font-size="8"
           style="font-size:8px;text-anchor:middle"
           y="3"
           x="20">O</text>
        <circle
           style="fill:#000000"
           sodipodi:ry="1"
           sodipodi:rx="1"
           sodipodi:cy="23"
           sodipodi:cx="30"
           d="m 31,23 c 0,0.552285 -0.447715,1 -1,1 -0.552285,0 -1,-0.447715 -1,-1 0,-0.552285 0.447715,-1 1,-1 0.552285,0 1,0.447715 1,1 z"
           id="circle3885"
           r="1"
           cy="23"
           cx="30" />
        <text
           id="text3887"
           font-size="8"
           style="font-size:8px;text-anchor:middle"
           y="23"
           x="50">V</text>
        <circle
           style="fill:#000000"
           sodipodi:ry="1"
           sodipodi:rx="1"
           sodipodi:cy="33"
           sodipodi:cx="10"
           d="m 11,33 c 0,0.552285 -0.447715,1 -1,1 -0.5522847,0 -1,-0.447715 -1,-1 0,-0.552285 0.4477153,-1 1,-1 0.552285,0 1,0.447715 1,1 z"
           id="circle3889"
           r="1"
           cy="33"
           cx="10" />
        <text
           id="text3891"
           font-size="8"
           style="font-size:8px;text-anchor:middle"
           y="23"
           x="10">E</text>
        <circle
           style="fill:#000000"
           sodipodi:ry="1"
           sodipodi:rx="1"
           sodipodi:cy="47"
           sodipodi:cx="20"
           d="m 21,47 c 0,0.552285 -0.447715,1 -1,1 -0.552285,0 -1,-0.447715 -1,-1 0,-0.552285 0.447715,-1 1,-1 0.552285,0 1,0.447715 1,1 z"
           id="circle3893"
           r="1"
           cy="47"
           cx="20" />
        <text
           id="text3895"
           font-size="8"
           style="font-size:8px;text-anchor:middle"
           y="53"
           x="0">R</text>
      </g>
      <g
         id="g3897"
         transform="matrix(3.6946837,0,0,3.6946837,401.89709,329.05707)">
        <path
           style="fill:#fefde3;stroke:#000000;stroke-width:0.5"
           id="path3899"
           d="m -5,0 0,3 a 2,2 0 0 0 2,2 L 3,5 A 2,2 0 0 0 5,3 L 0,0 5,-3 A 2,2 0 0 0 3,-5 l -6,0 a 2,2 0 0 0 -2,2 z M 0,0 -1,-1 -3,1 -4,0" />
        <path
           style="fill:#77ff88;stroke:#000000;stroke-width:0.5"
           id="path3901"
           d="m 0,0 5,3 a 2,2 0 0 0 2,2 l 6,0 a 2,2 0 0 0 2,-2 2,2 0 0 0 2,2 l 6,0 a 2,2 0 0 0 2,-2 2,2 0 0 0 2,2 L 30,0 27,5 A 2,2 0 0 0 25,7 2,2 0 0 0 23,5 L 17,5 A 2,2 0 0 0 15,7 2,2 0 0 0 13,5 L 7,5 A 2,2 0 0 0 5,7 2,2 0 0 0 3,5 L -3,5 A 2,2 0 0 0 -5,7 L 0,10 -5,7 A 2,2 0 0 0 -7,5 l -6,0 a 2,2 0 0 0 -2,2 2,2 0 0 0 -2,-2 l -6,0 a 2,2 0 0 0 -2,2 l 0,6 a 2,2 0 0 0 2,2 2,2 0 0 0 -2,2 l 5,3 -5,-3 5,3 -5,3 5,-3 -5,3 a 2,2 0 0 0 2,2 l 6,0 a 2,2 0 0 0 2,-2 l 0,-6 a 2,2 0 0 0 -2,-2 2,2 0 0 0 2,-2 2,2 0 0 0 2,2 l 6,0 a 2,2 0 0 0 2,-2 l 5,-3 -5,3 a 2,2 0 0 0 2,2 l 6,0 a 2,2 0 0 0 2,-2 2,2 0 0 0 2,2 l 6,0 a 2,2 0 0 0 2,-2 2,2 0 0 0 2,2 l 6,0 a 2,2 0 0 0 2,-2 2,2 0 0 0 2,2 l 6,0 a 2,2 0 0 0 2,-2 L 35,7 A 2,2 0 0 0 33,5 l -3,-5 3,5 a 2,2 0 0 0 2,-2 l 0,-6 a 2,2 0 0 0 -2,-2 l -6,0 a 2,2 0 0 0 -2,2 2,2 0 0 0 -2,-2 l -6,0 a 2,2 0 0 0 -2,2 2,2 0 0 0 -2,-2 L 7,-5 A 2,2 0 0 0 5,-3 L 0,0" />
        <circle
           style="fill:#000000"
           sodipodi:ry="1"
           sodipodi:rx="1"
           sodipodi:cy="0"
           sodipodi:cx="33"
           d="m 34,0 c 0,0.55228475 -0.447715,1 -1,1 -0.552285,0 -1,-0.44771525 -1,-1 0,-0.55228475 0.447715,-1 1,-1 0.552285,0 1,0.44771525 1,1 z"
           id="circle3903"
           r="1"
           cy="0"
           cx="33" />
        <text
           id="text3905"
           font-size="8"
           style="font-size:8px;text-anchor:middle"
           y="3"
           x="20">T</text>
        <circle
           style="fill:#000000"
           sodipodi:ry="1"
           sodipodi:rx="1"
           sodipodi:cy="13"
           sodipodi:cx="0"
           d="m 1,13 c 0,0.552285 -0.44771525,1 -1,1 -0.55228475,0 -1,-0.447715 -1,-1 0,-0.552285 0.44771525,-1 1,-1 0.55228475,0 1,0.447715 1,1 z"
           id="circle3907"
           r="1"
           cy="13"
           cx="0" />
        <text
           id="text3909"
           font-size="8"
           style="font-size:8px;text-anchor:middle"
           y="13"
           x="20">H</text>
        <circle
           style="fill:#000000"
           sodipodi:ry="1"
           sodipodi:rx="1"
           sodipodi:cy="23"
           sodipodi:cx="-20"
           d="m -19,23 c 0,0.552285 -0.447715,1 -1,1 -0.552285,0 -1,-0.447715 -1,-1 0,-0.552285 0.447715,-1 1,-1 0.552285,0 1,0.447715 1,1 z"
           id="circle3911"
           r="1"
           cy="23"
           cx="-20" />
        <text
           id="text3913"
           font-size="8"
           style="font-size:8px;text-anchor:middle"
           y="13"
           x="-20">E</text>
      </g>
      <g
         id="g3915"
         transform="matrix(3.6946837,0,0,3.6946837,492.79241,586.90032)">
        <path
           style="fill:#fefde3;stroke:#000000;stroke-width:0.5"
           id="path3917"
           d="m -5,0 0,3 a 2,2 0 0 0 2,2 L 3,5 A 2,2 0 0 0 5,3 L 0,0 5,-3 A 2,2 0 0 0 3,-5 l -6,0 a 2,2 0 0 0 -2,2 z M 0,0 -1,-1 -3,1 -4,0" />
        <path
           style="fill:#77ff88;stroke:#000000;stroke-width:0.5"
           id="path3919"
           d="m 0,0 5,3 a 2,2 0 0 0 2,2 l 6,0 a 2,2 0 0 0 2,-2 l 0,-6 a 2,2 0 0 0 -2,-2 2,2 0 0 0 2,-2 l 0,-6 a 2,2 0 0 0 -2,-2 2,2 0 0 0 2,-2 l 0,-6 a 2,2 0 0 0 -2,-2 2,2 0 0 0 2,-2 2,2 0 0 0 2,2 l 6,0 a 2,2 0 0 0 2,-2 l 0,-6 a 2,2 0 0 0 -2,-2 l -3,5 3,-5 a 2,2 0 0 0 2,-2 l 0,-6 a 2,2 0 0 0 -2,-2 2,2 0 0 0 2,-2 2,2 0 0 0 2,2 l 6,0 a 2,2 0 0 0 2,-2 l 0,-6 a 2,2 0 0 0 -2,-2 2,2 0 0 0 2,-2 l 0,-6 a 2,2 0 0 0 -2,-2 2,2 0 0 0 2,-2 l 0,-6 a 2,2 0 0 0 -2,-2 l -3,5 3,-5 a 2,2 0 0 0 2,-2 l 0,-6 a 2,2 0 0 0 -2,-2 l -6,0 a 2,2 0 0 0 -2,2 2,2 0 0 0 -2,-2 2,2 0 0 0 2,-2 l 0,-6 a 2,2 0 0 0 -2,-2 2,2 0 0 0 2,-2 2,2 0 0 0 2,2 l 6,0 a 2,2 0 0 0 2,-2 l -5,-3 5,3 a 2,2 0 0 0 2,2 l 6,0 a 2,2 0 0 0 2,-2 2,2 0 0 0 2,2 l 6,0 a 2,2 0 0 0 2,-2 2,2 0 0 0 2,2 l 6,0 a 2,2 0 0 0 2,-2 l -5,-3 5,3 -5,-3 5,-3 -5,3 5,-3 a 2,2 0 0 0 -2,-2 l -6,0 a 2,2 0 0 0 -2,2 2,2 0 0 0 -2,-2 l -6,0 a 2,2 0 0 0 -2,2 2,2 0 0 0 -2,-2 l -6,0 a 2,2 0 0 0 -2,2 l -5,3 5,-3 a 2,2 0 0 0 -2,-2 l -6,0 a 2,2 0 0 0 -2,2 2,2 0 0 0 -2,-2 l -6,0 a 2,2 0 0 0 -2,2 l 0,6 a 2,2 0 0 0 2,2 2,2 0 0 0 -2,2 l 0,6 a 2,2 0 0 0 2,2 2,2 0 0 0 -2,2 l 0,6 a 2,2 0 0 0 2,2 l 6,0 a 2,2 0 0 0 2,-2 2,2 0 0 0 2,2 l 3,5 -3,-5 a 2,2 0 0 0 -2,2 l 0,6 a 2,2 0 0 0 2,2 2,2 0 0 0 -2,2 l 0,6 a 2,2 0 0 0 2,2 2,2 0 0 0 -2,2 2,2 0 0 0 -2,-2 l -6,0 a 2,2 0 0 0 -2,2 l 0,6 a 2,2 0 0 0 2,2 2,2 0 0 0 -2,2 l 0,6 a 2,2 0 0 0 2,2 l 3,5 -3,-5 a 2,2 0 0 0 -2,2 2,2 0 0 0 -2,-2 l -6,0 a 2,2 0 0 0 -2,2 l 0,6 a 2,2 0 0 0 2,2 2,2 0 0 0 -2,2 l 0,6 a 2,2 0 0 0 2,2 2,2 0 0 0 -2,2 l 0,6 a 2,2 0 0 0 2,2 2,2 0 0 0 -2,2 L 0,0" />
        <circle
           style="fill:#000000"
           sodipodi:ry="1"
           sodipodi:rx="1"
           sodipodi:cy="-30"
           sodipodi:cx="17"
           d="m 18,-30 c 0,0.552285 -0.447715,1 -1,1 -0.552285,0 -1,-0.447715 -1,-1 0,-0.552285 0.447715,-1 1,-1 0.552285,0 1,0.447715 1,1 z"
           id="circle3921"
           r="1"
           cy="-30"
           cx="17" />
        <text
           id="text3923"
           font-size="8"
           style="font-size:8px;text-anchor:middle"
           y="-17"
           x="10">L</text>
        <circle
           style="fill:#000000"
           sodipodi:ry="1"
           sodipodi:rx="1"
           sodipodi:cy="-70"
           sodipodi:cx="27"
           d="m 28,-70 c 0,0.552285 -0.447715,1 -1,1 -0.552285,0 -1,-0.447715 -1,-1 0,-0.552285 0.447715,-1 1,-1 0.552285,0 1,0.447715 1,1 z"
           id="circle3925"
           r="1"
           cy="-70"
           cx="27" />
        <text
           id="text3927"
           font-size="8"
           style="font-size:8px;text-anchor:middle"
           y="-47"
           x="30">A</text>
        <circle
           style="fill:#000000"
           sodipodi:ry="1"
           sodipodi:rx="1"
           sodipodi:cy="-103"
           sodipodi:cx="30"
           d="m 31,-103 c 0,0.55228 -0.447715,1 -1,1 -0.552285,0 -1,-0.44772 -1,-1 0,-0.55228 0.447715,-1 1,-1 0.552285,0 1,0.44772 1,1 z"
           id="circle3929"
           r="1"
           cy="-103"
           cx="30" />
        <text
           id="text3931"
           font-size="8"
           style="font-size:8px;text-anchor:middle"
           y="-87"
           x="20">Z</text>
        <circle
           style="fill:#000000"
           sodipodi:ry="1"
           sodipodi:rx="1"
           sodipodi:cy="-103"
           sodipodi:cx="60"
           d="m 61,-103 c 0,0.55228 -0.447715,1 -1,1 -0.552285,0 -1,-0.44772 -1,-1 0,-0.55228 0.447715,-1 1,-1 0.552285,0 1,0.44772 1,1 z"
           id="circle3933"
           r="1"
           cy="-103"
           cx="60" />
        <text
           id="text3935"
           font-size="8"
           style="font-size:8px;text-anchor:middle"
           y="-97"
           x="50">Y</text>
      </g>
      <g
         id="g3937"
         transform="matrix(3.6946837,0,0,3.6946837,656.08966,290.7583)">
        <path
           id="path3939"
           d="m -5,0 0,3 a 2,2 0 0 0 2,2 L 3,5 A 2,2 0 0 0 5,3 L 0,0 5,-3 A 2,2 0 0 0 3,-5 l -6,0 a 2,2 0 0 0 -2,2 z M 0,0 -1,-1 -3,1 -4,0"
           style="fill:#fefde3;stroke:#000000;stroke-width:0.5" />
        <path
           id="path3941"
           d="m 0,0 5,3 a 2,2 0 0 0 2,2 l 6,0 a 2,2 0 0 0 2,-2 2,2 0 0 0 2,2 l 6,0 a 2,2 0 0 0 2,-2 2,2 0 0 0 2,2 l 6,0 a 2,2 0 0 0 2,-2 2,2 0 0 0 2,2 l 6,0 a 2,2 0 0 0 2,-2 2,2 0 0 0 2,2 l 3,-5 -3,5 a 2,2 0 0 0 -2,2 l 0,6 a 2,2 0 0 0 2,2 2,2 0 0 0 -2,2 l 0,6 a 2,2 0 0 0 2,2 2,2 0 0 0 -2,2 l 0,6 a 2,2 0 0 0 2,2 2,2 0 0 0 -2,2 l 0,6 a 2,2 0 0 0 2,2 l 3,-5 -3,5 a 2,2 0 0 0 -2,2 l 0,6 a 2,2 0 0 0 2,2 l 6,0 a 2,2 0 0 0 2,-2 2,2 0 0 0 2,2 2,2 0 0 0 -2,2 l 0,6 a 2,2 0 0 0 2,2 l 6,0 a 2,2 0 0 0 2,-2 2,2 0 0 0 2,2 l 6,0 a 2,2 0 0 0 2,-2 2,2 0 0 0 2,2 l 6,0 a 2,2 0 0 0 2,-2 l 0,-6 a 2,2 0 0 0 -2,-2 l -3,5 3,-5 -3,5 -3,-5 3,5 -3,-5 a 2,2 0 0 0 -2,2 2,2 0 0 0 -2,-2 l -6,0 a 2,2 0 0 0 -2,2 2,2 0 0 0 -2,-2 2,2 0 0 0 2,-2 l 0,-6 a 2,2 0 0 0 -2,-2 l -6,0 a 2,2 0 0 0 -2,2 2,2 0 0 0 -2,-2 l -3,-5 3,5 a 2,2 0 0 0 2,-2 l 0,-6 a 2,2 0 0 0 -2,-2 2,2 0 0 0 2,-2 l 0,-6 a 2,2 0 0 0 -2,-2 2,2 0 0 0 2,-2 l 0,-6 a 2,2 0 0 0 -2,-2 2,2 0 0 0 2,-2 L 55,7 A 2,2 0 0 0 53,5 l -3,-5 3,5 a 2,2 0 0 0 2,-2 l 0,-6 a 2,2 0 0 0 -2,-2 l -6,0 a 2,2 0 0 0 -2,2 2,2 0 0 0 -2,-2 l -6,0 a 2,2 0 0 0 -2,2 2,2 0 0 0 -2,-2 l -6,0 a 2,2 0 0 0 -2,2 2,2 0 0 0 -2,-2 l -6,0 a 2,2 0 0 0 -2,2 2,2 0 0 0 -2,-2 L 7,-5 A 2,2 0 0 0 5,-3 L 0,0"
           style="fill:#77ff88;stroke:#000000;stroke-width:0.5" />
        <circle
           d="m 54,0 c 0,0.55228475 -0.447715,1 -1,1 -0.552285,0 -1,-0.44771525 -1,-1 0,-0.55228475 0.447715,-1 1,-1 0.552285,0 1,0.44771525 1,1 z"
           id="circle3943"
           r="1"
           cy="0"
           cx="53"
           sodipodi:cx="53"
           sodipodi:cy="0"
           sodipodi:rx="1"
           sodipodi:ry="1"
           style="fill:#000000" />
        <text
           id="text3945"
           font-size="8"
           style="font-size:8px;text-anchor:middle"
           y="3"
           x="30">D</text>
        <circle
           d="m 54,40 c 0,0.552285 -0.447715,1 -1,1 -0.552285,0 -1,-0.447715 -1,-1 0,-0.552285 0.447715,-1 1,-1 0.552285,0 1,0.447715 1,1 z"
           id="circle3947"
           r="1"
           cy="40"
           cx="53"
           sodipodi:cx="53"
           sodipodi:cy="40"
           sodipodi:rx="1"
           sodipodi:ry="1"
           style="fill:#000000" />
        <text
           id="text3949"
           font-size="8"
           style="font-size:8px;text-anchor:middle"
           y="23"
           x="50">O</text>
        <circle
           d="m 78,60 c 0,0.552285 -0.447715,1 -1,1 -0.552285,0 -1,-0.447715 -1,-1 0,-0.552285 0.447715,-1 1,-1 0.552285,0 1,0.447715 1,1 z"
           id="circle3951"
           r="1"
           cy="60"
           cx="77"
           sodipodi:cx="77"
           sodipodi:cy="60"
           sodipodi:rx="1"
           sodipodi:ry="1"
           style="fill:#000000" />
        <text
           id="text3953"
           font-size="8"
           style="font-size:8px;text-anchor:middle"
           y="63"
           x="60">G</text>
      </g>
    </g>
  </g>
</svg>
