<?xml version="1.0" encoding="UTF-8" standalone="no"?>
<!-- Created with Inkscape (http://www.inkscape.org/) -->

<svg
   xmlns:dc="http://purl.org/dc/elements/1.1/"
   xmlns:cc="http://creativecommons.org/ns#"
   xmlns:rdf="http://www.w3.org/1999/02/22-rdf-syntax-ns#"
   xmlns:svg="http://www.w3.org/2000/svg"
   xmlns="http://www.w3.org/2000/svg"
   xmlns:sodipodi="http://sodipodi.sourceforge.net/DTD/sodipodi-0.dtd"
   xmlns:inkscape="http://www.inkscape.org/namespaces/inkscape"
   width="612pt"
   height="792pt"
   id="svg10109"
   version="1.1"
   inkscape:version="0.47 r22583"
   sodipodi:docname="New document 16">
  <defs
     id="defs10111">
    <inkscape:perspective
       sodipodi:type="inkscape:persp3d"
       inkscape:vp_x="0 : 495 : 1"
       inkscape:vp_y="0 : 1000 : 0"
       inkscape:vp_z="765 : 495 : 1"
       inkscape:persp3d-origin="382.5 : 330 : 1"
       id="perspective10118" />
    <inkscape:perspective
       id="perspective10034"
       inkscape:persp3d-origin="0.5 : 0.33333333 : 1"
       inkscape:vp_z="1 : 0.5 : 1"
       inkscape:vp_y="0 : 1000 : 0"
       inkscape:vp_x="0 : 0.5 : 1"
       sodipodi:type="inkscape:persp3d" />
  </defs>
  <sodipodi:namedview
     inkscape:document-units="in"
     pagecolor="#ffffff"
     bordercolor="#666666"
     borderopacity="1.0"
     inkscape:pageopacity="0.0"
     inkscape:pageshadow="2"
     inkscape:zoom="0.36"
     inkscape:cx="498.09703"
     inkscape:cy="500"
     inkscape:current-layer="layer1"
     id="namedview10113"
     showgrid="false"
     inkscape:window-width="883"
     inkscape:window-height="728"
     inkscape:window-x="0"
     inkscape:window-y="26"
     inkscape:window-maximized="0" />
  <metadata
     id="metadata10115">
    <rdf:RDF>
      <cc:Work
         rdf:about="">
        <dc:format>image/svg+xml</dc:format>
        <dc:type
           rdf:resource="http://purl.org/dc/dcmitype/StillImage" />
        <dc:title></dc:title>
      </cc:Work>
    </rdf:RDF>
  </metadata>
  <g
     inkscape:label="Layer 1"
     inkscape:groupmode="layer"
     id="layer1">
    <g
       id="g10483"
       transform="translate(-0.486695,-7.04562)">
      <g
         id="g6048"
         transform="matrix(3.7004554,0,0,3.7004554,44.941466,57.735978)">
        <path
           style="fill:#fefde3;stroke:#000000;stroke-width:0.5"
           id="path6050"
           d="m -5,0 0,3 a 2,2 0 0 0 2,2 L 3,5 A 2,2 0 0 0 5,3 L 0,0 5,-3 A 2,2 0 0 0 3,-5 l -6,0 a 2,2 0 0 0 -2,2 z M 0,0 -1,-1 -3,1 -4,0" />
        <path
           style="fill:#77ff88;stroke:#000000;stroke-width:0.5"
           id="path6052"
           d="m 0,0 5,3 a 2,2 0 0 0 2,2 l 6,0 a 2,2 0 0 0 2,-2 2,2 0 0 0 2,2 l 6,0 a 2,2 0 0 0 2,-2 2,2 0 0 0 2,2 l 6,0 a 2,2 0 0 0 2,-2 2,2 0 0 0 2,2 2,2 0 0 0 -2,2 l 0,6 a 2,2 0 0 0 2,2 l 6,0 a 2,2 0 0 0 2,-2 l -5,-3 5,3 a 2,2 0 0 0 2,2 2,2 0 0 0 -2,2 l 0,6 a 2,2 0 0 0 2,2 2,2 0 0 0 -2,2 l 0,6 a 2,2 0 0 0 2,2 l 6,0 a 2,2 0 0 0 2,-2 2,2 0 0 0 2,2 2,2 0 0 0 -2,2 l 0,6 a 2,2 0 0 0 2,2 l 3,-5 -3,5 a 2,2 0 0 0 -2,2 l 0,6 a 2,2 0 0 0 2,2 2,2 0 0 0 -2,2 l 0,6 a 2,2 0 0 0 2,2 2,2 0 0 0 -2,2 l 0,6 a 2,2 0 0 0 2,2 l 3,-5 -3,5 3,-5 3,5 -3,-5 3,5 a 2,2 0 0 0 2,-2 l 0,-6 a 2,2 0 0 0 -2,-2 2,2 0 0 0 2,-2 l 0,-6 a 2,2 0 0 0 -2,-2 2,2 0 0 0 2,-2 l 0,-6 a 2,2 0 0 0 -2,-2 l -3,-5 3,5 a 2,2 0 0 0 2,-2 l 0,-6 a 2,2 0 0 0 -2,-2 2,2 0 0 0 2,-2 l 0,-6 a 2,2 0 0 0 -2,-2 l -6,0 a 2,2 0 0 0 -2,2 2,2 0 0 0 -2,-2 2,2 0 0 0 2,-2 l 0,-6 a 2,2 0 0 0 -2,-2 2,2 0 0 0 2,-2 L 55,7 A 2,2 0 0 0 53,5 l -6,0 a 2,2 0 0 0 -2,2 l -5,3 5,-3 A 2,2 0 0 0 43,5 2,2 0 0 0 45,3 l 0,-6 a 2,2 0 0 0 -2,-2 l -6,0 a 2,2 0 0 0 -2,2 2,2 0 0 0 -2,-2 l -6,0 a 2,2 0 0 0 -2,2 2,2 0 0 0 -2,-2 l -6,0 a 2,2 0 0 0 -2,2 2,2 0 0 0 -2,-2 L 7,-5 A 2,2 0 0 0 5,-3 L 0,0" />
        <circle
           style="fill:#000000"
           sodipodi:ry="1"
           sodipodi:rx="1"
           sodipodi:cy="7"
           sodipodi:cx="40"
           d="m 41,7 c 0,0.5522847 -0.447715,1 -1,1 -0.552285,0 -1,-0.4477153 -1,-1 0,-0.5522847 0.447715,-1 1,-1 0.552285,0 1,0.4477153 1,1 z"
           id="circle6054"
           r="1"
           cy="7"
           cx="40" />
        <text
           id="text6056"
           font-size="8"
           style="font-size:8px;text-anchor:middle"
           y="3"
           x="30">C</text>
        <circle
           style="fill:#000000"
           sodipodi:ry="1"
           sodipodi:rx="1"
           sodipodi:cy="40"
           sodipodi:cx="63"
           d="m 64,40 c 0,0.552285 -0.447715,1 -1,1 -0.552285,0 -1,-0.447715 -1,-1 0,-0.552285 0.447715,-1 1,-1 0.552285,0 1,0.447715 1,1 z"
           id="circle6058"
           r="1"
           cy="40"
           cx="63" />
        <text
           id="text6060"
           font-size="8"
           style="font-size:8px;text-anchor:middle"
           y="33"
           x="50">W</text>
        <circle
           style="fill:#000000"
           sodipodi:ry="1"
           sodipodi:rx="1"
           sodipodi:cy="70"
           sodipodi:cx="63"
           d="m 64,70 c 0,0.552285 -0.447715,1 -1,1 -0.552285,0 -1,-0.447715 -1,-1 0,-0.552285 0.447715,-1 1,-1 0.552285,0 1,0.447715 1,1 z"
           id="circle6062"
           r="1"
           cy="70"
           cx="63" />
        <text
           id="text6064"
           font-size="8"
           style="font-size:8px;text-anchor:middle"
           y="63"
           x="60">M</text>
      </g>
      <g
         id="g6066"
         transform="matrix(3.7004554,0,0,3.7004554,320.8454,60.537525)">
        <path
           style="fill:#fefde3;stroke:#000000;stroke-width:0.5"
           id="path6068"
           d="m -5,0 0,3 a 2,2 0 0 0 2,2 L 3,5 A 2,2 0 0 0 5,3 L 0,0 5,-3 A 2,2 0 0 0 3,-5 l -6,0 a 2,2 0 0 0 -2,2 z M 0,0 -1,-1 -3,1 -4,0" />
        <path
           style="fill:#77ff88;stroke:#000000;stroke-width:0.5"
           id="path6070"
           d="m 0,0 5,3 a 2,2 0 0 0 2,2 l 6,0 a 2,2 0 0 0 2,-2 2,2 0 0 0 2,2 l 6,0 a 2,2 0 0 0 2,-2 2,2 0 0 0 2,2 2,2 0 0 0 -2,2 l 0,6 a 2,2 0 0 0 2,2 2,2 0 0 0 -2,2 l 0,6 a 2,2 0 0 0 2,2 l 3,-5 -3,5 a 2,2 0 0 0 -2,2 2,2 0 0 0 -2,-2 l -6,0 a 2,2 0 0 0 -2,2 l 0,6 a 2,2 0 0 0 2,2 2,2 0 0 0 -2,2 l 0,6 a 2,2 0 0 0 2,2 2,2 0 0 0 -2,2 l 0,6 a 2,2 0 0 0 2,2 2,2 0 0 0 -2,2 l 0,6 a 2,2 0 0 0 2,2 l 6,0 a 2,2 0 0 0 2,-2 l -5,-3 5,3 a 2,2 0 0 0 2,2 l 6,0 a 2,2 0 0 0 2,-2 2,2 0 0 0 2,2 l 6,0 a 2,2 0 0 0 2,-2 2,2 0 0 0 2,2 l 3,-5 -3,5 a 2,2 0 0 0 -2,2 l 0,6 a 2,2 0 0 0 2,2 l 6,0 a 2,2 0 0 0 2,-2 2,2 0 0 0 2,2 l 6,0 a 2,2 0 0 0 2,-2 2,2 0 0 0 2,2 l 6,0 a 2,2 0 0 0 2,-2 l 0,-6 a 2,2 0 0 0 -2,-2 2,2 0 0 0 2,-2 l 0,-6 a 2,2 0 0 0 -2,-2 2,2 0 0 0 2,-2 l 0,-6 a 2,2 0 0 0 -2,-2 l -3,5 3,-5 a 2,2 0 0 0 2,-2 l 0,-6 a 2,2 0 0 0 -2,-2 l -6,0 a 2,2 0 0 0 -2,2 2,2 0 0 0 -2,-2 2,2 0 0 0 2,-2 l 0,-6 a 2,2 0 0 0 -2,-2 2,2 0 0 0 2,-2 l 0,-6 a 2,2 0 0 0 -2,-2 2,2 0 0 0 2,-2 L 65,7 A 2,2 0 0 0 63,5 l -3,5 3,-5 -3,5 -3,-5 3,5 -3,-5 a 2,2 0 0 0 -2,2 l 0,6 a 2,2 0 0 0 2,2 2,2 0 0 0 -2,2 l 0,6 a 2,2 0 0 0 2,2 2,2 0 0 0 -2,2 l 0,6 a 2,2 0 0 0 2,2 2,2 0 0 0 -2,2 l 0,6 a 2,2 0 0 0 2,2 l 6,0 a 2,2 0 0 0 2,-2 2,2 0 0 0 2,2 l 3,5 -3,-5 a 2,2 0 0 0 -2,2 l 0,6 a 2,2 0 0 0 2,2 2,2 0 0 0 -2,2 l 0,6 a 2,2 0 0 0 2,2 2,2 0 0 0 -2,2 2,2 0 0 0 -2,-2 l -6,0 a 2,2 0 0 0 -2,2 2,2 0 0 0 -2,-2 l -3,-5 3,5 a 2,2 0 0 0 2,-2 l 0,-6 a 2,2 0 0 0 -2,-2 l -6,0 a 2,2 0 0 0 -2,2 2,2 0 0 0 -2,-2 l -6,0 a 2,2 0 0 0 -2,2 2,2 0 0 0 -2,-2 l -6,0 a 2,2 0 0 0 -2,2 l -5,3 5,-3 a 2,2 0 0 0 -2,-2 2,2 0 0 0 2,-2 l 0,-6 a 2,2 0 0 0 -2,-2 2,2 0 0 0 2,-2 l 0,-6 a 2,2 0 0 0 -2,-2 2,2 0 0 0 2,-2 2,2 0 0 0 2,2 l 6,0 a 2,2 0 0 0 2,-2 l 0,-6 a 2,2 0 0 0 -2,-2 l -3,-5 3,5 a 2,2 0 0 0 2,-2 l 0,-6 a 2,2 0 0 0 -2,-2 2,2 0 0 0 2,-2 L 35,7 A 2,2 0 0 0 33,5 2,2 0 0 0 35,3 l 0,-6 a 2,2 0 0 0 -2,-2 l -6,0 a 2,2 0 0 0 -2,2 2,2 0 0 0 -2,-2 l -6,0 a 2,2 0 0 0 -2,2 2,2 0 0 0 -2,-2 L 7,-5 A 2,2 0 0 0 5,-3 L 0,0" />
        <circle
           style="fill:#000000"
           sodipodi:ry="1"
           sodipodi:rx="1"
           sodipodi:cy="20"
           sodipodi:cx="33"
           d="m 34,20 c 0,0.552285 -0.447715,1 -1,1 -0.552285,0 -1,-0.447715 -1,-1 0,-0.552285 0.447715,-1 1,-1 0.552285,0 1,0.447715 1,1 z"
           id="circle6072"
           r="1"
           cy="20"
           cx="33" />
        <text
           id="text6074"
           font-size="8"
           style="font-size:8px;text-anchor:middle"
           y="3"
           x="30">F</text>
        <circle
           style="fill:#000000"
           sodipodi:ry="1"
           sodipodi:rx="1"
           sodipodi:cy="57"
           sodipodi:cx="20"
           d="m 21,57 c 0,0.552285 -0.447715,1 -1,1 -0.552285,0 -1,-0.447715 -1,-1 0,-0.552285 0.447715,-1 1,-1 0.552285,0 1,0.447715 1,1 z"
           id="circle6076"
           r="1"
           cy="57"
           cx="20" />
        <text
           id="text6078"
           font-size="8"
           style="font-size:8px;text-anchor:middle"
           y="43"
           x="20">J</text>
        <circle
           style="fill:#000000"
           sodipodi:ry="1"
           sodipodi:rx="1"
           sodipodi:cy="60"
           sodipodi:cx="53"
           d="m 54,60 c 0,0.552285 -0.447715,1 -1,1 -0.552285,0 -1,-0.447715 -1,-1 0,-0.552285 0.447715,-1 1,-1 0.552285,0 1,0.447715 1,1 z"
           id="circle6080"
           r="1"
           cy="60"
           cx="53" />
        <text
           id="text6082"
           font-size="8"
           style="font-size:8px;text-anchor:middle"
           y="63"
           x="40">O</text>
        <circle
           style="fill:#000000"
           sodipodi:ry="1"
           sodipodi:rx="1"
           sodipodi:cy="50"
           sodipodi:cx="67"
           d="m 68,50 c 0,0.552285 -0.447715,1 -1,1 -0.552285,0 -1,-0.447715 -1,-1 0,-0.552285 0.447715,-1 1,-1 0.552285,0 1,0.447715 1,1 z"
           id="circle6084"
           r="1"
           cy="50"
           cx="67" />
        <text
           id="text6086"
           font-size="8"
           style="font-size:8px;text-anchor:middle"
           y="73"
           x="70">R</text>
        <circle
           style="fill:#000000"
           sodipodi:ry="1"
           sodipodi:rx="1"
           sodipodi:cy="10"
           sodipodi:cx="57"
           d="m 58,10 c 0,0.552285 -0.447715,1 -1,1 -0.552285,0 -1,-0.447715 -1,-1 0,-0.5522847 0.447715,-1 1,-1 0.552285,0 1,0.4477153 1,1 z"
           id="circle6088"
           r="1"
           cy="10"
           cx="57" />
        <text
           id="text6090"
           font-size="8"
           style="font-size:8px;text-anchor:middle"
           y="33"
           x="60">D</text>
      </g>
      <g
         id="g6092"
         transform="matrix(3.7004554,0,0,3.7004554,412.49561,526.65794)">
        <path
           style="fill:#fefde3;stroke:#000000;stroke-width:0.5"
           id="path6094"
           d="m -5,0 0,3 a 2,2 0 0 0 2,2 L 3,5 A 2,2 0 0 0 5,3 L 0,0 5,-3 A 2,2 0 0 0 3,-5 l -6,0 a 2,2 0 0 0 -2,2 z M 0,0 -1,-1 -3,1 -4,0" />
        <path
           style="fill:#77ff88;stroke:#000000;stroke-width:0.5"
           id="path6096"
           d="m 0,0 5,3 a 2,2 0 0 0 2,2 l 6,0 a 2,2 0 0 0 2,-2 l 0,-6 a 2,2 0 0 0 -2,-2 2,2 0 0 0 2,-2 l 0,-6 a 2,2 0 0 0 -2,-2 2,2 0 0 0 2,-2 l 0,-6 a 2,2 0 0 0 -2,-2 l -6,0 a 2,2 0 0 0 -2,2 2,2 0 0 0 -2,-2 2,2 0 0 0 2,-2 l 0,-6 a 2,2 0 0 0 -2,-2 l -6,0 a 2,2 0 0 0 -2,2 l 5,3 -5,-3 a 2,2 0 0 0 -2,-2 l -6,0 a 2,2 0 0 0 -2,2 2,2 0 0 0 -2,-2 2,2 0 0 0 2,-2 l 0,-6 a 2,2 0 0 0 -2,-2 l -6,0 a 2,2 0 0 0 -2,2 2,2 0 0 0 -2,-2 l -6,0 a 2,2 0 0 0 -2,2 2,2 0 0 0 -2,-2 l -6,0 a 2,2 0 0 0 -2,2 l 5,3 -5,-3 a 2,2 0 0 0 -2,-2 l -6,0 a 2,2 0 0 0 -2,2 2,2 0 0 0 -2,-2 2,2 0 0 0 2,-2 l 0,-6 a 2,2 0 0 0 -2,-2 l -6,0 a 2,2 0 0 0 -2,2 2,2 0 0 0 -2,-2 l -3,5 3,-5 a 2,2 0 0 0 2,-2 l 0,-6 a 2,2 0 0 0 -2,-2 l -6,0 a 2,2 0 0 0 -2,2 2,2 0 0 0 -2,-2 l -6,0 a 2,2 0 0 0 -2,2 2,2 0 0 0 -2,-2 l -6,0 a 2,2 0 0 0 -2,2 2,2 0 0 0 -2,-2 2,2 0 0 0 2,-2 l 0,-6 a 2,2 0 0 0 -2,-2 l -6,0 a 2,2 0 0 0 -2,2 l 5,3 -5,-3 5,3 -5,3 5,-3 -5,3 a 2,2 0 0 0 2,2 2,2 0 0 0 -2,2 l 0,6 a 2,2 0 0 0 2,2 l 6,0 a 2,2 0 0 0 2,-2 2,2 0 0 0 2,2 l 6,0 a 2,2 0 0 0 2,-2 2,2 0 0 0 2,2 l 6,0 a 2,2 0 0 0 2,-2 2,2 0 0 0 2,2 l 3,5 -3,-5 a 2,2 0 0 0 -2,2 l 0,6 a 2,2 0 0 0 2,2 l 6,0 a 2,2 0 0 0 2,-2 2,2 0 0 0 2,2 2,2 0 0 0 -2,2 l 0,6 a 2,2 0 0 0 2,2 l 6,0 a 2,2 0 0 0 2,-2 2,2 0 0 0 2,2 l 6,0 a 2,2 0 0 0 2,-2 l 5,-3 -5,3 a 2,2 0 0 0 2,2 l 6,0 a 2,2 0 0 0 2,-2 2,2 0 0 0 2,2 l 6,0 a 2,2 0 0 0 2,-2 2,2 0 0 0 2,2 2,2 0 0 0 -2,2 l 0,6 a 2,2 0 0 0 2,2 l 6,0 a 2,2 0 0 0 2,-2 2,2 0 0 0 2,2 l 6,0 a 2,2 0 0 0 2,-2 l 5,-3 -5,3 a 2,2 0 0 0 2,2 2,2 0 0 0 -2,2 l 0,6 a 2,2 0 0 0 2,2 l 6,0 a 2,2 0 0 0 2,-2 2,2 0 0 0 2,2 2,2 0 0 0 -2,2 l 0,6 a 2,2 0 0 0 2,2 2,2 0 0 0 -2,2 L 0,0" />
        <circle
           style="fill:#000000"
           sodipodi:ry="1"
           sodipodi:rx="1"
           sodipodi:cy="-27"
           sodipodi:cx="0"
           d="m 1,-27 c 0,0.552285 -0.44771525,1 -1,1 -0.55228475,0 -1,-0.447715 -1,-1 0,-0.552285 0.44771525,-1 1,-1 0.55228475,0 1,0.447715 1,1 z"
           id="circle6098"
           r="1"
           cy="-27"
           cx="0" />
        <text
           id="text6100"
           font-size="8"
           style="font-size:8px;text-anchor:middle"
           y="-17"
           x="10">B</text>
        <circle
           style="fill:#000000"
           sodipodi:ry="1"
           sodipodi:rx="1"
           sodipodi:cy="-37"
           sodipodi:cx="-40"
           d="m -39,-37 c 0,0.552285 -0.447715,1 -1,1 -0.552285,0 -1,-0.447715 -1,-1 0,-0.552285 0.447715,-1 1,-1 0.552285,0 1,0.447715 1,1 z"
           id="circle6102"
           r="1"
           cy="-37"
           cx="-40" />
        <text
           id="text6104"
           font-size="8"
           style="font-size:8px;text-anchor:middle"
           y="-37"
           x="-20">A</text>
        <circle
           style="fill:#000000"
           sodipodi:ry="1"
           sodipodi:rx="1"
           sodipodi:cy="-50"
           sodipodi:cx="-73"
           d="m -72,-50 c 0,0.552285 -0.447715,1 -1,1 -0.552285,0 -1,-0.447715 -1,-1 0,-0.552285 0.447715,-1 1,-1 0.552285,0 1,0.447715 1,1 z"
           id="circle6106"
           r="1"
           cy="-50"
           cx="-73" />
        <text
           id="text6108"
           font-size="8"
           style="font-size:8px;text-anchor:middle"
           y="-37"
           x="-60">N</text>
        <circle
           style="fill:#000000"
           sodipodi:ry="1"
           sodipodi:rx="1"
           sodipodi:cy="-67"
           sodipodi:cx="-100"
           d="m -99,-67 c 0,0.552285 -0.447715,1 -1,1 -0.55228,0 -1,-0.447715 -1,-1 0,-0.552285 0.44772,-1 1,-1 0.552285,0 1,0.447715 1,1 z"
           id="circle6110"
           r="1"
           cy="-67"
           cx="-100" />
        <text
           id="text6112"
           font-size="8"
           style="font-size:8px;text-anchor:middle"
           y="-57"
           x="-90">K</text>
      </g>
      <g
         id="g6114"
         transform="matrix(3.7004554,0,0,3.7004554,538.50055,527.29328)">
        <path
           style="fill:#fefde3;stroke:#000000;stroke-width:0.5"
           id="path6116"
           d="m -5,0 0,3 a 2,2 0 0 0 2,2 L 3,5 A 2,2 0 0 0 5,3 L 0,0 5,-3 A 2,2 0 0 0 3,-5 l -6,0 a 2,2 0 0 0 -2,2 z M 0,0 -1,-1 -3,1 -4,0" />
        <path
           style="fill:#77ff88;stroke:#000000;stroke-width:0.5"
           id="path6118"
           d="m 0,0 5,3 a 2,2 0 0 0 2,2 l 6,0 a 2,2 0 0 0 2,-2 2,2 0 0 0 2,2 2,2 0 0 0 -2,2 l 0,6 a 2,2 0 0 0 2,2 2,2 0 0 0 -2,2 l 0,6 a 2,2 0 0 0 2,2 l 3,-5 -3,5 a 2,2 0 0 0 -2,2 2,2 0 0 0 -2,-2 l -6,0 a 2,2 0 0 0 -2,2 l 0,6 a 2,2 0 0 0 2,2 2,2 0 0 0 -2,2 2,2 0 0 0 -2,-2 l -6,0 a 2,2 0 0 0 -2,2 2,2 0 0 0 -2,-2 l -6,0 a 2,2 0 0 0 -2,2 l 0,6 a 2,2 0 0 0 2,2 l 3,-5 -3,5 a 2,2 0 0 0 -2,2 l 0,6 a 2,2 0 0 0 2,2 2,2 0 0 0 -2,2 2,2 0 0 0 -2,-2 l -6,0 a 2,2 0 0 0 -2,2 l 0,6 a 2,2 0 0 0 2,2 l 3,-5 -3,5 a 2,2 0 0 0 -2,2 l 0,6 a 2,2 0 0 0 2,2 2,2 0 0 0 -2,2 l 0,6 a 2,2 0 0 0 2,2 l 6,0 a 2,2 0 0 0 2,-2 2,2 0 0 0 2,2 2,2 0 0 0 -2,2 l 0,6 a 2,2 0 0 0 2,2 l 6,0 a 2,2 0 0 0 2,-2 2,2 0 0 0 2,2 l 6,0 a 2,2 0 0 0 2,-2 l -5,-3 5,3 a 2,2 0 0 0 2,2 l 6,0 a 2,2 0 0 0 2,-2 2,2 0 0 0 2,2 l 6,0 a 2,2 0 0 0 2,-2 2,2 0 0 0 2,2 l 6,0 a 2,2 0 0 0 2,-2 2,2 0 0 0 2,2 l 6,0 a 2,2 0 0 0 2,-2 l -5,-3 5,3 a 2,2 0 0 0 2,2 2,2 0 0 0 -2,2 l 0,6 a 2,2 0 0 0 2,2 2,2 0 0 0 -2,2 2,2 0 0 0 -2,-2 l -6,0 a 2,2 0 0 0 -2,2 l 5,3 -5,-3 5,3 -5,3 5,-3 -5,3 a 2,2 0 0 0 2,2 l 6,0 a 2,2 0 0 0 2,-2 2,2 0 0 0 2,2 l 6,0 a 2,2 0 0 0 2,-2 l 0,-6 a 2,2 0 0 0 -2,-2 2,2 0 0 0 2,-2 l 0,-6 a 2,2 0 0 0 -2,-2 2,2 0 0 0 2,-2 l 0,-6 a 2,2 0 0 0 -2,-2 l -6,0 a 2,2 0 0 0 -2,2 l -5,3 5,-3 a 2,2 0 0 0 -2,-2 l -6,0 a 2,2 0 0 0 -2,2 2,2 0 0 0 -2,-2 l -6,0 a 2,2 0 0 0 -2,2 2,2 0 0 0 -2,-2 l -6,0 a 2,2 0 0 0 -2,2 2,2 0 0 0 -2,-2 L 7,85 A 2,2 0 0 0 5,87 L 0,90 5,87 A 2,2 0 0 0 3,85 l -6,0 a 2,2 0 0 0 -2,2 2,2 0 0 0 -2,-2 2,2 0 0 0 2,-2 l 0,-6 a 2,2 0 0 0 -2,-2 l -6,0 a 2,2 0 0 0 -2,2 2,2 0 0 0 -2,-2 2,2 0 0 0 2,-2 l 0,-6 a 2,2 0 0 0 -2,-2 l -3,-5 3,5 a 2,2 0 0 0 2,-2 2,2 0 0 0 2,2 l 6,0 a 2,2 0 0 0 2,-2 l 0,-6 a 2,2 0 0 0 -2,-2 2,2 0 0 0 2,-2 l 0,-6 a 2,2 0 0 0 -2,-2 l -3,-5 3,5 a 2,2 0 0 0 2,-2 2,2 0 0 0 2,2 l 6,0 a 2,2 0 0 0 2,-2 2,2 0 0 0 2,2 l 6,0 a 2,2 0 0 0 2,-2 l 0,-6 a 2,2 0 0 0 -2,-2 2,2 0 0 0 2,-2 2,2 0 0 0 2,2 l 6,0 a 2,2 0 0 0 2,-2 l 0,-6 a 2,2 0 0 0 -2,-2 l -3,-5 3,5 a 2,2 0 0 0 2,-2 l 0,-6 a 2,2 0 0 0 -2,-2 2,2 0 0 0 2,-2 L 25,7 A 2,2 0 0 0 23,5 2,2 0 0 0 25,3 l 0,-6 a 2,2 0 0 0 -2,-2 l -6,0 a 2,2 0 0 0 -2,2 2,2 0 0 0 -2,-2 L 7,-5 A 2,2 0 0 0 5,-3 L 0,0" />
        <circle
           style="fill:#000000"
           sodipodi:ry="1"
           sodipodi:rx="1"
           sodipodi:cy="20"
           sodipodi:cx="23"
           d="m 24,20 c 0,0.552285 -0.447715,1 -1,1 -0.552285,0 -1,-0.447715 -1,-1 0,-0.552285 0.447715,-1 1,-1 0.552285,0 1,0.447715 1,1 z"
           id="circle6120"
           r="1"
           cy="20"
           cx="23" />
        <text
           id="text6122"
           font-size="8"
           style="font-size:8px;text-anchor:middle"
           y="3"
           x="20">G</text>
        <circle
           style="fill:#000000"
           sodipodi:ry="1"
           sodipodi:rx="1"
           sodipodi:cy="40"
           sodipodi:cx="-7"
           d="m -6,40 c 0,0.552285 -0.4477153,1 -1,1 -0.5522847,0 -1,-0.447715 -1,-1 0,-0.552285 0.4477153,-1 1,-1 0.5522847,0 1,0.447715 1,1 z"
           id="circle6124"
           r="1"
           cy="40"
           cx="-7" />
        <text
           id="text6126"
           font-size="8"
           style="font-size:8px;text-anchor:middle"
           y="43"
           x="10">L</text>
        <circle
           style="fill:#000000"
           sodipodi:ry="1"
           sodipodi:rx="1"
           sodipodi:cy="60"
           sodipodi:cx="-17"
           d="m -16,60 c 0,0.552285 -0.447715,1 -1,1 -0.552285,0 -1,-0.447715 -1,-1 0,-0.552285 0.447715,-1 1,-1 0.552285,0 1,0.447715 1,1 z"
           id="circle6128"
           r="1"
           cy="60"
           cx="-17" />
        <text
           id="text6130"
           font-size="8"
           style="font-size:8px;text-anchor:middle"
           y="63"
           x="-10">Y</text>
        <circle
           style="fill:#000000"
           sodipodi:ry="1"
           sodipodi:rx="1"
           sodipodi:cy="87"
           sodipodi:cx="0"
           d="m 1,87 c 0,0.552285 -0.44771525,1 -1,1 -0.55228475,0 -1,-0.447715 -1,-1 0,-0.552285 0.44771525,-1 1,-1 0.55228475,0 1,0.447715 1,1 z"
           id="circle6132"
           r="1"
           cy="87"
           cx="0" />
        <text
           id="text6134"
           font-size="8"
           style="font-size:8px;text-anchor:middle"
           y="83"
           x="-10">P</text>
        <circle
           style="fill:#000000"
           sodipodi:ry="1"
           sodipodi:rx="1"
           sodipodi:cy="87"
           sodipodi:cx="40"
           d="m 41,87 c 0,0.552285 -0.447715,1 -1,1 -0.552285,0 -1,-0.447715 -1,-1 0,-0.552285 0.447715,-1 1,-1 0.552285,0 1,0.447715 1,1 z"
           id="circle6136"
           r="1"
           cy="87"
           cx="40" />
        <text
           id="text6138"
           font-size="8"
           style="font-size:8px;text-anchor:middle"
           y="93"
           x="20">H</text>
        <circle
           style="fill:#000000"
           sodipodi:ry="1"
           sodipodi:rx="1"
           sodipodi:cy="113"
           sodipodi:cx="40"
           d="m 41,113 c 0,0.55228 -0.447715,1 -1,1 -0.552285,0 -1,-0.44772 -1,-1 0,-0.55228 0.447715,-1 1,-1 0.552285,0 1,0.44772 1,1 z"
           id="circle6140"
           r="1"
           cy="113"
           cx="40" />
        <text
           id="text6142"
           font-size="8"
           style="font-size:8px;text-anchor:middle"
           y="103"
           x="50">S</text>
      </g>
      <g
         id="g6144"
         transform="matrix(3.7004554,0,0,3.7004554,81.177949,832.26694)">
        <path
           style="fill:#fefde3;stroke:#000000;stroke-width:0.5"
           id="path6146"
           d="m -5,0 0,3 a 2,2 0 0 0 2,2 L 3,5 A 2,2 0 0 0 5,3 L 0,0 5,-3 A 2,2 0 0 0 3,-5 l -6,0 a 2,2 0 0 0 -2,2 z M 0,0 -1,-1 -3,1 -4,0" />
        <path
           style="fill:#77ff88;stroke:#000000;stroke-width:0.5"
           id="path6148"
           d="m 0,0 5,3 a 2,2 0 0 0 2,2 l 6,0 a 2,2 0 0 0 2,-2 2,2 0 0 0 2,2 l 6,0 a 2,2 0 0 0 2,-2 l 0,-6 a 2,2 0 0 0 -2,-2 2,2 0 0 0 2,-2 l 0,-6 a 2,2 0 0 0 -2,-2 2,2 0 0 0 2,-2 l 0,-6 a 2,2 0 0 0 -2,-2 l -6,0 a 2,2 0 0 0 -2,2 2,2 0 0 0 -2,-2 l -6,0 a 2,2 0 0 0 -2,2 l 5,3 -5,-3 a 2,2 0 0 0 -2,-2 2,2 0 0 0 2,-2 l 0,-6 a 2,2 0 0 0 -2,-2 l -6,0 a 2,2 0 0 0 -2,2 2,2 0 0 0 -2,-2 2,2 0 0 0 2,-2 l 0,-6 a 2,2 0 0 0 -2,-2 l -3,5 3,-5 a 2,2 0 0 0 2,-2 2,2 0 0 0 2,2 l 6,0 a 2,2 0 0 0 2,-2 2,2 0 0 0 2,2 l 6,0 a 2,2 0 0 0 2,-2 2,2 0 0 0 2,2 l 6,0 a 2,2 0 0 0 2,-2 2,2 0 0 0 2,2 l 6,0 a 2,2 0 0 0 2,-2 l 0,-6 a 2,2 0 0 0 -2,-2 l -3,5 3,-5 a 2,2 0 0 0 2,-2 2,2 0 0 0 2,2 l 6,0 a 2,2 0 0 0 2,-2 2,2 0 0 0 2,2 l 6,0 a 2,2 0 0 0 2,-2 2,2 0 0 0 2,2 l 6,0 a 2,2 0 0 0 2,-2 l -5,-3 5,3 -5,-3 5,-3 -5,3 5,-3 a 2,2 0 0 0 -2,-2 l -6,0 a 2,2 0 0 0 -2,2 2,2 0 0 0 -2,-2 l -6,0 a 2,2 0 0 0 -2,2 2,2 0 0 0 -2,-2 l -6,0 a 2,2 0 0 0 -2,2 2,2 0 0 0 -2,-2 l -6,0 a 2,2 0 0 0 -2,2 l 0,6 a 2,2 0 0 0 2,2 l 3,5 -3,-5 a 2,2 0 0 0 -2,2 2,2 0 0 0 -2,-2 l -6,0 a 2,2 0 0 0 -2,2 2,2 0 0 0 -2,-2 l -6,0 a 2,2 0 0 0 -2,2 2,2 0 0 0 -2,-2 l -6,0 a 2,2 0 0 0 -2,2 2,2 0 0 0 -2,-2 l -6,0 a 2,2 0 0 0 -2,2 l 0,6 a 2,2 0 0 0 2,2 l 3,5 -3,-5 a 2,2 0 0 0 -2,2 l 0,6 a 2,2 0 0 0 2,2 2,2 0 0 0 -2,2 l 0,6 a 2,2 0 0 0 2,2 l 6,0 a 2,2 0 0 0 2,-2 2,2 0 0 0 2,2 2,2 0 0 0 -2,2 l 0,6 a 2,2 0 0 0 2,2 l 6,0 a 2,2 0 0 0 2,-2 l 5,-3 -5,3 a 2,2 0 0 0 2,2 l 6,0 a 2,2 0 0 0 2,-2 2,2 0 0 0 2,2 2,2 0 0 0 -2,2 l 0,6 a 2,2 0 0 0 2,2 2,2 0 0 0 -2,2 2,2 0 0 0 -2,-2 L 7,-5 A 2,2 0 0 0 5,-3 L 0,0" />
        <circle
           style="fill:#000000"
           sodipodi:ry="1"
           sodipodi:rx="1"
           sodipodi:cy="-17"
           sodipodi:cx="10"
           d="m 11,-17 c 0,0.552285 -0.447715,1 -1,1 -0.5522847,0 -1,-0.447715 -1,-1 0,-0.552285 0.4477153,-1 1,-1 0.552285,0 1,0.447715 1,1 z"
           id="circle6150"
           r="1"
           cy="-17"
           cx="10" />
        <text
           id="text6152"
           font-size="8"
           style="font-size:8px;text-anchor:middle"
           y="-7"
           x="20">V</text>
        <circle
           style="fill:#000000"
           sodipodi:ry="1"
           sodipodi:rx="1"
           sodipodi:cy="-40"
           sodipodi:cx="-13"
           d="m -12,-40 c 0,0.552285 -0.447715,1 -1,1 -0.552285,0 -1,-0.447715 -1,-1 0,-0.552285 0.447715,-1 1,-1 0.552285,0 1,0.447715 1,1 z"
           id="circle6154"
           r="1"
           cy="-40"
           cx="-13" />
        <text
           id="text6156"
           font-size="8"
           style="font-size:8px;text-anchor:middle"
           y="-27"
           x="0">E</text>
        <circle
           style="fill:#000000"
           sodipodi:ry="1"
           sodipodi:rx="1"
           sodipodi:cy="-50"
           sodipodi:cx="27"
           d="m 28,-50 c 0,0.552285 -0.447715,1 -1,1 -0.552285,0 -1,-0.447715 -1,-1 0,-0.552285 0.447715,-1 1,-1 0.552285,0 1,0.447715 1,1 z"
           id="circle6158"
           r="1"
           cy="-50"
           cx="27" />
        <text
           id="text6160"
           font-size="8"
           style="font-size:8px;text-anchor:middle"
           y="-47"
           x="10">X</text>
        <circle
           style="fill:#000000"
           sodipodi:ry="1"
           sodipodi:rx="1"
           sodipodi:cy="-63"
           sodipodi:cx="60"
           d="m 61,-63 c 0,0.552285 -0.447715,1 -1,1 -0.552285,0 -1,-0.447715 -1,-1 0,-0.552285 0.447715,-1 1,-1 0.552285,0 1,0.447715 1,1 z"
           id="circle6162"
           r="1"
           cy="-63"
           cx="60" />
        <text
           id="text6164"
           font-size="8"
           style="font-size:8px;text-anchor:middle"
           y="-57"
           x="40">T</text>
      </g>
      <g
         id="g6166"
         transform="matrix(3.7004554,0,0,3.7004554,237.59588,835.3416)">
        <path
           style="fill:#fefde3;stroke:#000000;stroke-width:0.5"
           id="path6168"
           d="m -5,0 0,3 a 2,2 0 0 0 2,2 L 3,5 A 2,2 0 0 0 5,3 L 0,0 5,-3 A 2,2 0 0 0 3,-5 l -6,0 a 2,2 0 0 0 -2,2 z M 0,0 -1,-1 -3,1 -4,0" />
        <path
           style="fill:#77ff88;stroke:#000000;stroke-width:0.5"
           id="path6170"
           d="m 0,0 5,3 a 2,2 0 0 0 2,2 l 6,0 a 2,2 0 0 0 2,-2 l 0,-6 a 2,2 0 0 0 -2,-2 2,2 0 0 0 2,-2 l 0,-6 a 2,2 0 0 0 -2,-2 2,2 0 0 0 2,-2 l 0,-6 a 2,2 0 0 0 -2,-2 l -3,5 3,-5 a 2,2 0 0 0 2,-2 l 0,-6 a 2,2 0 0 0 -2,-2 2,2 0 0 0 2,-2 2,2 0 0 0 2,2 l 6,0 a 2,2 0 0 0 2,-2 l -5,-3 5,3 a 2,2 0 0 0 2,2 2,2 0 0 0 -2,2 l 0,6 a 2,2 0 0 0 2,2 2,2 0 0 0 -2,2 l 0,6 a 2,2 0 0 0 2,2 2,2 0 0 0 -2,2 l 0,6 a 2,2 0 0 0 2,2 2,2 0 0 0 -2,2 l 0,6 a 2,2 0 0 0 2,2 l 3,-5 -3,5 a 2,2 0 0 0 -2,2 l 0,6 a 2,2 0 0 0 2,2 l 6,0 a 2,2 0 0 0 2,-2 2,2 0 0 0 2,2 2,2 0 0 0 -2,2 l 0,6 a 2,2 0 0 0 2,2 2,2 0 0 0 -2,2 2,2 0 0 0 -2,-2 l -6,0 a 2,2 0 0 0 -2,2 l 5,3 -5,-3 5,3 -5,3 5,-3 -5,3 a 2,2 0 0 0 2,2 l 6,0 a 2,2 0 0 0 2,-2 2,2 0 0 0 2,2 l 6,0 a 2,2 0 0 0 2,-2 l 0,-6 a 2,2 0 0 0 -2,-2 2,2 0 0 0 2,-2 l 0,-6 a 2,2 0 0 0 -2,-2 2,2 0 0 0 2,-2 L 45,7 A 2,2 0 0 0 43,5 L 37,5 A 2,2 0 0 0 35,7 2,2 0 0 0 33,5 l -3,-5 3,5 a 2,2 0 0 0 2,-2 l 0,-6 a 2,2 0 0 0 -2,-2 2,2 0 0 0 2,-2 l 0,-6 a 2,2 0 0 0 -2,-2 2,2 0 0 0 2,-2 l 0,-6 a 2,2 0 0 0 -2,-2 2,2 0 0 0 2,-2 l 0,-6 a 2,2 0 0 0 -2,-2 2,2 0 0 0 2,-2 l 0,-6 a 2,2 0 0 0 -2,-2 l -6,0 a 2,2 0 0 0 -2,2 l -5,3 5,-3 a 2,2 0 0 0 -2,-2 l -6,0 a 2,2 0 0 0 -2,2 2,2 0 0 0 -2,-2 l -6,0 a 2,2 0 0 0 -2,2 l 0,6 a 2,2 0 0 0 2,2 2,2 0 0 0 -2,2 l 0,6 a 2,2 0 0 0 2,2 l 3,5 -3,-5 a 2,2 0 0 0 -2,2 l 0,6 a 2,2 0 0 0 2,2 2,2 0 0 0 -2,2 l 0,6 a 2,2 0 0 0 2,2 2,2 0 0 0 -2,2 L 0,0" />
        <circle
           style="fill:#000000"
           sodipodi:ry="1"
           sodipodi:rx="1"
           sodipodi:cy="-20"
           sodipodi:cx="7"
           d="m 8,-20 c 0,0.552285 -0.4477153,1 -1,1 -0.5522847,0 -1,-0.447715 -1,-1 0,-0.552285 0.4477153,-1 1,-1 0.5522847,0 1,0.447715 1,1 z"
           id="circle6172"
           r="1"
           cy="-20"
           cx="7" />
        <text
           id="text6174"
           font-size="8"
           style="font-size:8px;text-anchor:middle"
           y="-7"
           x="10">Q</text>
        <circle
           style="fill:#000000"
           sodipodi:ry="1"
           sodipodi:rx="1"
           sodipodi:cy="-43"
           sodipodi:cx="20"
           d="m 21,-43 c 0,0.552285 -0.447715,1 -1,1 -0.552285,0 -1,-0.447715 -1,-1 0,-0.552285 0.447715,-1 1,-1 0.552285,0 1,0.447715 1,1 z"
           id="circle6176"
           r="1"
           cy="-43"
           cx="20" />
        <text
           id="text6178"
           font-size="8"
           style="font-size:8px;text-anchor:middle"
           y="-37"
           x="10">U</text>
        <circle
           style="fill:#000000"
           sodipodi:ry="1"
           sodipodi:rx="1"
           sodipodi:cy="0"
           sodipodi:cx="33"
           d="m 34,0 c 0,0.55228475 -0.447715,1 -1,1 -0.552285,0 -1,-0.44771525 -1,-1 0,-0.55228475 0.447715,-1 1,-1 0.552285,0 1,0.44771525 1,1 z"
           id="circle6180"
           r="1"
           cy="0"
           cx="33" />
        <text
           id="text6182"
           font-size="8"
           style="font-size:8px;text-anchor:middle"
           y="-17"
           x="30">I</text>
        <circle
           style="fill:#000000"
           sodipodi:ry="1"
           sodipodi:rx="1"
           sodipodi:cy="33"
           sodipodi:cx="30"
           d="m 31,33 c 0,0.552285 -0.447715,1 -1,1 -0.552285,0 -1,-0.447715 -1,-1 0,-0.552285 0.447715,-1 1,-1 0.552285,0 1,0.447715 1,1 z"
           id="circle6184"
           r="1"
           cy="33"
           cx="30" />
        <text
           id="text6186"
           font-size="8"
           style="font-size:8px;text-anchor:middle"
           y="23"
           x="40">Z</text>
      </g>
    </g>
  </g>
</svg>
