<?xml version="1.0" encoding="UTF-8" standalone="no"?>
<svg
   xmlns:dc="http://purl.org/dc/elements/1.1/"
   xmlns:cc="http://creativecommons.org/ns#"
   xmlns:rdf="http://www.w3.org/1999/02/22-rdf-syntax-ns#"
   xmlns:svg="http://www.w3.org/2000/svg"
   xmlns="http://www.w3.org/2000/svg"
   xmlns:sodipodi="http://sodipodi.sourceforge.net/DTD/sodipodi-0.dtd"
   xmlns:inkscape="http://www.inkscape.org/namespaces/inkscape"
   width="10cm"
   height="10cm"
   version="1.1"
   viewBox="0 0 1000 1000"
   preserveAspectRatio="true"
   id="svg7078"
   inkscape:version="0.47 r22583"
   sodipodi:docname="test.svg">
  <metadata
     id="metadata7612">
    <rdf:RDF>
      <cc:Work
         rdf:about="">
        <dc:format>image/svg+xml</dc:format>
        <dc:type
           rdf:resource="http://purl.org/dc/dcmitype/StillImage" />
        <dc:title></dc:title>
      </cc:Work>
    </rdf:RDF>
  </metadata>
  <defs
     id="defs7610">
    <inkscape:perspective
       sodipodi:type="inkscape:persp3d"
       inkscape:vp_x="0 : 177.16536 : 1"
       inkscape:vp_y="0 : 1000 : 0"
       inkscape:vp_z="354.33072 : 177.16536 : 1"
       inkscape:persp3d-origin="177.16536 : 118.11024 : 1"
       id="perspective7614" />
  </defs>
  <sodipodi:namedview
     pagecolor="#ffffff"
     bordercolor="#666666"
     borderopacity="1"
     objecttolerance="10"
     gridtolerance="10"
     guidetolerance="10"
     inkscape:pageopacity="0"
     inkscape:pageshadow="2"
     inkscape:window-width="706"
     inkscape:window-height="576"
     id="namedview7608"
     showgrid="false"
     inkscape:zoom="1.3320888"
     inkscape:cx="209.1897"
     inkscape:cy="173.58838"
     inkscape:window-x="0"
     inkscape:window-y="26"
     inkscape:window-maximized="0"
     inkscape:current-layer="svg7078" />
  <desc
     id="desc7080">Caterpillars!</desc>
  <!-- Show outline of canvas using 'rect' element -->
  <rect
     x="0"
     y="0"
     width="1000"
     height="1000"
     fill="none"
     stroke="blue"
     stroke-width="2"
     id="rect7082" />
  <!-- our stuff goes here -->
  <g
     transform="translate(673.3516,69.394642)"
     id="g7084">
    <path
       d="m -5,0 0,3 a 2,2 0 0 0 2,2 L 3,5 A 2,2 0 0 0 5,3 L 0,0 5,3 a 2,2 0 0 0 2,2 l 6,0 a 2,2 0 0 0 2,-2 2,2 0 0 0 2,2 2,2 0 0 0 -2,2 l 0,6 a 2,2 0 0 0 2,2 l 6,0 a 2,2 0 0 0 2,-2 2,2 0 0 0 2,2 l 6,0 a 2,2 0 0 0 2,-2 2,2 0 0 0 2,2 l 6,0 a 2,2 0 0 0 2,-2 l -5,-3 5,3 a 2,2 0 0 0 2,2 2,2 0 0 0 -2,2 l 0,6 a 2,2 0 0 0 2,2 2,2 0 0 0 -2,2 l 0,6 a 2,2 0 0 0 2,2 l 6,0 a 2,2 0 0 0 2,-2 2,2 0 0 0 2,2 2,2 0 0 0 -2,2 l 0,6 a 2,2 0 0 0 2,2 l 3,-5 -3,5 a 2,2 0 0 0 -2,2 l 0,6 a 2,2 0 0 0 2,2 2,2 0 0 0 -2,2 l 0,6 a 2,2 0 0 0 2,2 2,2 0 0 0 -2,2 l 0,6 a 2,2 0 0 0 2,2 2,2 0 0 0 -2,2 l 0,6 a 2,2 0 0 0 2,2 2,2 0 0 0 -2,2 l 5,3 -5,-3 a 2,2 0 0 0 -2,-2 l -6,0 a 2,2 0 0 0 -2,2 2,2 0 0 0 -2,-2 l -6,0 a 2,2 0 0 0 -2,2 2,2 0 0 0 -2,-2 l -6,0 a 2,2 0 0 0 -2,2 2,2 0 0 0 -2,-2 l -6,0 a 2,2 0 0 0 -2,2 l 5,3 -5,-3 a 2,2 0 0 0 -2,-2 2,2 0 0 0 2,-2 l 0,-6 A 2,2 0 0 0 13,75 L 7,75 A 2,2 0 0 0 5,77 2,2 0 0 0 3,75 L 0,80 3,75 A 2,2 0 0 0 5,73 L 5,67 A 2,2 0 0 0 3,65 2,2 0 0 0 5,63 L 5,57 A 2,2 0 0 0 3,55 l -6,0 a 2,2 0 0 0 -2,2 2,2 0 0 0 -2,-2 l -3,5 3,-5 a 2,2 0 0 0 2,-2 l 0,-6 a 2,2 0 0 0 -2,-2 l -6,0 a 2,2 0 0 0 -2,2 2,2 0 0 0 -2,-2 2,2 0 0 0 2,-2 l 0,-6 a 2,2 0 0 0 -2,-2 l -3,5 3,-5 -3,5 -3,-5 3,5 -3,-5 a 2,2 0 0 0 -2,2 l 0,6 a 2,2 0 0 0 2,2 2,2 0 0 0 -2,2 l 0,6 a 2,2 0 0 0 2,2 l 6,0 a 2,2 0 0 0 2,-2 2,2 0 0 0 2,2 l 3,5 -3,-5 a 2,2 0 0 0 -2,2 l 0,6 a 2,2 0 0 0 2,2 l 6,0 a 2,2 0 0 0 2,-2 2,2 0 0 0 2,2 2,2 0 0 0 -2,2 l 0,6 a 2,2 0 0 0 2,2 l 3,5 -3,-5 a 2,2 0 0 0 -2,2 l 0,6 a 2,2 0 0 0 2,2 l 6,0 a 2,2 0 0 0 2,-2 2,2 0 0 0 2,2 2,2 0 0 0 -2,2 l 0,6 a 2,2 0 0 0 2,2 l 6,0 a 2,2 0 0 0 2,-2 l 5,-3 -5,3 a 2,2 0 0 0 2,2 l 6,0 a 2,2 0 0 0 2,-2 2,2 0 0 0 2,2 l 6,0 a 2,2 0 0 0 2,-2 2,2 0 0 0 2,2 l 6,0 a 2,2 0 0 0 2,-2 2,2 0 0 0 2,2 l 6,0 a 2,2 0 0 0 2,-2 l 5,-3 -5,3 a 2,2 0 0 0 2,2 l 6,0 a 2,2 0 0 0 2,-2 l 0,-6 a 2,2 0 0 0 -2,-2 2,2 0 0 0 2,-2 l 0,-6 a 2,2 0 0 0 -2,-2 2,2 0 0 0 2,-2 l 0,-6 a 2,2 0 0 0 -2,-2 2,2 0 0 0 2,-2 l 0,-6 a 2,2 0 0 0 -2,-2 2,2 0 0 0 2,-2 l 0,-6 a 2,2 0 0 0 -2,-2 l -3,-5 3,5 a 2,2 0 0 0 2,-2 l 0,-6 a 2,2 0 0 0 -2,-2 2,2 0 0 0 2,-2 l 0,-6 a 2,2 0 0 0 -2,-2 l -6,0 a 2,2 0 0 0 -2,2 2,2 0 0 0 -2,-2 2,2 0 0 0 2,-2 l 0,-6 a 2,2 0 0 0 -2,-2 2,2 0 0 0 2,-2 L 55,7 A 2,2 0 0 0 53,5 l -6,0 a 2,2 0 0 0 -2,2 l -5,3 5,-3 A 2,2 0 0 0 43,5 L 37,5 A 2,2 0 0 0 35,7 2,2 0 0 0 33,5 L 27,5 A 2,2 0 0 0 25,7 2,2 0 0 0 23,5 2,2 0 0 0 25,3 l 0,-6 a 2,2 0 0 0 -2,-2 l -6,0 a 2,2 0 0 0 -2,2 2,2 0 0 0 -2,-2 L 7,-5 A 2,2 0 0 0 5,-3 L 0,0 5,-3 A 2,2 0 0 0 3,-5 l -6,0 a 2,2 0 0 0 -2,2 l 0,3"
       id="path7086"
       style="fill:#008000;stroke:#000000;stroke-width:0.5" />
    <circle
       cx="40"
       cy="7"
       r="1"
       id="circle7088"
       d="m 41,7 c 0,0.5522847 -0.447715,1 -1,1 -0.552285,0 -1,-0.4477153 -1,-1 0,-0.5522847 0.447715,-1 1,-1 0.552285,0 1,0.4477153 1,1 z"
       sodipodi:cx="40"
       sodipodi:cy="7"
       sodipodi:rx="1"
       sodipodi:ry="1"
       style="fill:#000000" />
    <text
       x="20"
       y="13"
       style="font-size:8px;text-anchor:middle"
       font-size="8"
       id="text7090">A</text>
    <circle
       cx="63"
       cy="40"
       r="1"
       id="circle7092"
       d="m 64,40 c 0,0.552285 -0.447715,1 -1,1 -0.552285,0 -1,-0.447715 -1,-1 0,-0.552285 0.447715,-1 1,-1 0.552285,0 1,0.447715 1,1 z"
       sodipodi:cx="63"
       sodipodi:cy="40"
       sodipodi:rx="1"
       sodipodi:ry="1"
       style="fill:#000000" />
    <text
       x="50"
       y="33"
       style="font-size:8px;text-anchor:middle"
       font-size="8"
       id="text7094">B</text>
    <circle
       cx="60"
       cy="93"
       r="1"
       id="circle7096"
       d="m 61,93 c 0,0.552285 -0.447715,1 -1,1 -0.552285,0 -1,-0.447715 -1,-1 0,-0.552285 0.447715,-1 1,-1 0.552285,0 1,0.447715 1,1 z"
       sodipodi:cx="60"
       sodipodi:cy="93"
       sodipodi:rx="1"
       sodipodi:ry="1"
       style="fill:#000000" />
    <text
       x="60"
       y="73"
       style="font-size:8px;text-anchor:middle"
       font-size="8"
       id="text7098">D</text>
    <circle
       cx="20"
       cy="93"
       r="1"
       id="circle7100"
       d="m 21,93 c 0,0.552285 -0.447715,1 -1,1 -0.552285,0 -1,-0.447715 -1,-1 0,-0.552285 0.447715,-1 1,-1 0.552285,0 1,0.447715 1,1 z"
       sodipodi:cx="20"
       sodipodi:cy="93"
       sodipodi:rx="1"
       sodipodi:ry="1"
       style="fill:#000000" />
    <text
       x="40"
       y="93"
       style="font-size:8px;text-anchor:middle"
       font-size="8"
       id="text7102">O</text>
    <circle
       cx="-3"
       cy="80"
       r="1"
       id="circle7104"
       d="m -2,80 c 0,0.552285 -0.4477153,1 -1,1 -0.5522847,0 -1,-0.447715 -1,-1 0,-0.552285 0.4477153,-1 1,-1 0.5522847,0 1,0.447715 1,1 z"
       sodipodi:cx="-3"
       sodipodi:cy="80"
       sodipodi:rx="1"
       sodipodi:ry="1"
       style="fill:#000000" />
    <text
       x="10"
       y="83"
       style="font-size:8px;text-anchor:middle"
       font-size="8"
       id="text7106">M</text>
    <circle
       cx="-13"
       cy="60"
       r="1"
       id="circle7108"
       d="m -12,60 c 0,0.552285 -0.447715,1 -1,1 -0.552285,0 -1,-0.447715 -1,-1 0,-0.552285 0.447715,-1 1,-1 0.552285,0 1,0.447715 1,1 z"
       sodipodi:cx="-13"
       sodipodi:cy="60"
       sodipodi:rx="1"
       sodipodi:ry="1"
       style="fill:#000000" />
    <text
       x="0"
       y="63"
       style="font-size:8px;text-anchor:middle"
       font-size="8"
       id="text7110">E</text>
    <circle
       cx="-23"
       cy="40"
       r="1"
       id="circle7112"
       d="m -22,40 c 0,0.552285 -0.447715,1 -1,1 -0.552285,0 -1,-0.447715 -1,-1 0,-0.552285 0.447715,-1 1,-1 0.552285,0 1,0.447715 1,1 z"
       sodipodi:cx="-23"
       sodipodi:cy="40"
       sodipodi:rx="1"
       sodipodi:ry="1"
       style="fill:#000000" />
    <text
       x="-20"
       y="53"
       style="font-size:8px;text-anchor:middle"
       font-size="8"
       id="text7114">N</text>
  </g>
  <g
     transform="translate(703.47021,99.447668)"
     id="g7116">
    <path
       d="m -5,0 0,3 a 2,2 0 0 0 2,2 L 3,5 A 2,2 0 0 0 5,3 L 0,0 5,3 A 2,2 0 0 0 7,5 2,2 0 0 0 5,7 l 0,6 a 2,2 0 0 0 2,2 l 6,0 a 2,2 0 0 0 2,-2 2,2 0 0 0 2,2 2,2 0 0 0 -2,2 l 0,6 a 2,2 0 0 0 2,2 2,2 0 0 0 -2,2 l 0,6 a 2,2 0 0 0 2,2 l 3,-5 -3,5 a 2,2 0 0 0 -2,2 2,2 0 0 0 -2,-2 L 7,35 A 2,2 0 0 0 5,37 2,2 0 0 0 3,35 l -6,0 a 2,2 0 0 0 -2,2 2,2 0 0 0 -2,-2 l -6,0 a 2,2 0 0 0 -2,2 l 5,3 -5,-3 a 2,2 0 0 0 -2,-2 2,2 0 0 0 2,-2 l 0,-6 a 2,2 0 0 0 -2,-2 2,2 0 0 0 2,-2 l 0,-6 a 2,2 0 0 0 -2,-2 l -6,0 a 2,2 0 0 0 -2,2 l 5,3 -5,-3 5,3 -5,3 5,-3 -5,3 a 2,2 0 0 0 2,2 2,2 0 0 0 -2,2 l 0,6 a 2,2 0 0 0 2,2 2,2 0 0 0 -2,2 l 0,6 a 2,2 0 0 0 2,2 l 6,0 a 2,2 0 0 0 2,-2 l 5,-3 -5,3 a 2,2 0 0 0 2,2 l 6,0 a 2,2 0 0 0 2,-2 2,2 0 0 0 2,2 l 6,0 a 2,2 0 0 0 2,-2 2,2 0 0 0 2,2 l 6,0 a 2,2 0 0 0 2,-2 2,2 0 0 0 2,2 l 6,0 a 2,2 0 0 0 2,-2 l 0,-6 a 2,2 0 0 0 -2,-2 l -3,-5 3,5 a 2,2 0 0 0 2,-2 l 0,-6 a 2,2 0 0 0 -2,-2 2,2 0 0 0 2,-2 l 0,-6 a 2,2 0 0 0 -2,-2 2,2 0 0 0 2,-2 L 25,7 A 2,2 0 0 0 23,5 L 17,5 A 2,2 0 0 0 15,7 2,2 0 0 0 13,5 2,2 0 0 0 15,3 l 0,-6 A 2,2 0 0 0 13,-5 L 7,-5 A 2,2 0 0 0 5,-3 L 0,0 5,-3 A 2,2 0 0 0 3,-5 l -6,0 a 2,2 0 0 0 -2,2 l 0,3"
       id="path7118"
       style="fill:#008000;stroke:#000000;stroke-width:0.5" />
    <circle
       cx="23"
       cy="30"
       r="1"
       id="circle7120"
       d="m 24,30 c 0,0.552285 -0.447715,1 -1,1 -0.552285,0 -1,-0.447715 -1,-1 0,-0.552285 0.447715,-1 1,-1 0.552285,0 1,0.447715 1,1 z"
       sodipodi:cx="23"
       sodipodi:cy="30"
       sodipodi:rx="1"
       sodipodi:ry="1"
       style="fill:#000000" />
    <text
       x="20"
       y="13"
       style="font-size:8px;text-anchor:middle"
       font-size="8"
       id="text7122">C</text>
    <circle
       cx="-10"
       cy="43"
       r="1"
       id="circle7124"
       d="m -9,43 c 0,0.552285 -0.4477153,1 -1,1 -0.552285,0 -1,-0.447715 -1,-1 0,-0.552285 0.447715,-1 1,-1 0.5522847,0 1,0.447715 1,1 z"
       sodipodi:cx="-10"
       sodipodi:cy="43"
       sodipodi:rx="1"
       sodipodi:ry="1"
       style="fill:#000000" />
    <text
       x="10"
       y="43"
       style="font-size:8px;text-anchor:middle"
       font-size="8"
       id="text7126">H</text>
    <circle
       cx="-20"
       cy="23"
       r="1"
       id="circle7128"
       d="m -19,23 c 0,0.552285 -0.447715,1 -1,1 -0.552285,0 -1,-0.447715 -1,-1 0,-0.552285 0.447715,-1 1,-1 0.552285,0 1,0.447715 1,1 z"
       sodipodi:cx="-20"
       sodipodi:cy="23"
       sodipodi:rx="1"
       sodipodi:ry="1"
       style="fill:#000000" />
    <text
       x="-20"
       y="33"
       style="font-size:8px;text-anchor:middle"
       font-size="8"
       id="text7130">I</text>
  </g>
  <g
     transform="matrix(0,-1,1,0,602.32749,157.783)"
     id="g7132">
    <path
       d="m -5,0 0,3 a 2,2 0 0 0 2,2 L 3,5 A 2,2 0 0 0 5,3 L 0,0 5,3 a 2,2 0 0 0 2,2 l 6,0 a 2,2 0 0 0 2,-2 l 0,-6 a 2,2 0 0 0 -2,-2 2,2 0 0 0 2,-2 l 0,-6 a 2,2 0 0 0 -2,-2 2,2 0 0 0 2,-2 l 0,-6 a 2,2 0 0 0 -2,-2 l -6,0 a 2,2 0 0 0 -2,2 2,2 0 0 0 -2,-2 l -6,0 a 2,2 0 0 0 -2,2 2,2 0 0 0 -2,-2 l -6,0 a 2,2 0 0 0 -2,2 l 5,3 -5,-3 a 2,2 0 0 0 -2,-2 l -6,0 a 2,2 0 0 0 -2,2 2,2 0 0 0 -2,-2 l -6,0 a 2,2 0 0 0 -2,2 l 0,6 a 2,2 0 0 0 2,2 2,2 0 0 0 -2,2 l 5,3 -5,-3 a 2,2 0 0 0 -2,-2 l -6,0 a 2,2 0 0 0 -2,2 l 0,6 a 2,2 0 0 0 2,2 2,2 0 0 0 -2,2 2,2 0 0 0 -2,-2 l -6,0 a 2,2 0 0 0 -2,2 l 0,6 a 2,2 0 0 0 2,2 2,2 0 0 0 -2,2 l 0,6 a 2,2 0 0 0 2,2 2,2 0 0 0 -2,2 l 0,6 a 2,2 0 0 0 2,2 l 3,-5 -3,5 a 2,2 0 0 0 -2,2 l 0,6 a 2,2 0 0 0 2,2 2,2 0 0 0 -2,2 2,2 0 0 0 -2,-2 l -6,0 a 2,2 0 0 0 -2,2 l 0,6 a 2,2 0 0 0 2,2 2,2 0 0 0 -2,2 l 0,6 a 2,2 0 0 0 2,2 2,2 0 0 0 -2,2 l 0,6 a 2,2 0 0 0 2,2 l 3,-5 -3,5 a 2,2 0 0 0 -2,2 l 0,6 a 2,2 0 0 0 2,2 l 6,0 a 2,2 0 0 0 2,-2 2,2 0 0 0 2,2 l 6,0 a 2,2 0 0 0 2,-2 2,2 0 0 0 2,2 l 6,0 a 2,2 0 0 0 2,-2 l 0,-6 a 2,2 0 0 0 -2,-2 2,2 0 0 0 2,-2 l 0,-6 a 2,2 0 0 0 -2,-2 l -3,5 3,-5 -3,5 -3,-5 3,5 -3,-5 a 2,2 0 0 0 -2,2 l 0,6 a 2,2 0 0 0 2,2 2,2 0 0 0 -2,2 2,2 0 0 0 -2,-2 l -6,0 a 2,2 0 0 0 -2,2 2,2 0 0 0 -2,-2 l -3,-5 3,5 a 2,2 0 0 0 2,-2 l 0,-6 a 2,2 0 0 0 -2,-2 2,2 0 0 0 2,-2 l 0,-6 a 2,2 0 0 0 -2,-2 2,2 0 0 0 2,-2 2,2 0 0 0 2,2 l 6,0 a 2,2 0 0 0 2,-2 l 0,-6 a 2,2 0 0 0 -2,-2 2,2 0 0 0 2,-2 l 0,-6 a 2,2 0 0 0 -2,-2 l -3,-5 3,5 a 2,2 0 0 0 2,-2 l 0,-6 a 2,2 0 0 0 -2,-2 2,2 0 0 0 2,-2 l 0,-6 a 2,2 0 0 0 -2,-2 2,2 0 0 0 2,-2 2,2 0 0 0 2,2 l 6,0 a 2,2 0 0 0 2,-2 l 0,-6 a 2,2 0 0 0 -2,-2 2,2 0 0 0 2,-2 l 5,-3 -5,3 a 2,2 0 0 0 2,2 l 6,0 a 2,2 0 0 0 2,-2 l 0,-6 a 2,2 0 0 0 -2,-2 2,2 0 0 0 2,-2 2,2 0 0 0 2,2 l 6,0 a 2,2 0 0 0 2,-2 l 5,-3 -5,3 a 2,2 0 0 0 2,2 l 6,0 a 2,2 0 0 0 2,-2 2,2 0 0 0 2,2 l 6,0 a 2,2 0 0 0 2,-2 2,2 0 0 0 2,2 2,2 0 0 0 -2,2 l 0,6 a 2,2 0 0 0 2,2 2,2 0 0 0 -2,2 L 0,0 5,-3 A 2,2 0 0 0 3,-5 l -6,0 a 2,2 0 0 0 -2,2 l 0,3"
       id="path7134"
       style="fill:#008000;stroke:#000000;stroke-width:0.5" />
    <circle
       cx="-10"
       cy="-17"
       r="1"
       id="circle7136"
       d="m -9,-17 c 0,0.552285 -0.4477153,1 -1,1 -0.552285,0 -1,-0.447715 -1,-1 0,-0.552285 0.447715,-1 1,-1 0.5522847,0 1,0.447715 1,1 z"
       sodipodi:cx="-10"
       sodipodi:cy="-17"
       sodipodi:rx="1"
       sodipodi:ry="1"
       style="fill:#000000" />
    <text
       x="10"
       y="-17"
       style="font-size:8px;text-anchor:middle"
       font-size="8"
       id="text7138">R</text>
    <circle
       cx="-30"
       cy="-7"
       r="1"
       id="circle7140"
       d="m -29,-7 c 0,0.5522847 -0.447715,1 -1,1 -0.552285,0 -1,-0.4477153 -1,-1 0,-0.5522847 0.447715,-1 1,-1 0.552285,0 1,0.4477153 1,1 z"
       sodipodi:cx="-30"
       sodipodi:cy="-7"
       sodipodi:rx="1"
       sodipodi:ry="1"
       style="fill:#000000" />
    <text
       x="-30"
       y="-17"
       style="font-size:8px;text-anchor:middle"
       font-size="8"
       id="text7142">E</text>
    <circle
       cx="-47"
       cy="20"
       r="1"
       id="circle7144"
       d="m -46,20 c 0,0.552285 -0.447715,1 -1,1 -0.552285,0 -1,-0.447715 -1,-1 0,-0.552285 0.447715,-1 1,-1 0.552285,0 1,0.447715 1,1 z"
       sodipodi:cx="-47"
       sodipodi:cy="20"
       sodipodi:rx="1"
       sodipodi:ry="1"
       style="fill:#000000" />
    <text
       x="-50"
       y="3"
       style="font-size:8px;text-anchor:middle"
       font-size="8"
       id="text7146">W</text>
    <circle
       cx="-57"
       cy="60"
       r="1"
       id="circle7148"
       d="m -56,60 c 0,0.552285 -0.447715,1 -1,1 -0.552285,0 -1,-0.447715 -1,-1 0,-0.552285 0.447715,-1 1,-1 0.552285,0 1,0.447715 1,1 z"
       sodipodi:cx="-57"
       sodipodi:cy="60"
       sodipodi:rx="1"
       sodipodi:ry="1"
       style="fill:#000000" />
    <text
       x="-60"
       y="43"
       style="font-size:8px;text-anchor:middle"
       font-size="8"
       id="text7150">A</text>
    <circle
       cx="-43"
       cy="60"
       r="1"
       id="circle7152"
       d="m -42,60 c 0,0.552285 -0.447715,1 -1,1 -0.552285,0 -1,-0.447715 -1,-1 0,-0.552285 0.447715,-1 1,-1 0.552285,0 1,0.447715 1,1 z"
       sodipodi:cx="-43"
       sodipodi:cy="60"
       sodipodi:rx="1"
       sodipodi:ry="1"
       style="fill:#000000" />
    <text
       x="-50"
       y="73"
       style="font-size:8px;text-anchor:middle"
       font-size="8"
       id="text7154">X</text>
  </g>
  <g
     transform="matrix(-1,0,0,-1,702.70355,119.39464)"
     id="g7156">
    <path
       d="m -5,0 0,3 a 2,2 0 0 0 2,2 L 3,5 A 2,2 0 0 0 5,3 L 0,0 5,3 A 2,2 0 0 0 7,5 2,2 0 0 0 5,7 l 0,6 a 2,2 0 0 0 2,2 l 6,0 a 2,2 0 0 0 2,-2 2,2 0 0 0 2,2 l 3,-5 -3,5 a 2,2 0 0 0 -2,2 l 0,6 a 2,2 0 0 0 2,2 2,2 0 0 0 -2,2 l 0,6 a 2,2 0 0 0 2,2 2,2 0 0 0 -2,2 l 0,6 a 2,2 0 0 0 2,2 l 6,0 a 2,2 0 0 0 2,-2 l -5,-3 5,3 a 2,2 0 0 0 2,2 l 6,0 a 2,2 0 0 0 2,-2 2,2 0 0 0 2,2 2,2 0 0 0 -2,2 l 0,6 a 2,2 0 0 0 2,2 l 6,0 a 2,2 0 0 0 2,-2 2,2 0 0 0 2,2 l 6,0 a 2,2 0 0 0 2,-2 l -5,-3 5,3 a 2,2 0 0 0 2,2 l 6,0 a 2,2 0 0 0 2,-2 2,2 0 0 0 2,2 l 6,0 a 2,2 0 0 0 2,-2 2,2 0 0 0 2,2 l 3,-5 -3,5 3,-5 3,5 -3,-5 3,5 a 2,2 0 0 0 2,-2 l 0,-6 a 2,2 0 0 0 -2,-2 l -6,0 a 2,2 0 0 0 -2,2 2,2 0 0 0 -2,-2 l -6,0 a 2,2 0 0 0 -2,2 2,2 0 0 0 -2,-2 l -6,0 a 2,2 0 0 0 -2,2 l -5,3 5,-3 a 2,2 0 0 0 -2,-2 l -6,0 a 2,2 0 0 0 -2,2 2,2 0 0 0 -2,-2 2,2 0 0 0 2,-2 l 0,-6 a 2,2 0 0 0 -2,-2 l -6,0 a 2,2 0 0 0 -2,2 2,2 0 0 0 -2,-2 l -6,0 a 2,2 0 0 0 -2,2 l -5,3 5,-3 a 2,2 0 0 0 -2,-2 2,2 0 0 0 2,-2 l 0,-6 a 2,2 0 0 0 -2,-2 2,2 0 0 0 2,-2 l 0,-6 a 2,2 0 0 0 -2,-2 l -3,-5 3,5 a 2,2 0 0 0 2,-2 L 25,7 A 2,2 0 0 0 23,5 L 17,5 A 2,2 0 0 0 15,7 2,2 0 0 0 13,5 2,2 0 0 0 15,3 l 0,-6 A 2,2 0 0 0 13,-5 L 7,-5 A 2,2 0 0 0 5,-3 L 0,0 5,-3 A 2,2 0 0 0 3,-5 l -6,0 a 2,2 0 0 0 -2,2 l 0,3"
       id="path7158"
       style="fill:#008000;stroke:#000000;stroke-width:0.5" />
    <circle
       cx="23"
       cy="10"
       r="1"
       id="circle7160"
       d="m 24,10 c 0,0.552285 -0.447715,1 -1,1 -0.552285,0 -1,-0.447715 -1,-1 0,-0.5522847 0.447715,-1 1,-1 0.552285,0 1,0.4477153 1,1 z"
       sodipodi:cx="23"
       sodipodi:cy="10"
       sodipodi:rx="1"
       sodipodi:ry="1"
       style="fill:#000000" />
    <text
       x="10"
       y="13"
       style="font-size:8px;text-anchor:middle"
       font-size="8"
       id="text7162">M</text>
    <circle
       cx="20"
       cy="37"
       r="1"
       id="circle7164"
       d="m 21,37 c 0,0.552285 -0.447715,1 -1,1 -0.552285,0 -1,-0.447715 -1,-1 0,-0.552285 0.447715,-1 1,-1 0.552285,0 1,0.447715 1,1 z"
       sodipodi:cx="20"
       sodipodi:cy="37"
       sodipodi:rx="1"
       sodipodi:ry="1"
       style="fill:#000000" />
    <text
       x="20"
       y="33"
       style="font-size:8px;text-anchor:middle"
       font-size="8"
       id="text7166">U</text>
    <circle
       cx="50"
       cy="47"
       r="1"
       id="circle7168"
       d="m 51,47 c 0,0.552285 -0.447715,1 -1,1 -0.552285,0 -1,-0.447715 -1,-1 0,-0.552285 0.447715,-1 1,-1 0.552285,0 1,0.447715 1,1 z"
       sodipodi:cx="50"
       sodipodi:cy="47"
       sodipodi:rx="1"
       sodipodi:ry="1"
       style="fill:#000000" />
    <text
       x="40"
       y="43"
       style="font-size:8px;text-anchor:middle"
       font-size="8"
       id="text7170">S</text>
    <circle
       cx="83"
       cy="50"
       r="1"
       id="circle7172"
       d="m 84,50 c 0,0.552285 -0.447715,1 -1,1 -0.552285,0 -1,-0.447715 -1,-1 0,-0.552285 0.447715,-1 1,-1 0.552285,0 1,0.447715 1,1 z"
       sodipodi:cx="83"
       sodipodi:cy="50"
       sodipodi:rx="1"
       sodipodi:ry="1"
       style="fill:#000000" />
    <text
       x="70"
       y="53"
       style="font-size:8px;text-anchor:middle"
       font-size="8"
       id="text7174">T</text>
  </g>
  <g
     transform="translate(661.71992,177.78805)"
     id="g7176">
    <path
       d="m -5,0 0,3 a 2,2 0 0 0 2,2 L 3,5 A 2,2 0 0 0 5,3 L 0,0 5,3 A 2,2 0 0 0 7,5 2,2 0 0 0 5,7 l 0,6 a 2,2 0 0 0 2,2 l 6,0 a 2,2 0 0 0 2,-2 2,2 0 0 0 2,2 l 3,-5 -3,5 a 2,2 0 0 0 -2,2 l 0,6 a 2,2 0 0 0 2,2 2,2 0 0 0 -2,2 l 0,6 a 2,2 0 0 0 2,2 2,2 0 0 0 -2,2 l 0,6 a 2,2 0 0 0 2,2 l 6,0 a 2,2 0 0 0 2,-2 l -5,-3 5,3 a 2,2 0 0 0 2,2 l 6,0 a 2,2 0 0 0 2,-2 2,2 0 0 0 2,2 l 6,0 a 2,2 0 0 0 2,-2 l 0,-6 a 2,2 0 0 0 -2,-2 2,2 0 0 0 2,-2 l 0,-6 a 2,2 0 0 0 -2,-2 2,2 0 0 0 2,-2 2,2 0 0 0 2,2 l 6,0 a 2,2 0 0 0 2,-2 l 0,-6 a 2,2 0 0 0 -2,-2 l -3,5 3,-5 a 2,2 0 0 0 2,-2 2,2 0 0 0 2,2 l 6,0 a 2,2 0 0 0 2,-2 2,2 0 0 0 2,2 l 6,0 a 2,2 0 0 0 2,-2 L 75,7 A 2,2 0 0 0 73,5 l -3,5 3,-5 a 2,2 0 0 0 2,-2 l 0,-6 a 2,2 0 0 0 -2,-2 2,2 0 0 0 2,-2 l 0,-6 a 2,2 0 0 0 -2,-2 l -6,0 a 2,2 0 0 0 -2,2 2,2 0 0 0 -2,-2 l -6,0 a 2,2 0 0 0 -2,2 2,2 0 0 0 -2,-2 l -3,5 3,-5 -3,5 -3,-5 3,5 -3,-5 a 2,2 0 0 0 -2,2 l 0,6 a 2,2 0 0 0 2,2 l 6,0 a 2,2 0 0 0 2,-2 2,2 0 0 0 2,2 l 6,0 a 2,2 0 0 0 2,-2 2,2 0 0 0 2,2 2,2 0 0 0 -2,2 l 0,6 a 2,2 0 0 0 2,2 l 3,5 -3,-5 A 2,2 0 0 0 65,7 2,2 0 0 0 63,5 L 57,5 A 2,2 0 0 0 55,7 2,2 0 0 0 53,5 l -6,0 a 2,2 0 0 0 -2,2 l 0,6 a 2,2 0 0 0 2,2 l 3,5 -3,-5 a 2,2 0 0 0 -2,2 2,2 0 0 0 -2,-2 l -6,0 a 2,2 0 0 0 -2,2 l 0,6 a 2,2 0 0 0 2,2 2,2 0 0 0 -2,2 l 0,6 a 2,2 0 0 0 2,2 2,2 0 0 0 -2,2 2,2 0 0 0 -2,-2 l -6,0 a 2,2 0 0 0 -2,2 l -5,3 5,-3 a 2,2 0 0 0 -2,-2 2,2 0 0 0 2,-2 l 0,-6 a 2,2 0 0 0 -2,-2 2,2 0 0 0 2,-2 l 0,-6 a 2,2 0 0 0 -2,-2 l -3,-5 3,5 a 2,2 0 0 0 2,-2 L 25,7 A 2,2 0 0 0 23,5 L 17,5 A 2,2 0 0 0 15,7 2,2 0 0 0 13,5 2,2 0 0 0 15,3 l 0,-6 A 2,2 0 0 0 13,-5 L 7,-5 A 2,2 0 0 0 5,-3 L 0,0 5,-3 A 2,2 0 0 0 3,-5 l -6,0 a 2,2 0 0 0 -2,2 l 0,3"
       id="path7178"
       style="fill:#008000;stroke:#000000;stroke-width:0.5" />
    <circle
       cx="23"
       cy="10"
       r="1"
       id="circle7180"
       d="m 24,10 c 0,0.552285 -0.447715,1 -1,1 -0.552285,0 -1,-0.447715 -1,-1 0,-0.5522847 0.447715,-1 1,-1 0.552285,0 1,0.4477153 1,1 z"
       sodipodi:cx="23"
       sodipodi:cy="10"
       sodipodi:rx="1"
       sodipodi:ry="1"
       style="fill:#000000" />
    <text
       x="10"
       y="13"
       style="font-size:8px;text-anchor:middle"
       font-size="8"
       id="text7182">M</text>
    <circle
       cx="20"
       cy="37"
       r="1"
       id="circle7184"
       d="m 21,37 c 0,0.552285 -0.447715,1 -1,1 -0.552285,0 -1,-0.447715 -1,-1 0,-0.552285 0.447715,-1 1,-1 0.552285,0 1,0.447715 1,1 z"
       sodipodi:cx="20"
       sodipodi:cy="37"
       sodipodi:rx="1"
       sodipodi:ry="1"
       style="fill:#000000" />
    <text
       x="20"
       y="33"
       style="font-size:8px;text-anchor:middle"
       font-size="8"
       id="text7186">U</text>
    <circle
       cx="47"
       cy="20"
       r="1"
       id="circle7188"
       d="m 48,20 c 0,0.552285 -0.447715,1 -1,1 -0.552285,0 -1,-0.447715 -1,-1 0,-0.552285 0.447715,-1 1,-1 0.552285,0 1,0.447715 1,1 z"
       sodipodi:cx="47"
       sodipodi:cy="20"
       sodipodi:rx="1"
       sodipodi:ry="1"
       style="fill:#000000" />
    <text
       x="40"
       y="33"
       style="font-size:8px;text-anchor:middle"
       font-size="8"
       id="text7190">J</text>
    <circle
       cx="67"
       cy="10"
       r="1"
       id="circle7192"
       d="m 68,10 c 0,0.552285 -0.447715,1 -1,1 -0.552285,0 -1,-0.447715 -1,-1 0,-0.5522847 0.447715,-1 1,-1 0.552285,0 1,0.4477153 1,1 z"
       sodipodi:cx="67"
       sodipodi:cy="10"
       sodipodi:rx="1"
       sodipodi:ry="1"
       style="fill:#000000" />
    <text
       x="60"
       y="13"
       style="font-size:8px;text-anchor:middle"
       font-size="8"
       id="text7194">I</text>
    <circle
       cx="47"
       cy="-10"
       r="1"
       id="circle7196"
       d="m 48,-10 c 0,0.5522847 -0.447715,1 -1,1 -0.552285,0 -1,-0.4477153 -1,-1 0,-0.552285 0.447715,-1 1,-1 0.552285,0 1,0.447715 1,1 z"
       sodipodi:cx="47"
       sodipodi:cy="-10"
       sodipodi:rx="1"
       sodipodi:ry="1"
       style="fill:#000000" />
    <text
       x="70"
       y="-7"
       style="font-size:8px;text-anchor:middle"
       font-size="8"
       id="text7198">K</text>
  </g>
  <g
     transform="matrix(-1,0,0,-1,591.77032,67.78805)"
     id="g7200">
    <path
       d="m -5,0 0,3 a 2,2 0 0 0 2,2 L 3,5 A 2,2 0 0 0 5,3 L 0,0 5,3 a 2,2 0 0 0 2,2 l 6,0 a 2,2 0 0 0 2,-2 l 0,-6 a 2,2 0 0 0 -2,-2 2,2 0 0 0 2,-2 l 0,-6 a 2,2 0 0 0 -2,-2 2,2 0 0 0 2,-2 l 0,-6 a 2,2 0 0 0 -2,-2 l -3,5 3,-5 a 2,2 0 0 0 2,-2 l 0,-6 a 2,2 0 0 0 -2,-2 2,2 0 0 0 2,-2 l 0,-6 a 2,2 0 0 0 -2,-2 2,2 0 0 0 2,-2 l 0,-6 a 2,2 0 0 0 -2,-2 l -6,0 a 2,2 0 0 0 -2,2 l 5,3 -5,-3 a 2,2 0 0 0 -2,-2 2,2 0 0 0 2,-2 l 0,-6 a 2,2 0 0 0 -2,-2 2,2 0 0 0 2,-2 l 0,-6 a 2,2 0 0 0 -2,-2 l -6,0 a 2,2 0 0 0 -2,2 l 5,3 -5,-3 a 2,2 0 0 0 -2,-2 l -6,0 a 2,2 0 0 0 -2,2 2,2 0 0 0 -2,-2 2,2 0 0 0 2,-2 l 0,-6 a 2,2 0 0 0 -2,-2 l -3,5 3,-5 a 2,2 0 0 0 2,-2 l 0,-6 a 2,2 0 0 0 -2,-2 2,2 0 0 0 2,-2 2,2 0 0 0 2,2 l 6,0 a 2,2 0 0 0 2,-2 l 0,-6 a 2,2 0 0 0 -2,-2 2,2 0 0 0 2,-2 l 0,-6 a 2,2 0 0 0 -2,-2 l -3,5 3,-5 -3,5 -3,-5 3,5 -3,-5 a 2,2 0 0 0 -2,2 l 0,6 a 2,2 0 0 0 2,2 2,2 0 0 0 -2,2 2,2 0 0 0 -2,-2 l -6,0 a 2,2 0 0 0 -2,2 l 0,6 a 2,2 0 0 0 2,2 2,2 0 0 0 -2,2 l 0,6 a 2,2 0 0 0 2,2 l 3,5 -3,-5 a 2,2 0 0 0 -2,2 l 0,6 a 2,2 0 0 0 2,2 2,2 0 0 0 -2,2 l 0,6 a 2,2 0 0 0 2,2 l 6,0 a 2,2 0 0 0 2,-2 2,2 0 0 0 2,2 l 6,0 a 2,2 0 0 0 2,-2 l 5,-3 -5,3 a 2,2 0 0 0 2,2 2,2 0 0 0 -2,2 l 0,6 a 2,2 0 0 0 2,2 2,2 0 0 0 -2,2 l 0,6 a 2,2 0 0 0 2,2 l 6,0 a 2,2 0 0 0 2,-2 l 5,-3 -5,3 a 2,2 0 0 0 2,2 2,2 0 0 0 -2,2 l 0,6 a 2,2 0 0 0 2,2 2,2 0 0 0 -2,2 l 0,6 a 2,2 0 0 0 2,2 l 3,5 -3,-5 a 2,2 0 0 0 -2,2 l 0,6 a 2,2 0 0 0 2,2 2,2 0 0 0 -2,2 l 0,6 a 2,2 0 0 0 2,2 2,2 0 0 0 -2,2 L 0,0 5,-3 A 2,2 0 0 0 3,-5 l -6,0 a 2,2 0 0 0 -2,2 l 0,3"
       id="path7202"
       style="fill:#008000;stroke:#000000;stroke-width:0.5" />
    <circle
       cx="7"
       cy="-20"
       r="1"
       id="circle7204"
       d="m 8,-20 c 0,0.552285 -0.4477153,1 -1,1 -0.5522847,0 -1,-0.447715 -1,-1 0,-0.552285 0.4477153,-1 1,-1 0.5522847,0 1,0.447715 1,1 z"
       sodipodi:cx="7"
       sodipodi:cy="-20"
       sodipodi:rx="1"
       sodipodi:ry="1"
       style="fill:#000000" />
    <text
       x="10"
       y="-7"
       style="font-size:8px;text-anchor:middle"
       font-size="8"
       id="text7206">Q</text>
    <circle
       cx="10"
       cy="-47"
       r="1"
       id="circle7208"
       d="m 11,-47 c 0,0.552285 -0.447715,1 -1,1 -0.5522847,0 -1,-0.447715 -1,-1 0,-0.552285 0.4477153,-1 1,-1 0.552285,0 1,0.447715 1,1 z"
       sodipodi:cx="10"
       sodipodi:cy="-47"
       sodipodi:rx="1"
       sodipodi:ry="1"
       style="fill:#000000" />
    <text
       x="10"
       y="-37"
       style="font-size:8px;text-anchor:middle"
       font-size="8"
       id="text7210">U</text>
    <circle
       cx="0"
       cy="-67"
       r="1"
       id="circle7212"
       d="m 1,-67 c 0,0.552285 -0.44771525,1 -1,1 -0.55228475,0 -1,-0.447715 -1,-1 0,-0.552285 0.44771525,-1 1,-1 0.55228475,0 1,0.447715 1,1 z"
       sodipodi:cx="0"
       sodipodi:cy="-67"
       sodipodi:rx="1"
       sodipodi:ry="1"
       style="fill:#000000" />
    <text
       x="0"
       y="-57"
       style="font-size:8px;text-anchor:middle"
       font-size="8"
       id="text7214">I</text>
    <circle
       cx="-23"
       cy="-80"
       r="1"
       id="circle7216"
       d="m -22,-80 c 0,0.552285 -0.447715,1 -1,1 -0.552285,0 -1,-0.447715 -1,-1 0,-0.552285 0.447715,-1 1,-1 0.552285,0 1,0.447715 1,1 z"
       sodipodi:cx="-23"
       sodipodi:cy="-80"
       sodipodi:rx="1"
       sodipodi:ry="1"
       style="fill:#000000" />
    <text
       x="-20"
       y="-67"
       style="font-size:8px;text-anchor:middle"
       font-size="8"
       id="text7218">P</text>
    <circle
       cx="-13"
       cy="-110"
       r="1"
       id="circle7220"
       d="m -12,-110 c 0,0.55228 -0.447715,1 -1,1 -0.552285,0 -1,-0.44772 -1,-1 0,-0.55228 0.447715,-1 1,-1 0.552285,0 1,0.44772 1,1 z"
       sodipodi:cx="-13"
       sodipodi:cy="-110"
       sodipodi:rx="1"
       sodipodi:ry="1"
       style="fill:#000000" />
    <text
       x="-20"
       y="-97"
       style="font-size:8px;text-anchor:middle"
       font-size="8"
       id="text7222">S</text>
  </g>
  <g
     transform="matrix(0,-1,1,0,705.9735,179.22938)"
     id="g7224">
    <path
       d="m -5,0 0,3 a 2,2 0 0 0 2,2 L 3,5 A 2,2 0 0 0 5,3 L 0,0 5,3 a 2,2 0 0 0 2,2 l 6,0 a 2,2 0 0 0 2,-2 l 0,-6 a 2,2 0 0 0 -2,-2 2,2 0 0 0 2,-2 l 0,-6 a 2,2 0 0 0 -2,-2 2,2 0 0 0 2,-2 l 0,-6 a 2,2 0 0 0 -2,-2 2,2 0 0 0 2,-2 2,2 0 0 0 2,2 l 6,0 a 2,2 0 0 0 2,-2 l 0,-6 a 2,2 0 0 0 -2,-2 l -3,5 3,-5 a 2,2 0 0 0 2,-2 l 0,-6 a 2,2 0 0 0 -2,-2 2,2 0 0 0 2,-2 l 0,-6 a 2,2 0 0 0 -2,-2 2,2 0 0 0 2,-2 l 0,-6 a 2,2 0 0 0 -2,-2 l -6,0 a 2,2 0 0 0 -2,2 l 5,3 -5,-3 a 2,2 0 0 0 -2,-2 l -6,0 a 2,2 0 0 0 -2,2 2,2 0 0 0 -2,-2 l -6,0 a 2,2 0 0 0 -2,2 2,2 0 0 0 -2,-2 l -3,5 3,-5 a 2,2 0 0 0 2,-2 l 0,-6 a 2,2 0 0 0 -2,-2 l -6,0 a 2,2 0 0 0 -2,2 2,2 0 0 0 -2,-2 2,2 0 0 0 2,-2 l 0,-6 a 2,2 0 0 0 -2,-2 2,2 0 0 0 2,-2 2,2 0 0 0 2,2 l 6,0 a 2,2 0 0 0 2,-2 l -5,-3 5,3 -5,-3 5,-3 -5,3 5,-3 a 2,2 0 0 0 -2,-2 l -6,0 a 2,2 0 0 0 -2,2 2,2 0 0 0 -2,-2 l -6,0 a 2,2 0 0 0 -2,2 l 0,6 a 2,2 0 0 0 2,2 2,2 0 0 0 -2,2 l 0,6 a 2,2 0 0 0 2,2 2,2 0 0 0 -2,2 l 0,6 a 2,2 0 0 0 2,2 l 6,0 a 2,2 0 0 0 2,-2 2,2 0 0 0 2,2 l 3,5 -3,-5 a 2,2 0 0 0 -2,2 l 0,6 a 2,2 0 0 0 2,2 l 6,0 a 2,2 0 0 0 2,-2 2,2 0 0 0 2,2 l 6,0 a 2,2 0 0 0 2,-2 2,2 0 0 0 2,2 l 6,0 a 2,2 0 0 0 2,-2 l 5,-3 -5,3 a 2,2 0 0 0 2,2 2,2 0 0 0 -2,2 l 0,6 a 2,2 0 0 0 2,2 2,2 0 0 0 -2,2 l 0,6 a 2,2 0 0 0 2,2 l 3,5 -3,-5 a 2,2 0 0 0 -2,2 2,2 0 0 0 -2,-2 l -6,0 a 2,2 0 0 0 -2,2 l 0,6 a 2,2 0 0 0 2,2 2,2 0 0 0 -2,2 l 0,6 a 2,2 0 0 0 2,2 2,2 0 0 0 -2,2 l 0,6 a 2,2 0 0 0 2,2 2,2 0 0 0 -2,2 L 0,0 5,-3 A 2,2 0 0 0 3,-5 l -6,0 a 2,2 0 0 0 -2,2 l 0,3"
       id="path7226"
       style="fill:#008000;stroke:#000000;stroke-width:0.5" />
    <circle
       cx="17"
       cy="-30"
       r="1"
       id="circle7228"
       d="m 18,-30 c 0,0.552285 -0.447715,1 -1,1 -0.552285,0 -1,-0.447715 -1,-1 0,-0.552285 0.447715,-1 1,-1 0.552285,0 1,0.447715 1,1 z"
       sodipodi:cx="17"
       sodipodi:cy="-30"
       sodipodi:rx="1"
       sodipodi:ry="1"
       style="fill:#000000" />
    <text
       x="10"
       y="-17"
       style="font-size:8px;text-anchor:middle"
       font-size="8"
       id="text7230">L</text>
    <circle
       cx="20"
       cy="-57"
       r="1"
       id="circle7232"
       d="m 21,-57 c 0,0.552285 -0.447715,1 -1,1 -0.552285,0 -1,-0.447715 -1,-1 0,-0.552285 0.447715,-1 1,-1 0.552285,0 1,0.447715 1,1 z"
       sodipodi:cx="20"
       sodipodi:cy="-57"
       sodipodi:rx="1"
       sodipodi:ry="1"
       style="fill:#000000" />
    <text
       x="20"
       y="-47"
       style="font-size:8px;text-anchor:middle"
       font-size="8"
       id="text7234">U</text>
    <circle
       cx="-13"
       cy="-60"
       r="1"
       id="circle7236"
       d="m -12,-60 c 0,0.552285 -0.447715,1 -1,1 -0.552285,0 -1,-0.447715 -1,-1 0,-0.552285 0.447715,-1 1,-1 0.552285,0 1,0.447715 1,1 z"
       sodipodi:cx="-13"
       sodipodi:cy="-60"
       sodipodi:rx="1"
       sodipodi:ry="1"
       style="fill:#000000" />
    <text
       x="0"
       y="-57"
       style="font-size:8px;text-anchor:middle"
       font-size="8"
       id="text7238">T</text>
    <circle
       cx="-10"
       cy="-93"
       r="1"
       id="circle7240"
       d="m -9,-93 c 0,0.552285 -0.4477153,1 -1,1 -0.552285,0 -1,-0.447715 -1,-1 0,-0.552285 0.447715,-1 1,-1 0.5522847,0 1,0.447715 1,1 z"
       sodipodi:cx="-10"
       sodipodi:cy="-93"
       sodipodi:rx="1"
       sodipodi:ry="1"
       style="fill:#000000" />
    <text
       x="-20"
       y="-77"
       style="font-size:8px;text-anchor:middle"
       font-size="8"
       id="text7242">Z</text>
  </g>
  <g
     transform="matrix(0,-1,1,0,663.63436,98.350499)"
     id="g7244">
    <path
       d="m -5,0 0,3 a 2,2 0 0 0 2,2 L 3,5 A 2,2 0 0 0 5,3 L 0,0 5,3 a 2,2 0 0 0 2,2 l 6,0 a 2,2 0 0 0 2,-2 l 0,-6 a 2,2 0 0 0 -2,-2 2,2 0 0 0 2,-2 2,2 0 0 0 2,2 l 6,0 a 2,2 0 0 0 2,-2 l 0,-6 a 2,2 0 0 0 -2,-2 2,2 0 0 0 2,-2 l 0,-6 a 2,2 0 0 0 -2,-2 2,2 0 0 0 2,-2 l 0,-6 a 2,2 0 0 0 -2,-2 l -6,0 a 2,2 0 0 0 -2,2 l 5,3 -5,-3 a 2,2 0 0 0 -2,-2 l -6,0 a 2,2 0 0 0 -2,2 2,2 0 0 0 -2,-2 l -6,0 a 2,2 0 0 0 -2,2 2,2 0 0 0 -2,-2 l -6,0 a 2,2 0 0 0 -2,2 l 5,3 -5,-3 a 2,2 0 0 0 -2,-2 2,2 0 0 0 2,-2 l 0,-6 a 2,2 0 0 0 -2,-2 2,2 0 0 0 2,-2 2,2 0 0 0 2,2 l 6,0 a 2,2 0 0 0 2,-2 2,2 0 0 0 2,2 l 6,0 a 2,2 0 0 0 2,-2 l -5,-3 5,3 a 2,2 0 0 0 2,2 l 6,0 a 2,2 0 0 0 2,-2 2,2 0 0 0 2,2 l 6,0 a 2,2 0 0 0 2,-2 l 0,-6 a 2,2 0 0 0 -2,-2 2,2 0 0 0 2,-2 l -5,-3 5,3 -5,-3 5,-3 -5,3 5,-3 a 2,2 0 0 0 -2,-2 l -6,0 a 2,2 0 0 0 -2,2 l 0,6 a 2,2 0 0 0 2,2 2,2 0 0 0 -2,2 2,2 0 0 0 -2,-2 l -6,0 a 2,2 0 0 0 -2,2 l -5,3 5,-3 a 2,2 0 0 0 -2,-2 l -6,0 a 2,2 0 0 0 -2,2 2,2 0 0 0 -2,-2 l -6,0 a 2,2 0 0 0 -2,2 2,2 0 0 0 -2,-2 l -6,0 a 2,2 0 0 0 -2,2 l 0,6 a 2,2 0 0 0 2,2 2,2 0 0 0 -2,2 l 0,6 a 2,2 0 0 0 2,2 2,2 0 0 0 -2,2 l 0,6 a 2,2 0 0 0 2,2 l 6,0 a 2,2 0 0 0 2,-2 l 5,-3 -5,3 a 2,2 0 0 0 2,2 l 6,0 a 2,2 0 0 0 2,-2 2,2 0 0 0 2,2 l 6,0 a 2,2 0 0 0 2,-2 2,2 0 0 0 2,2 l 6,0 a 2,2 0 0 0 2,-2 l 5,-3 -5,3 a 2,2 0 0 0 2,2 2,2 0 0 0 -2,2 l 0,6 a 2,2 0 0 0 2,2 2,2 0 0 0 -2,2 2,2 0 0 0 -2,-2 l -6,0 a 2,2 0 0 0 -2,2 l 0,6 a 2,2 0 0 0 2,2 2,2 0 0 0 -2,2 L 0,0 5,-3 A 2,2 0 0 0 3,-5 l -6,0 a 2,2 0 0 0 -2,2 l 0,3"
       id="path7246"
       style="fill:#008000;stroke:#000000;stroke-width:0.5" />
    <circle
       cx="20"
       cy="-27"
       r="1"
       id="circle7248"
       d="m 21,-27 c 0,0.552285 -0.447715,1 -1,1 -0.552285,0 -1,-0.447715 -1,-1 0,-0.552285 0.447715,-1 1,-1 0.552285,0 1,0.447715 1,1 z"
       sodipodi:cx="20"
       sodipodi:cy="-27"
       sodipodi:rx="1"
       sodipodi:ry="1"
       style="fill:#000000" />
    <text
       x="20"
       y="-7"
       style="font-size:8px;text-anchor:middle"
       font-size="8"
       id="text7250">G</text>
    <circle
       cx="-10"
       cy="-27"
       r="1"
       id="circle7252"
       d="m -9,-27 c 0,0.552285 -0.4477153,1 -1,1 -0.552285,0 -1,-0.447715 -1,-1 0,-0.552285 0.447715,-1 1,-1 0.5522847,0 1,0.447715 1,1 z"
       sodipodi:cx="-10"
       sodipodi:cy="-27"
       sodipodi:rx="1"
       sodipodi:ry="1"
       style="fill:#000000" />
    <text
       x="0"
       y="-27"
       style="font-size:8px;text-anchor:middle"
       font-size="8"
       id="text7254">Y</text>
    <circle
       cx="0"
       cy="-53"
       r="1"
       id="circle7256"
       d="m 1,-53 c 0,0.552285 -0.44771525,1 -1,1 -0.55228475,0 -1,-0.447715 -1,-1 0,-0.552285 0.44771525,-1 1,-1 0.55228475,0 1,0.447715 1,1 z"
       sodipodi:cx="0"
       sodipodi:cy="-53"
       sodipodi:rx="1"
       sodipodi:ry="1"
       style="fill:#000000" />
    <text
       x="-20"
       y="-47"
       style="font-size:8px;text-anchor:middle"
       font-size="8"
       id="text7258">V</text>
    <circle
       cx="20"
       cy="-63"
       r="1"
       id="circle7260"
       d="m 21,-63 c 0,0.552285 -0.447715,1 -1,1 -0.552285,0 -1,-0.447715 -1,-1 0,-0.552285 0.447715,-1 1,-1 0.552285,0 1,0.447715 1,1 z"
       sodipodi:cx="20"
       sodipodi:cy="-63"
       sodipodi:rx="1"
       sodipodi:ry="1"
       style="fill:#000000" />
    <text
       x="20"
       y="-47"
       style="font-size:8px;text-anchor:middle"
       font-size="8"
       id="text7262">E</text>
  </g>
  <g
     transform="matrix(0,-1,1,0,624.81604,177.84482)"
     id="g7264">
    <path
       d="m -5,0 0,3 a 2,2 0 0 0 2,2 L 3,5 A 2,2 0 0 0 5,3 L 0,0 5,3 a 2,2 0 0 0 2,2 l 6,0 a 2,2 0 0 0 2,-2 2,2 0 0 0 2,2 l 6,0 a 2,2 0 0 0 2,-2 2,2 0 0 0 2,2 l 3,-5 -3,5 a 2,2 0 0 0 -2,2 l 0,6 a 2,2 0 0 0 2,2 2,2 0 0 0 -2,2 l 0,6 a 2,2 0 0 0 2,2 2,2 0 0 0 -2,2 l 0,6 a 2,2 0 0 0 2,2 l 6,0 a 2,2 0 0 0 2,-2 l -5,-3 5,3 a 2,2 0 0 0 2,2 l 6,0 a 2,2 0 0 0 2,-2 2,2 0 0 0 2,2 l 6,0 a 2,2 0 0 0 2,-2 l 0,-6 a 2,2 0 0 0 -2,-2 2,2 0 0 0 2,-2 l 0,-6 a 2,2 0 0 0 -2,-2 2,2 0 0 0 2,-2 L 55,7 A 2,2 0 0 0 53,5 l -3,5 3,-5 a 2,2 0 0 0 2,-2 l 0,-6 a 2,2 0 0 0 -2,-2 2,2 0 0 0 2,-2 l 0,-6 a 2,2 0 0 0 -2,-2 2,2 0 0 0 2,-2 l -5,-3 5,3 a 2,2 0 0 0 2,2 l 6,0 a 2,2 0 0 0 2,-2 2,2 0 0 0 2,2 l 6,0 a 2,2 0 0 0 2,-2 2,2 0 0 0 2,2 l 6,0 a 2,2 0 0 0 2,-2 l -5,-3 5,3 -5,-3 5,-3 -5,3 5,-3 a 2,2 0 0 0 -2,-2 l -6,0 a 2,2 0 0 0 -2,2 2,2 0 0 0 -2,-2 l -6,0 a 2,2 0 0 0 -2,2 2,2 0 0 0 -2,-2 l -6,0 a 2,2 0 0 0 -2,2 l -5,3 5,-3 a 2,2 0 0 0 -2,-2 l -6,0 a 2,2 0 0 0 -2,2 l 0,6 a 2,2 0 0 0 2,2 2,2 0 0 0 -2,2 l 0,6 a 2,2 0 0 0 2,2 2,2 0 0 0 -2,2 l 0,6 a 2,2 0 0 0 2,2 l 3,5 -3,-5 a 2,2 0 0 0 -2,2 l 0,6 a 2,2 0 0 0 2,2 2,2 0 0 0 -2,2 l 0,6 a 2,2 0 0 0 2,2 2,2 0 0 0 -2,2 2,2 0 0 0 -2,-2 l -6,0 a 2,2 0 0 0 -2,2 l -5,3 5,-3 a 2,2 0 0 0 -2,-2 2,2 0 0 0 2,-2 l 0,-6 a 2,2 0 0 0 -2,-2 2,2 0 0 0 2,-2 L 35,7 A 2,2 0 0 0 33,5 l -3,-5 3,5 a 2,2 0 0 0 2,-2 l 0,-6 a 2,2 0 0 0 -2,-2 l -6,0 a 2,2 0 0 0 -2,2 2,2 0 0 0 -2,-2 l -6,0 a 2,2 0 0 0 -2,2 2,2 0 0 0 -2,-2 L 7,-5 A 2,2 0 0 0 5,-3 L 0,0 5,-3 A 2,2 0 0 0 3,-5 l -6,0 a 2,2 0 0 0 -2,2 l 0,3"
       id="path7266"
       style="fill:#008000;stroke:#000000;stroke-width:0.5" />
    <circle
       cx="33"
       cy="0"
       r="1"
       id="circle7268"
       d="m 34,0 c 0,0.55228475 -0.447715,1 -1,1 -0.552285,0 -1,-0.44771525 -1,-1 0,-0.55228475 0.447715,-1 1,-1 0.552285,0 1,0.44771525 1,1 z"
       sodipodi:cx="33"
       sodipodi:cy="0"
       sodipodi:rx="1"
       sodipodi:ry="1"
       style="fill:#000000" />
    <text
       x="20"
       y="3"
       style="font-size:8px;text-anchor:middle"
       font-size="8"
       id="text7270">T</text>
    <circle
       cx="30"
       cy="27"
       r="1"
       id="circle7272"
       d="m 31,27 c 0,0.552285 -0.447715,1 -1,1 -0.552285,0 -1,-0.447715 -1,-1 0,-0.552285 0.447715,-1 1,-1 0.552285,0 1,0.447715 1,1 z"
       sodipodi:cx="30"
       sodipodi:cy="27"
       sodipodi:rx="1"
       sodipodi:ry="1"
       style="fill:#000000" />
    <text
       x="30"
       y="23"
       style="font-size:8px;text-anchor:middle"
       font-size="8"
       id="text7274">U</text>
    <circle
       cx="47"
       cy="10"
       r="1"
       id="circle7276"
       d="m 48,10 c 0,0.552285 -0.447715,1 -1,1 -0.552285,0 -1,-0.447715 -1,-1 0,-0.5522847 0.447715,-1 1,-1 0.552285,0 1,0.4477153 1,1 z"
       sodipodi:cx="47"
       sodipodi:cy="10"
       sodipodi:rx="1"
       sodipodi:ry="1"
       style="fill:#000000" />
    <text
       x="50"
       y="33"
       style="font-size:8px;text-anchor:middle"
       font-size="8"
       id="text7278">F</text>
    <circle
       cx="50"
       cy="-23"
       r="1"
       id="circle7280"
       d="m 51,-23 c 0,0.552285 -0.447715,1 -1,1 -0.552285,0 -1,-0.447715 -1,-1 0,-0.552285 0.447715,-1 1,-1 0.552285,0 1,0.447715 1,1 z"
       sodipodi:cx="50"
       sodipodi:cy="-23"
       sodipodi:rx="1"
       sodipodi:ry="1"
       style="fill:#000000" />
    <text
       x="50"
       y="-7"
       style="font-size:8px;text-anchor:middle"
       font-size="8"
       id="text7282">T</text>
    <circle
       cx="80"
       cy="-23"
       r="1"
       id="circle7284"
       d="m 81,-23 c 0,0.552285 -0.447715,1 -1,1 -0.552285,0 -1,-0.447715 -1,-1 0,-0.552285 0.447715,-1 1,-1 0.552285,0 1,0.447715 1,1 z"
       sodipodi:cx="80"
       sodipodi:cy="-23"
       sodipodi:rx="1"
       sodipodi:ry="1"
       style="fill:#000000" />
    <text
       x="70"
       y="-17"
       style="font-size:8px;text-anchor:middle"
       font-size="8"
       id="text7286">Y</text>
  </g>
  <g
     id="g9484">
    <g
       id="g7288"
       transform="translate(548.99392,436.96066)">
      <path
         style="fill:#008000;stroke:#000000;stroke-width:0.5"
         id="path7290"
         d="m -5,0 0,3 a 2,2 0 0 0 2,2 L 3,5 A 2,2 0 0 0 5,3 L 0,0 5,3 a 2,2 0 0 0 2,2 l 6,0 a 2,2 0 0 0 2,-2 2,2 0 0 0 2,2 l 6,0 a 2,2 0 0 0 2,-2 2,2 0 0 0 2,2 L 30,0 27,5 A 2,2 0 0 0 25,7 2,2 0 0 0 23,5 L 17,5 A 2,2 0 0 0 15,7 2,2 0 0 0 13,5 L 7,5 A 2,2 0 0 0 5,7 2,2 0 0 0 3,5 L -3,5 A 2,2 0 0 0 -5,7 L 0,10 -5,7 A 2,2 0 0 0 -7,5 l -6,0 a 2,2 0 0 0 -2,2 2,2 0 0 0 -2,-2 l -6,0 a 2,2 0 0 0 -2,2 l 0,6 a 2,2 0 0 0 2,2 2,2 0 0 0 -2,2 l 5,3 -5,-3 5,3 -5,3 5,-3 -5,3 a 2,2 0 0 0 2,2 l 6,0 a 2,2 0 0 0 2,-2 l 0,-6 a 2,2 0 0 0 -2,-2 2,2 0 0 0 2,-2 2,2 0 0 0 2,2 l 6,0 a 2,2 0 0 0 2,-2 l 5,-3 -5,3 a 2,2 0 0 0 2,2 l 6,0 a 2,2 0 0 0 2,-2 2,2 0 0 0 2,2 l 6,0 a 2,2 0 0 0 2,-2 2,2 0 0 0 2,2 l 6,0 a 2,2 0 0 0 2,-2 2,2 0 0 0 2,2 l 6,0 a 2,2 0 0 0 2,-2 L 35,7 A 2,2 0 0 0 33,5 l -3,-5 3,5 a 2,2 0 0 0 2,-2 l 0,-6 a 2,2 0 0 0 -2,-2 l -6,0 a 2,2 0 0 0 -2,2 2,2 0 0 0 -2,-2 l -6,0 a 2,2 0 0 0 -2,2 2,2 0 0 0 -2,-2 L 7,-5 A 2,2 0 0 0 5,-3 L 0,0 5,-3 A 2,2 0 0 0 3,-5 l -6,0 a 2,2 0 0 0 -2,2 l 0,3" />
      <circle
         style="fill:#000000"
         sodipodi:ry="1"
         sodipodi:rx="1"
         sodipodi:cy="0"
         sodipodi:cx="33"
         d="m 34,0 c 0,0.55228475 -0.447715,1 -1,1 -0.552285,0 -1,-0.44771525 -1,-1 0,-0.55228475 0.447715,-1 1,-1 0.552285,0 1,0.44771525 1,1 z"
         id="circle7292"
         r="1"
         cy="0"
         cx="33" />
      <text
         id="text7294"
         font-size="8"
         style="font-size:8px;text-anchor:middle"
         y="3"
         x="20">T</text>
      <circle
         style="fill:#000000"
         sodipodi:ry="1"
         sodipodi:rx="1"
         sodipodi:cy="13"
         sodipodi:cx="0"
         d="m 1,13 c 0,0.552285 -0.44771525,1 -1,1 -0.55228475,0 -1,-0.447715 -1,-1 0,-0.552285 0.44771525,-1 1,-1 0.55228475,0 1,0.447715 1,1 z"
         id="circle7296"
         r="1"
         cy="13"
         cx="0" />
      <text
         id="text7298"
         font-size="8"
         style="font-size:8px;text-anchor:middle"
         y="13"
         x="20">H</text>
      <circle
         style="fill:#000000"
         sodipodi:ry="1"
         sodipodi:rx="1"
         sodipodi:cy="23"
         sodipodi:cx="-20"
         d="m -19,23 c 0,0.552285 -0.447715,1 -1,1 -0.552285,0 -1,-0.447715 -1,-1 0,-0.552285 0.447715,-1 1,-1 0.552285,0 1,0.447715 1,1 z"
         id="circle7300"
         r="1"
         cy="23"
         cx="-20" />
      <text
         id="text7302"
         font-size="8"
         style="font-size:8px;text-anchor:middle"
         y="13"
         x="-20">E</text>
    </g>
    <g
       id="g7304"
       transform="translate(610.77899,490.14612)">
      <path
         style="fill:#008000;stroke:#000000;stroke-width:0.5"
         id="path7306"
         d="m -5,0 0,3 a 2,2 0 0 0 2,2 L 3,5 A 2,2 0 0 0 5,3 L 0,0 5,3 a 2,2 0 0 0 2,2 l 6,0 a 2,2 0 0 0 2,-2 l 0,-6 a 2,2 0 0 0 -2,-2 2,2 0 0 0 2,-2 l 0,-6 a 2,2 0 0 0 -2,-2 2,2 0 0 0 2,-2 l 0,-6 a 2,2 0 0 0 -2,-2 l -3,5 3,-5 a 2,2 0 0 0 2,-2 l 0,-6 a 2,2 0 0 0 -2,-2 2,2 0 0 0 2,-2 l 0,-6 a 2,2 0 0 0 -2,-2 2,2 0 0 0 2,-2 l 0,-6 a 2,2 0 0 0 -2,-2 l -6,0 a 2,2 0 0 0 -2,2 l 5,3 -5,-3 a 2,2 0 0 0 -2,-2 2,2 0 0 0 2,-2 l 0,-6 a 2,2 0 0 0 -2,-2 2,2 0 0 0 2,-2 l 0,-6 a 2,2 0 0 0 -2,-2 l -6,0 a 2,2 0 0 0 -2,2 l 5,3 -5,-3 a 2,2 0 0 0 -2,-2 2,2 0 0 0 2,-2 l 0,-6 a 2,2 0 0 0 -2,-2 l -6,0 a 2,2 0 0 0 -2,2 2,2 0 0 0 -2,-2 2,2 0 0 0 2,-2 l 0,-6 a 2,2 0 0 0 -2,-2 2,2 0 0 0 2,-2 l 0,-6 a 2,2 0 0 0 -2,-2 l -3,5 3,-5 a 2,2 0 0 0 2,-2 l 0,-6 a 2,2 0 0 0 -2,-2 2,2 0 0 0 2,-2 l 0,-6 a 2,2 0 0 0 -2,-2 l -6,0 a 2,2 0 0 0 -2,2 2,2 0 0 0 -2,-2 l -6,0 a 2,2 0 0 0 -2,2 2,2 0 0 0 -2,-2 l -3,5 3,-5 -3,5 -3,-5 3,5 -3,-5 a 2,2 0 0 0 -2,2 l 0,6 a 2,2 0 0 0 2,2 l 6,0 a 2,2 0 0 0 2,-2 2,2 0 0 0 2,2 l 6,0 a 2,2 0 0 0 2,-2 2,2 0 0 0 2,2 2,2 0 0 0 -2,2 l 0,6 a 2,2 0 0 0 2,2 l 3,5 -3,-5 a 2,2 0 0 0 -2,2 l 0,6 a 2,2 0 0 0 2,2 2,2 0 0 0 -2,2 l 0,6 a 2,2 0 0 0 2,2 2,2 0 0 0 -2,2 l 0,6 a 2,2 0 0 0 2,2 l 6,0 a 2,2 0 0 0 2,-2 2,2 0 0 0 2,2 2,2 0 0 0 -2,2 l 0,6 a 2,2 0 0 0 2,2 l 6,0 a 2,2 0 0 0 2,-2 l 5,-3 -5,3 a 2,2 0 0 0 2,2 2,2 0 0 0 -2,2 l 0,6 a 2,2 0 0 0 2,2 2,2 0 0 0 -2,2 l 0,6 a 2,2 0 0 0 2,2 l 6,0 a 2,2 0 0 0 2,-2 l 5,-3 -5,3 a 2,2 0 0 0 2,2 2,2 0 0 0 -2,2 l 0,6 a 2,2 0 0 0 2,2 2,2 0 0 0 -2,2 l 0,6 a 2,2 0 0 0 2,2 l 3,5 -3,-5 a 2,2 0 0 0 -2,2 l 0,6 a 2,2 0 0 0 2,2 2,2 0 0 0 -2,2 l 0,6 a 2,2 0 0 0 2,2 2,2 0 0 0 -2,2 L 0,0 5,-3 A 2,2 0 0 0 3,-5 l -6,0 a 2,2 0 0 0 -2,2 l 0,3" />
      <circle
         style="fill:#000000"
         sodipodi:ry="1"
         sodipodi:rx="1"
         sodipodi:cy="-20"
         sodipodi:cx="7"
         d="m 8,-20 c 0,0.552285 -0.4477153,1 -1,1 -0.5522847,0 -1,-0.447715 -1,-1 0,-0.552285 0.4477153,-1 1,-1 0.5522847,0 1,0.447715 1,1 z"
         id="circle7308"
         r="1"
         cy="-20"
         cx="7" />
      <text
         id="text7310"
         font-size="8"
         style="font-size:8px;text-anchor:middle"
         y="-7"
         x="10">Q</text>
      <circle
         style="fill:#000000"
         sodipodi:ry="1"
         sodipodi:rx="1"
         sodipodi:cy="-47"
         sodipodi:cx="10"
         d="m 11,-47 c 0,0.552285 -0.447715,1 -1,1 -0.5522847,0 -1,-0.447715 -1,-1 0,-0.552285 0.4477153,-1 1,-1 0.552285,0 1,0.447715 1,1 z"
         id="circle7312"
         r="1"
         cy="-47"
         cx="10" />
      <text
         id="text7314"
         font-size="8"
         style="font-size:8px;text-anchor:middle"
         y="-37"
         x="10">U</text>
      <circle
         style="fill:#000000"
         sodipodi:ry="1"
         sodipodi:rx="1"
         sodipodi:cy="-67"
         sodipodi:cx="0"
         d="m 1,-67 c 0,0.552285 -0.44771525,1 -1,1 -0.55228475,0 -1,-0.447715 -1,-1 0,-0.552285 0.44771525,-1 1,-1 0.55228475,0 1,0.447715 1,1 z"
         id="circle7316"
         r="1"
         cy="-67"
         cx="0" />
      <text
         id="text7318"
         font-size="8"
         style="font-size:8px;text-anchor:middle"
         y="-57"
         x="0">I</text>
      <circle
         style="fill:#000000"
         sodipodi:ry="1"
         sodipodi:rx="1"
         sodipodi:cy="-100"
         sodipodi:cx="-23"
         d="m -22,-100 c 0,0.552285 -0.447715,1 -1,1 -0.552285,0 -1,-0.447715 -1,-1 0,-0.55228 0.447715,-1 1,-1 0.552285,0 1,0.44772 1,1 z"
         id="circle7320"
         r="1"
         cy="-100"
         cx="-23" />
      <text
         id="text7322"
         font-size="8"
         style="font-size:8px;text-anchor:middle"
         y="-77"
         x="-20">C</text>
      <circle
         style="fill:#000000"
         sodipodi:ry="1"
         sodipodi:rx="1"
         sodipodi:cy="-120"
         sodipodi:cx="-43"
         d="m -42,-120 c 0,0.55228 -0.447715,1 -1,1 -0.552285,0 -1,-0.44772 -1,-1 0,-0.55228 0.447715,-1 1,-1 0.552285,0 1,0.44772 1,1 z"
         id="circle7324"
         r="1"
         cy="-120"
         cx="-43" />
      <text
         id="text7326"
         font-size="8"
         style="font-size:8px;text-anchor:middle"
         y="-117"
         x="-20">K</text>
    </g>
    <g
       id="g7328"
       transform="translate(653.8509,437.71235)">
      <path
         style="fill:#008000;stroke:#000000;stroke-width:0.5"
         id="path7330"
         d="m -5,0 0,3 a 2,2 0 0 0 2,2 L 3,5 A 2,2 0 0 0 5,3 L 0,0 5,3 A 2,2 0 0 0 7,5 2,2 0 0 0 5,7 l 0,6 a 2,2 0 0 0 2,2 2,2 0 0 0 -2,2 l 0,6 a 2,2 0 0 0 2,2 l 6,0 a 2,2 0 0 0 2,-2 2,2 0 0 0 2,2 2,2 0 0 0 -2,2 l 0,6 a 2,2 0 0 0 2,2 l 3,-5 -3,5 a 2,2 0 0 0 -2,2 l 0,6 a 2,2 0 0 0 2,2 l 6,0 a 2,2 0 0 0 2,-2 2,2 0 0 0 2,2 l 6,0 a 2,2 0 0 0 2,-2 2,2 0 0 0 2,2 l 6,0 a 2,2 0 0 0 2,-2 l 0,-6 a 2,2 0 0 0 -2,-2 2,2 0 0 0 2,-2 l 0,-6 a 2,2 0 0 0 -2,-2 2,2 0 0 0 2,-2 l 0,-6 a 2,2 0 0 0 -2,-2 l -3,5 3,-5 a 2,2 0 0 0 2,-2 L 45,7 A 2,2 0 0 0 43,5 2,2 0 0 0 45,3 l 0,-6 a 2,2 0 0 0 -2,-2 2,2 0 0 0 2,-2 l 0,-6 a 2,2 0 0 0 -2,-2 2,2 0 0 0 2,-2 l 0,-6 a 2,2 0 0 0 -2,-2 l -3,5 3,-5 a 2,2 0 0 0 2,-2 l 0,-6 a 2,2 0 0 0 -2,-2 l -6,0 a 2,2 0 0 0 -2,2 2,2 0 0 0 -2,-2 2,2 0 0 0 2,-2 l 0,-6 a 2,2 0 0 0 -2,-2 l -6,0 a 2,2 0 0 0 -2,2 2,2 0 0 0 -2,-2 l -6,0 a 2,2 0 0 0 -2,2 2,2 0 0 0 -2,-2 l -6,0 a 2,2 0 0 0 -2,2 l 5,3 -5,-3 a 2,2 0 0 0 -2,-2 l -6,0 a 2,2 0 0 0 -2,2 l 0,6 a 2,2 0 0 0 2,2 2,2 0 0 0 -2,2 2,2 0 0 0 -2,-2 l -6,0 a 2,2 0 0 0 -2,2 l 5,3 -5,-3 5,3 -5,3 5,-3 -5,3 a 2,2 0 0 0 2,2 l 6,0 a 2,2 0 0 0 2,-2 2,2 0 0 0 2,2 l 6,0 a 2,2 0 0 0 2,-2 l 0,-6 a 2,2 0 0 0 -2,-2 2,2 0 0 0 2,-2 l 5,-3 -5,3 a 2,2 0 0 0 2,2 l 6,0 a 2,2 0 0 0 2,-2 2,2 0 0 0 2,2 l 6,0 a 2,2 0 0 0 2,-2 2,2 0 0 0 2,2 2,2 0 0 0 -2,2 l 0,6 a 2,2 0 0 0 2,2 l 6,0 a 2,2 0 0 0 2,-2 2,2 0 0 0 2,2 l 3,5 -3,-5 a 2,2 0 0 0 -2,2 l 0,6 a 2,2 0 0 0 2,2 2,2 0 0 0 -2,2 l 0,6 a 2,2 0 0 0 2,2 2,2 0 0 0 -2,2 l 0,6 a 2,2 0 0 0 2,2 2,2 0 0 0 -2,2 l 0,6 a 2,2 0 0 0 2,2 l 3,5 -3,-5 a 2,2 0 0 0 -2,2 l 0,6 a 2,2 0 0 0 2,2 2,2 0 0 0 -2,2 l 0,6 a 2,2 0 0 0 2,2 2,2 0 0 0 -2,2 2,2 0 0 0 -2,-2 l -6,0 a 2,2 0 0 0 -2,2 2,2 0 0 0 -2,-2 l -3,-5 3,5 a 2,2 0 0 0 2,-2 l 0,-6 a 2,2 0 0 0 -2,-2 2,2 0 0 0 2,-2 l 0,-6 a 2,2 0 0 0 -2,-2 l -6,0 a 2,2 0 0 0 -2,2 2,2 0 0 0 -2,-2 2,2 0 0 0 2,-2 L 15,7 A 2,2 0 0 0 13,5 2,2 0 0 0 15,3 l 0,-6 A 2,2 0 0 0 13,-5 L 7,-5 A 2,2 0 0 0 5,-3 L 0,0 5,-3 A 2,2 0 0 0 3,-5 l -6,0 a 2,2 0 0 0 -2,2 l 0,3" />
      <circle
         style="fill:#000000"
         sodipodi:ry="1"
         sodipodi:rx="1"
         sodipodi:cy="30"
         sodipodi:cx="23"
         d="m 24,30 c 0,0.552285 -0.447715,1 -1,1 -0.552285,0 -1,-0.447715 -1,-1 0,-0.552285 0.447715,-1 1,-1 0.552285,0 1,0.447715 1,1 z"
         id="circle7332"
         r="1"
         cy="30"
         cx="23" />
      <text
         id="text7334"
         font-size="8"
         style="font-size:8px;text-anchor:middle"
         y="23"
         x="10">B</text>
      <circle
         style="fill:#000000"
         sodipodi:ry="1"
         sodipodi:rx="1"
         sodipodi:cy="20"
         sodipodi:cx="37"
         d="m 38,20 c 0,0.552285 -0.447715,1 -1,1 -0.552285,0 -1,-0.447715 -1,-1 0,-0.552285 0.447715,-1 1,-1 0.552285,0 1,0.447715 1,1 z"
         id="circle7336"
         r="1"
         cy="20"
         cx="37" />
      <text
         id="text7338"
         font-size="8"
         style="font-size:8px;text-anchor:middle"
         y="43"
         x="40">R</text>
      <circle
         style="fill:#000000"
         sodipodi:ry="1"
         sodipodi:rx="1"
         sodipodi:cy="-20"
         sodipodi:cx="37"
         d="m 38,-20 c 0,0.552285 -0.447715,1 -1,1 -0.552285,0 -1,-0.447715 -1,-1 0,-0.552285 0.447715,-1 1,-1 0.552285,0 1,0.447715 1,1 z"
         id="circle7340"
         r="1"
         cy="-20"
         cx="37" />
      <text
         id="text7342"
         font-size="8"
         style="font-size:8px;text-anchor:middle"
         y="3"
         x="40">O</text>
      <circle
         style="fill:#000000"
         sodipodi:ry="1"
         sodipodi:rx="1"
         sodipodi:cy="-37"
         sodipodi:cx="10"
         d="m 11,-37 c 0,0.552285 -0.447715,1 -1,1 -0.5522847,0 -1,-0.447715 -1,-1 0,-0.552285 0.4477153,-1 1,-1 0.552285,0 1,0.447715 1,1 z"
         id="circle7344"
         r="1"
         cy="-37"
         cx="10" />
      <text
         id="text7346"
         font-size="8"
         style="font-size:8px;text-anchor:middle"
         y="-37"
         x="30">W</text>
      <circle
         style="fill:#000000"
         sodipodi:ry="1"
         sodipodi:rx="1"
         sodipodi:cy="-27"
         sodipodi:cx="-10"
         d="m -9,-27 c 0,0.552285 -0.4477153,1 -1,1 -0.552285,0 -1,-0.447715 -1,-1 0,-0.552285 0.447715,-1 1,-1 0.5522847,0 1,0.447715 1,1 z"
         id="circle7348"
         r="1"
         cy="-27"
         cx="-10" />
      <text
         id="text7350"
         font-size="8"
         style="font-size:8px;text-anchor:middle"
         y="-27"
         x="0">N</text>
    </g>
    <g
       id="g7352"
       transform="translate(723.88875,473.66694)">
      <path
         style="fill:#008000;stroke:#000000;stroke-width:0.5"
         id="path7354"
         d="m -5,0 0,3 a 2,2 0 0 0 2,2 L 3,5 A 2,2 0 0 0 5,3 L 0,0 5,3 a 2,2 0 0 0 2,2 l 6,0 a 2,2 0 0 0 2,-2 2,2 0 0 0 2,2 l 6,0 a 2,2 0 0 0 2,-2 l 0,-6 a 2,2 0 0 0 -2,-2 2,2 0 0 0 2,-2 l 0,-6 a 2,2 0 0 0 -2,-2 2,2 0 0 0 2,-2 l 0,-6 a 2,2 0 0 0 -2,-2 l -3,5 3,-5 a 2,2 0 0 0 2,-2 l 0,-6 a 2,2 0 0 0 -2,-2 2,2 0 0 0 2,-2 l 0,-6 a 2,2 0 0 0 -2,-2 2,2 0 0 0 2,-2 l 0,-6 a 2,2 0 0 0 -2,-2 2,2 0 0 0 2,-2 l 0,-6 a 2,2 0 0 0 -2,-2 l -3,5 3,-5 a 2,2 0 0 0 2,-2 l 0,-6 a 2,2 0 0 0 -2,-2 l -6,0 a 2,2 0 0 0 -2,2 2,2 0 0 0 -2,-2 l -6,0 a 2,2 0 0 0 -2,2 2,2 0 0 0 -2,-2 l -6,0 a 2,2 0 0 0 -2,2 l 0,6 a 2,2 0 0 0 2,2 2,2 0 0 0 -2,2 l 0,6 a 2,2 0 0 0 2,2 l 3,-5 -3,5 3,-5 3,5 -3,-5 3,5 a 2,2 0 0 0 2,-2 l 0,-6 a 2,2 0 0 0 -2,-2 2,2 0 0 0 2,-2 2,2 0 0 0 2,2 l 6,0 a 2,2 0 0 0 2,-2 2,2 0 0 0 2,2 l 3,5 -3,-5 a 2,2 0 0 0 -2,2 l 0,6 a 2,2 0 0 0 2,2 2,2 0 0 0 -2,2 l 0,6 a 2,2 0 0 0 2,2 2,2 0 0 0 -2,2 l 0,6 a 2,2 0 0 0 2,2 2,2 0 0 0 -2,2 l 0,6 a 2,2 0 0 0 2,2 l 3,5 -3,-5 a 2,2 0 0 0 -2,2 l 0,6 a 2,2 0 0 0 2,2 2,2 0 0 0 -2,2 l 0,6 a 2,2 0 0 0 2,2 2,2 0 0 0 -2,2 2,2 0 0 0 -2,-2 L 7,-5 A 2,2 0 0 0 5,-3 L 0,0 5,-3 A 2,2 0 0 0 3,-5 l -6,0 a 2,2 0 0 0 -2,2 l 0,3" />
      <circle
         style="fill:#000000"
         sodipodi:ry="1"
         sodipodi:rx="1"
         sodipodi:cy="-20"
         sodipodi:cx="17"
         d="m 18,-20 c 0,0.552285 -0.447715,1 -1,1 -0.552285,0 -1,-0.447715 -1,-1 0,-0.552285 0.447715,-1 1,-1 0.552285,0 1,0.447715 1,1 z"
         id="circle7356"
         r="1"
         cy="-20"
         cx="17" />
      <text
         id="text7358"
         font-size="8"
         style="font-size:8px;text-anchor:middle"
         y="3"
         x="20">F</text>
      <circle
         style="fill:#000000"
         sodipodi:ry="1"
         sodipodi:rx="1"
         sodipodi:cy="-60"
         sodipodi:cx="17"
         d="m 18,-60 c 0,0.552285 -0.447715,1 -1,1 -0.552285,0 -1,-0.447715 -1,-1 0,-0.552285 0.447715,-1 1,-1 0.552285,0 1,0.447715 1,1 z"
         id="circle7360"
         r="1"
         cy="-60"
         cx="17" />
      <text
         id="text7362"
         font-size="8"
         style="font-size:8px;text-anchor:middle"
         y="-37"
         x="20">O</text>
      <circle
         style="fill:#000000"
         sodipodi:ry="1"
         sodipodi:rx="1"
         sodipodi:cy="-60"
         sodipodi:cx="3"
         d="m 4,-60 c 0,0.552285 -0.4477153,1 -1,1 -0.5522847,0 -1,-0.447715 -1,-1 0,-0.552285 0.4477153,-1 1,-1 0.5522847,0 1,0.447715 1,1 z"
         id="circle7364"
         r="1"
         cy="-60"
         cx="3" />
      <text
         id="text7366"
         font-size="8"
         style="font-size:8px;text-anchor:middle"
         y="-67"
         x="10">X</text>
    </g>
    <g
       id="g7368"
       transform="translate(774.4512,479.65937)">
      <path
         style="fill:#008000;stroke:#000000;stroke-width:0.5"
         id="path7370"
         d="m -5,0 0,3 a 2,2 0 0 0 2,2 L 3,5 A 2,2 0 0 0 5,3 L 0,0 5,3 a 2,2 0 0 0 2,2 l 6,0 a 2,2 0 0 0 2,-2 2,2 0 0 0 2,2 l 6,0 a 2,2 0 0 0 2,-2 l 0,-6 a 2,2 0 0 0 -2,-2 2,2 0 0 0 2,-2 l 0,-6 a 2,2 0 0 0 -2,-2 2,2 0 0 0 2,-2 2,2 0 0 0 2,2 l 6,0 a 2,2 0 0 0 2,-2 l 0,-6 a 2,2 0 0 0 -2,-2 l -3,5 3,-5 a 2,2 0 0 0 2,-2 l 0,-6 a 2,2 0 0 0 -2,-2 2,2 0 0 0 2,-2 l 0,-6 a 2,2 0 0 0 -2,-2 2,2 0 0 0 2,-2 l 0,-6 a 2,2 0 0 0 -2,-2 l -6,0 a 2,2 0 0 0 -2,2 l 5,3 -5,-3 a 2,2 0 0 0 -2,-2 2,2 0 0 0 2,-2 l 0,-6 a 2,2 0 0 0 -2,-2 l -6,0 a 2,2 0 0 0 -2,2 2,2 0 0 0 -2,-2 l -3,5 3,-5 a 2,2 0 0 0 2,-2 l 0,-6 a 2,2 0 0 0 -2,-2 2,2 0 0 0 2,-2 2,2 0 0 0 2,2 l 6,0 a 2,2 0 0 0 2,-2 l -5,-3 5,3 a 2,2 0 0 0 2,2 l 6,0 a 2,2 0 0 0 2,-2 2,2 0 0 0 2,2 2,2 0 0 0 -2,2 l 0,6 a 2,2 0 0 0 2,2 l 6,0 a 2,2 0 0 0 2,-2 2,2 0 0 0 2,2 l 6,0 a 2,2 0 0 0 2,-2 l -5,-3 5,3 -5,-3 5,-3 -5,3 5,-3 a 2,2 0 0 0 -2,-2 l -6,0 a 2,2 0 0 0 -2,2 2,2 0 0 0 -2,-2 2,2 0 0 0 2,-2 l 0,-6 a 2,2 0 0 0 -2,-2 l -6,0 a 2,2 0 0 0 -2,2 2,2 0 0 0 -2,-2 l -6,0 a 2,2 0 0 0 -2,2 l -5,3 5,-3 a 2,2 0 0 0 -2,-2 l -6,0 a 2,2 0 0 0 -2,2 2,2 0 0 0 -2,-2 l -6,0 a 2,2 0 0 0 -2,2 l 0,6 a 2,2 0 0 0 2,2 2,2 0 0 0 -2,2 l 0,6 a 2,2 0 0 0 2,2 l 3,5 -3,-5 a 2,2 0 0 0 -2,2 l 0,6 a 2,2 0 0 0 2,2 l 6,0 a 2,2 0 0 0 2,-2 2,2 0 0 0 2,2 2,2 0 0 0 -2,2 l 0,6 a 2,2 0 0 0 2,2 l 6,0 a 2,2 0 0 0 2,-2 l 5,-3 -5,3 a 2,2 0 0 0 2,2 2,2 0 0 0 -2,2 l 0,6 a 2,2 0 0 0 2,2 2,2 0 0 0 -2,2 l 0,6 a 2,2 0 0 0 2,2 l 3,5 -3,-5 a 2,2 0 0 0 -2,2 2,2 0 0 0 -2,-2 l -6,0 a 2,2 0 0 0 -2,2 l 0,6 a 2,2 0 0 0 2,2 2,2 0 0 0 -2,2 l 0,6 a 2,2 0 0 0 2,2 2,2 0 0 0 -2,2 2,2 0 0 0 -2,-2 L 7,-5 A 2,2 0 0 0 5,-3 L 0,0 5,-3 A 2,2 0 0 0 3,-5 l -6,0 a 2,2 0 0 0 -2,2 l 0,3" />
      <circle
         style="fill:#000000"
         sodipodi:ry="1"
         sodipodi:rx="1"
         sodipodi:cy="-20"
         sodipodi:cx="27"
         d="m 28,-20 c 0,0.552285 -0.447715,1 -1,1 -0.552285,0 -1,-0.447715 -1,-1 0,-0.552285 0.447715,-1 1,-1 0.552285,0 1,0.447715 1,1 z"
         id="circle7372"
         r="1"
         cy="-20"
         cx="27" />
      <text
         id="text7374"
         font-size="8"
         style="font-size:8px;text-anchor:middle"
         y="-7"
         x="20">J</text>
      <circle
         style="fill:#000000"
         sodipodi:ry="1"
         sodipodi:rx="1"
         sodipodi:cy="-47"
         sodipodi:cx="30"
         d="m 31,-47 c 0,0.552285 -0.447715,1 -1,1 -0.552285,0 -1,-0.447715 -1,-1 0,-0.552285 0.447715,-1 1,-1 0.552285,0 1,0.447715 1,1 z"
         id="circle7376"
         r="1"
         cy="-47"
         cx="30" />
      <text
         id="text7378"
         font-size="8"
         style="font-size:8px;text-anchor:middle"
         y="-37"
         x="30">U</text>
      <circle
         style="fill:#000000"
         sodipodi:ry="1"
         sodipodi:rx="1"
         sodipodi:cy="-60"
         sodipodi:cx="7"
         d="m 8,-60 c 0,0.552285 -0.4477153,1 -1,1 -0.5522847,0 -1,-0.447715 -1,-1 0,-0.552285 0.4477153,-1 1,-1 0.5522847,0 1,0.447715 1,1 z"
         id="circle7380"
         r="1"
         cy="-60"
         cx="7" />
      <text
         id="text7382"
         font-size="8"
         style="font-size:8px;text-anchor:middle"
         y="-57"
         x="20">M</text>
      <circle
         style="fill:#000000"
         sodipodi:ry="1"
         sodipodi:rx="1"
         sodipodi:cy="-83"
         sodipodi:cx="20"
         d="m 21,-83 c 0,0.552285 -0.447715,1 -1,1 -0.552285,0 -1,-0.447715 -1,-1 0,-0.552285 0.447715,-1 1,-1 0.552285,0 1,0.447715 1,1 z"
         id="circle7384"
         r="1"
         cy="-83"
         cx="20" />
      <text
         id="text7386"
         font-size="8"
         style="font-size:8px;text-anchor:middle"
         y="-77"
         x="10">P</text>
      <circle
         style="fill:#000000"
         sodipodi:ry="1"
         sodipodi:rx="1"
         sodipodi:cy="-73"
         sodipodi:cx="50"
         d="m 51,-73 c 0,0.552285 -0.447715,1 -1,1 -0.552285,0 -1,-0.447715 -1,-1 0,-0.552285 0.447715,-1 1,-1 0.552285,0 1,0.447715 1,1 z"
         id="circle7388"
         r="1"
         cy="-73"
         cx="50" />
      <text
         id="text7390"
         font-size="8"
         style="font-size:8px;text-anchor:middle"
         y="-77"
         x="40">S</text>
    </g>
    <g
       id="g7392"
       transform="translate(847.48526,422.73128)">
      <path
         style="fill:#008000;stroke:#000000;stroke-width:0.5"
         id="path7394"
         d="m -5,0 0,3 a 2,2 0 0 0 2,2 L 3,5 A 2,2 0 0 0 5,3 L 0,0 5,3 a 2,2 0 0 0 2,2 l 6,0 a 2,2 0 0 0 2,-2 2,2 0 0 0 2,2 l 6,0 a 2,2 0 0 0 2,-2 2,2 0 0 0 2,2 l 6,0 a 2,2 0 0 0 2,-2 2,2 0 0 0 2,2 l 6,0 a 2,2 0 0 0 2,-2 l -5,-3 5,3 a 2,2 0 0 0 2,2 2,2 0 0 0 -2,2 l 0,6 a 2,2 0 0 0 2,2 2,2 0 0 0 -2,2 2,2 0 0 0 -2,-2 l -6,0 a 2,2 0 0 0 -2,2 2,2 0 0 0 -2,-2 l -6,0 a 2,2 0 0 0 -2,2 l 5,3 -5,-3 a 2,2 0 0 0 -2,-2 l -6,0 a 2,2 0 0 0 -2,2 2,2 0 0 0 -2,-2 l -6,0 a 2,2 0 0 0 -2,2 l 0,6 a 2,2 0 0 0 2,2 2,2 0 0 0 -2,2 l 5,3 -5,-3 A 2,2 0 0 0 3,25 l -6,0 a 2,2 0 0 0 -2,2 l 0,6 a 2,2 0 0 0 2,2 2,2 0 0 0 -2,2 l 0,6 a 2,2 0 0 0 2,2 2,2 0 0 0 -2,2 l 0,6 a 2,2 0 0 0 2,2 l 6,0 a 2,2 0 0 0 2,-2 2,2 0 0 0 2,2 l 6,0 a 2,2 0 0 0 2,-2 2,2 0 0 0 2,2 l 6,0 a 2,2 0 0 0 2,-2 l -5,-3 5,3 -5,-3 5,-3 -5,3 5,-3 a 2,2 0 0 0 -2,-2 l -6,0 a 2,2 0 0 0 -2,2 2,2 0 0 0 -2,-2 L 7,45 A 2,2 0 0 0 5,47 2,2 0 0 0 3,45 2,2 0 0 0 5,43 L 5,37 A 2,2 0 0 0 3,35 2,2 0 0 0 5,33 l 5,-3 -5,3 a 2,2 0 0 0 2,2 l 6,0 a 2,2 0 0 0 2,-2 l 0,-6 a 2,2 0 0 0 -2,-2 2,2 0 0 0 2,-2 2,2 0 0 0 2,2 l 6,0 a 2,2 0 0 0 2,-2 l 5,-3 -5,3 a 2,2 0 0 0 2,2 l 6,0 a 2,2 0 0 0 2,-2 2,2 0 0 0 2,2 l 6,0 a 2,2 0 0 0 2,-2 2,2 0 0 0 2,2 l 6,0 a 2,2 0 0 0 2,-2 l 0,-6 a 2,2 0 0 0 -2,-2 2,2 0 0 0 2,-2 L 55,7 A 2,2 0 0 0 53,5 2,2 0 0 0 55,3 l 0,-6 a 2,2 0 0 0 -2,-2 l -6,0 a 2,2 0 0 0 -2,2 l -5,3 5,-3 a 2,2 0 0 0 -2,-2 l -6,0 a 2,2 0 0 0 -2,2 2,2 0 0 0 -2,-2 l -6,0 a 2,2 0 0 0 -2,2 2,2 0 0 0 -2,-2 l -6,0 a 2,2 0 0 0 -2,2 2,2 0 0 0 -2,-2 L 7,-5 A 2,2 0 0 0 5,-3 L 0,0 5,-3 A 2,2 0 0 0 3,-5 l -6,0 a 2,2 0 0 0 -2,2 l 0,3" />
      <circle
         style="fill:#000000"
         sodipodi:ry="1"
         sodipodi:rx="1"
         sodipodi:cy="-3"
         sodipodi:cx="40"
         d="m 41,-3 c 0,0.5522847 -0.447715,1 -1,1 -0.552285,0 -1,-0.4477153 -1,-1 0,-0.5522847 0.447715,-1 1,-1 0.552285,0 1,0.4477153 1,1 z"
         id="circle7396"
         r="1"
         cy="-3"
         cx="40" />
      <text
         id="text7398"
         font-size="8"
         style="font-size:8px;text-anchor:middle"
         y="3"
         x="20">O</text>
      <circle
         style="fill:#000000"
         sodipodi:ry="1"
         sodipodi:rx="1"
         sodipodi:cy="23"
         sodipodi:cx="30"
         d="m 31,23 c 0,0.552285 -0.447715,1 -1,1 -0.552285,0 -1,-0.447715 -1,-1 0,-0.552285 0.447715,-1 1,-1 0.552285,0 1,0.447715 1,1 z"
         id="circle7400"
         r="1"
         cy="23"
         cx="30" />
      <text
         id="text7402"
         font-size="8"
         style="font-size:8px;text-anchor:middle"
         y="23"
         x="50">V</text>
      <circle
         style="fill:#000000"
         sodipodi:ry="1"
         sodipodi:rx="1"
         sodipodi:cy="33"
         sodipodi:cx="10"
         d="m 11,33 c 0,0.552285 -0.447715,1 -1,1 -0.5522847,0 -1,-0.447715 -1,-1 0,-0.552285 0.4477153,-1 1,-1 0.552285,0 1,0.447715 1,1 z"
         id="circle7404"
         r="1"
         cy="33"
         cx="10" />
      <text
         id="text7406"
         font-size="8"
         style="font-size:8px;text-anchor:middle"
         y="23"
         x="10">E</text>
      <circle
         style="fill:#000000"
         sodipodi:ry="1"
         sodipodi:rx="1"
         sodipodi:cy="47"
         sodipodi:cx="20"
         d="m 21,47 c 0,0.552285 -0.447715,1 -1,1 -0.552285,0 -1,-0.447715 -1,-1 0,-0.552285 0.447715,-1 1,-1 0.552285,0 1,0.447715 1,1 z"
         id="circle7408"
         r="1"
         cy="47"
         cx="20" />
      <text
         id="text7410"
         font-size="8"
         style="font-size:8px;text-anchor:middle"
         y="53"
         x="0">R</text>
    </g>
    <g
       id="g7412"
       transform="translate(947.48526,436.21425)">
      <path
         style="fill:#008000;stroke:#000000;stroke-width:0.5"
         id="path7414"
         d="m -5,0 0,3 a 2,2 0 0 0 2,2 L 3,5 A 2,2 0 0 0 5,3 L 0,0 5,3 a 2,2 0 0 0 2,2 l 6,0 a 2,2 0 0 0 2,-2 2,2 0 0 0 2,2 l 6,0 a 2,2 0 0 0 2,-2 2,2 0 0 0 2,2 L 30,0 27,5 A 2,2 0 0 0 25,7 2,2 0 0 0 23,5 L 17,5 A 2,2 0 0 0 15,7 2,2 0 0 0 13,5 L 7,5 A 2,2 0 0 0 5,7 2,2 0 0 0 3,5 L -3,5 A 2,2 0 0 0 -5,7 L 0,10 -5,7 A 2,2 0 0 0 -7,5 l -6,0 a 2,2 0 0 0 -2,2 2,2 0 0 0 -2,-2 l -6,0 a 2,2 0 0 0 -2,2 l 0,6 a 2,2 0 0 0 2,2 2,2 0 0 0 -2,2 l 5,3 -5,-3 5,3 -5,3 5,-3 -5,3 a 2,2 0 0 0 2,2 l 6,0 a 2,2 0 0 0 2,-2 l 0,-6 a 2,2 0 0 0 -2,-2 2,2 0 0 0 2,-2 2,2 0 0 0 2,2 l 6,0 a 2,2 0 0 0 2,-2 l 5,-3 -5,3 a 2,2 0 0 0 2,2 l 6,0 a 2,2 0 0 0 2,-2 2,2 0 0 0 2,2 l 6,0 a 2,2 0 0 0 2,-2 2,2 0 0 0 2,2 l 6,0 a 2,2 0 0 0 2,-2 2,2 0 0 0 2,2 l 6,0 a 2,2 0 0 0 2,-2 L 35,7 A 2,2 0 0 0 33,5 l -3,-5 3,5 a 2,2 0 0 0 2,-2 l 0,-6 a 2,2 0 0 0 -2,-2 l -6,0 a 2,2 0 0 0 -2,2 2,2 0 0 0 -2,-2 l -6,0 a 2,2 0 0 0 -2,2 2,2 0 0 0 -2,-2 L 7,-5 A 2,2 0 0 0 5,-3 L 0,0 5,-3 A 2,2 0 0 0 3,-5 l -6,0 a 2,2 0 0 0 -2,2 l 0,3" />
      <circle
         style="fill:#000000"
         sodipodi:ry="1"
         sodipodi:rx="1"
         sodipodi:cy="0"
         sodipodi:cx="33"
         d="m 34,0 c 0,0.55228475 -0.447715,1 -1,1 -0.552285,0 -1,-0.44771525 -1,-1 0,-0.55228475 0.447715,-1 1,-1 0.552285,0 1,0.44771525 1,1 z"
         id="circle7416"
         r="1"
         cy="0"
         cx="33" />
      <text
         id="text7418"
         font-size="8"
         style="font-size:8px;text-anchor:middle"
         y="3"
         x="20">T</text>
      <circle
         style="fill:#000000"
         sodipodi:ry="1"
         sodipodi:rx="1"
         sodipodi:cy="13"
         sodipodi:cx="0"
         d="m 1,13 c 0,0.552285 -0.44771525,1 -1,1 -0.55228475,0 -1,-0.447715 -1,-1 0,-0.552285 0.44771525,-1 1,-1 0.55228475,0 1,0.447715 1,1 z"
         id="circle7420"
         r="1"
         cy="13"
         cx="0" />
      <text
         id="text7422"
         font-size="8"
         style="font-size:8px;text-anchor:middle"
         y="13"
         x="20">H</text>
      <circle
         style="fill:#000000"
         sodipodi:ry="1"
         sodipodi:rx="1"
         sodipodi:cy="23"
         sodipodi:cx="-20"
         d="m -19,23 c 0,0.552285 -0.447715,1 -1,1 -0.552285,0 -1,-0.447715 -1,-1 0,-0.552285 0.447715,-1 1,-1 0.552285,0 1,0.447715 1,1 z"
         id="circle7424"
         r="1"
         cy="23"
         cx="-20" />
      <text
         id="text7426"
         font-size="8"
         style="font-size:8px;text-anchor:middle"
         y="13"
         x="-20">E</text>
    </g>
    <g
       id="g7428"
       transform="translate(992.05528,493.14233)">
      <path
         style="fill:#008000;stroke:#000000;stroke-width:0.5"
         id="path7430"
         d="m -5,0 0,3 a 2,2 0 0 0 2,2 L 3,5 A 2,2 0 0 0 5,3 L 0,0 5,3 a 2,2 0 0 0 2,2 l 6,0 a 2,2 0 0 0 2,-2 l 0,-6 a 2,2 0 0 0 -2,-2 2,2 0 0 0 2,-2 l 0,-6 a 2,2 0 0 0 -2,-2 2,2 0 0 0 2,-2 l 0,-6 a 2,2 0 0 0 -2,-2 2,2 0 0 0 2,-2 2,2 0 0 0 2,2 l 6,0 a 2,2 0 0 0 2,-2 l 0,-6 a 2,2 0 0 0 -2,-2 l -3,5 3,-5 a 2,2 0 0 0 2,-2 l 0,-6 a 2,2 0 0 0 -2,-2 2,2 0 0 0 2,-2 2,2 0 0 0 2,2 l 6,0 a 2,2 0 0 0 2,-2 l 0,-6 a 2,2 0 0 0 -2,-2 2,2 0 0 0 2,-2 l 0,-6 a 2,2 0 0 0 -2,-2 2,2 0 0 0 2,-2 l 0,-6 a 2,2 0 0 0 -2,-2 l -3,5 3,-5 a 2,2 0 0 0 2,-2 l 0,-6 a 2,2 0 0 0 -2,-2 l -6,0 a 2,2 0 0 0 -2,2 2,2 0 0 0 -2,-2 2,2 0 0 0 2,-2 l 0,-6 a 2,2 0 0 0 -2,-2 2,2 0 0 0 2,-2 2,2 0 0 0 2,2 l 6,0 a 2,2 0 0 0 2,-2 l -5,-3 5,3 a 2,2 0 0 0 2,2 l 6,0 a 2,2 0 0 0 2,-2 2,2 0 0 0 2,2 l 6,0 a 2,2 0 0 0 2,-2 2,2 0 0 0 2,2 l 6,0 a 2,2 0 0 0 2,-2 l -5,-3 5,3 -5,-3 5,-3 -5,3 5,-3 a 2,2 0 0 0 -2,-2 l -6,0 a 2,2 0 0 0 -2,2 2,2 0 0 0 -2,-2 l -6,0 a 2,2 0 0 0 -2,2 2,2 0 0 0 -2,-2 l -6,0 a 2,2 0 0 0 -2,2 l -5,3 5,-3 a 2,2 0 0 0 -2,-2 l -6,0 a 2,2 0 0 0 -2,2 2,2 0 0 0 -2,-2 l -6,0 a 2,2 0 0 0 -2,2 l 0,6 a 2,2 0 0 0 2,2 2,2 0 0 0 -2,2 l 0,6 a 2,2 0 0 0 2,2 2,2 0 0 0 -2,2 l 0,6 a 2,2 0 0 0 2,2 l 6,0 a 2,2 0 0 0 2,-2 2,2 0 0 0 2,2 l 3,5 -3,-5 a 2,2 0 0 0 -2,2 l 0,6 a 2,2 0 0 0 2,2 2,2 0 0 0 -2,2 l 0,6 a 2,2 0 0 0 2,2 2,2 0 0 0 -2,2 2,2 0 0 0 -2,-2 l -6,0 a 2,2 0 0 0 -2,2 l 0,6 a 2,2 0 0 0 2,2 2,2 0 0 0 -2,2 l 0,6 a 2,2 0 0 0 2,2 l 3,5 -3,-5 a 2,2 0 0 0 -2,2 2,2 0 0 0 -2,-2 l -6,0 a 2,2 0 0 0 -2,2 l 0,6 a 2,2 0 0 0 2,2 2,2 0 0 0 -2,2 l 0,6 a 2,2 0 0 0 2,2 2,2 0 0 0 -2,2 l 0,6 a 2,2 0 0 0 2,2 2,2 0 0 0 -2,2 L 0,0 5,-3 A 2,2 0 0 0 3,-5 l -6,0 a 2,2 0 0 0 -2,2 l 0,3" />
      <circle
         style="fill:#000000"
         sodipodi:ry="1"
         sodipodi:rx="1"
         sodipodi:cy="-30"
         sodipodi:cx="17"
         d="m 18,-30 c 0,0.552285 -0.447715,1 -1,1 -0.552285,0 -1,-0.447715 -1,-1 0,-0.552285 0.447715,-1 1,-1 0.552285,0 1,0.447715 1,1 z"
         id="circle7432"
         r="1"
         cy="-30"
         cx="17" />
      <text
         id="text7434"
         font-size="8"
         style="font-size:8px;text-anchor:middle"
         y="-17"
         x="10">L</text>
      <circle
         style="fill:#000000"
         sodipodi:ry="1"
         sodipodi:rx="1"
         sodipodi:cy="-70"
         sodipodi:cx="27"
         d="m 28,-70 c 0,0.552285 -0.447715,1 -1,1 -0.552285,0 -1,-0.447715 -1,-1 0,-0.552285 0.447715,-1 1,-1 0.552285,0 1,0.447715 1,1 z"
         id="circle7436"
         r="1"
         cy="-70"
         cx="27" />
      <text
         id="text7438"
         font-size="8"
         style="font-size:8px;text-anchor:middle"
         y="-47"
         x="30">A</text>
      <circle
         style="fill:#000000"
         sodipodi:ry="1"
         sodipodi:rx="1"
         sodipodi:cy="-103"
         sodipodi:cx="30"
         d="m 31,-103 c 0,0.55228 -0.447715,1 -1,1 -0.552285,0 -1,-0.44772 -1,-1 0,-0.55228 0.447715,-1 1,-1 0.552285,0 1,0.44772 1,1 z"
         id="circle7440"
         r="1"
         cy="-103"
         cx="30" />
      <text
         id="text7442"
         font-size="8"
         style="font-size:8px;text-anchor:middle"
         y="-87"
         x="20">Z</text>
      <circle
         style="fill:#000000"
         sodipodi:ry="1"
         sodipodi:rx="1"
         sodipodi:cy="-103"
         sodipodi:cx="60"
         d="m 61,-103 c 0,0.55228 -0.447715,1 -1,1 -0.552285,0 -1,-0.44772 -1,-1 0,-0.55228 0.447715,-1 1,-1 0.552285,0 1,0.44772 1,1 z"
         id="circle7444"
         r="1"
         cy="-103"
         cx="60" />
      <text
         id="text7446"
         font-size="8"
         style="font-size:8px;text-anchor:middle"
         y="-97"
         x="50">Y</text>
    </g>
    <g
       id="g7448"
       transform="translate(1047.1121,413.74263)">
      <path
         style="fill:#008000;stroke:#000000;stroke-width:0.5"
         id="path7450"
         d="m -5,0 0,3 a 2,2 0 0 0 2,2 L 3,5 A 2,2 0 0 0 5,3 L 0,0 5,3 a 2,2 0 0 0 2,2 l 6,0 a 2,2 0 0 0 2,-2 2,2 0 0 0 2,2 l 6,0 a 2,2 0 0 0 2,-2 2,2 0 0 0 2,2 l 6,0 a 2,2 0 0 0 2,-2 2,2 0 0 0 2,2 l 6,0 a 2,2 0 0 0 2,-2 2,2 0 0 0 2,2 l 3,-5 -3,5 a 2,2 0 0 0 -2,2 l 0,6 a 2,2 0 0 0 2,2 2,2 0 0 0 -2,2 l 0,6 a 2,2 0 0 0 2,2 2,2 0 0 0 -2,2 l 0,6 a 2,2 0 0 0 2,2 2,2 0 0 0 -2,2 l 0,6 a 2,2 0 0 0 2,2 l 3,-5 -3,5 a 2,2 0 0 0 -2,2 l 0,6 a 2,2 0 0 0 2,2 l 6,0 a 2,2 0 0 0 2,-2 2,2 0 0 0 2,2 2,2 0 0 0 -2,2 l 0,6 a 2,2 0 0 0 2,2 l 6,0 a 2,2 0 0 0 2,-2 2,2 0 0 0 2,2 l 6,0 a 2,2 0 0 0 2,-2 2,2 0 0 0 2,2 l 6,0 a 2,2 0 0 0 2,-2 l 0,-6 a 2,2 0 0 0 -2,-2 l -3,5 3,-5 -3,5 -3,-5 3,5 -3,-5 a 2,2 0 0 0 -2,2 2,2 0 0 0 -2,-2 l -6,0 a 2,2 0 0 0 -2,2 2,2 0 0 0 -2,-2 2,2 0 0 0 2,-2 l 0,-6 a 2,2 0 0 0 -2,-2 l -6,0 a 2,2 0 0 0 -2,2 2,2 0 0 0 -2,-2 l -3,-5 3,5 a 2,2 0 0 0 2,-2 l 0,-6 a 2,2 0 0 0 -2,-2 2,2 0 0 0 2,-2 l 0,-6 a 2,2 0 0 0 -2,-2 2,2 0 0 0 2,-2 l 0,-6 a 2,2 0 0 0 -2,-2 2,2 0 0 0 2,-2 L 55,7 A 2,2 0 0 0 53,5 l -3,-5 3,5 a 2,2 0 0 0 2,-2 l 0,-6 a 2,2 0 0 0 -2,-2 l -6,0 a 2,2 0 0 0 -2,2 2,2 0 0 0 -2,-2 l -6,0 a 2,2 0 0 0 -2,2 2,2 0 0 0 -2,-2 l -6,0 a 2,2 0 0 0 -2,2 2,2 0 0 0 -2,-2 l -6,0 a 2,2 0 0 0 -2,2 2,2 0 0 0 -2,-2 L 7,-5 A 2,2 0 0 0 5,-3 L 0,0 5,-3 A 2,2 0 0 0 3,-5 l -6,0 a 2,2 0 0 0 -2,2 l 0,3" />
      <circle
         style="fill:#000000"
         sodipodi:ry="1"
         sodipodi:rx="1"
         sodipodi:cy="0"
         sodipodi:cx="53"
         d="m 54,0 c 0,0.55228475 -0.447715,1 -1,1 -0.552285,0 -1,-0.44771525 -1,-1 0,-0.55228475 0.447715,-1 1,-1 0.552285,0 1,0.44771525 1,1 z"
         id="circle7452"
         r="1"
         cy="0"
         cx="53" />
      <text
         id="text7454"
         font-size="8"
         style="font-size:8px;text-anchor:middle"
         y="3"
         x="30">D</text>
      <circle
         style="fill:#000000"
         sodipodi:ry="1"
         sodipodi:rx="1"
         sodipodi:cy="40"
         sodipodi:cx="53"
         d="m 54,40 c 0,0.552285 -0.447715,1 -1,1 -0.552285,0 -1,-0.447715 -1,-1 0,-0.552285 0.447715,-1 1,-1 0.552285,0 1,0.447715 1,1 z"
         id="circle7456"
         r="1"
         cy="40"
         cx="53" />
      <text
         id="text7458"
         font-size="8"
         style="font-size:8px;text-anchor:middle"
         y="23"
         x="50">O</text>
      <circle
         style="fill:#000000"
         sodipodi:ry="1"
         sodipodi:rx="1"
         sodipodi:cy="60"
         sodipodi:cx="77"
         d="m 78,60 c 0,0.552285 -0.447715,1 -1,1 -0.552285,0 -1,-0.447715 -1,-1 0,-0.552285 0.447715,-1 1,-1 0.552285,0 1,0.447715 1,1 z"
         id="circle7460"
         r="1"
         cy="60"
         cx="77" />
      <text
         id="text7462"
         font-size="8"
         style="font-size:8px;text-anchor:middle"
         y="63"
         x="60">G</text>
    </g>
  </g>
  <g
     transform="translate(549.48919,592.91059)"
     id="g7464">
    <path
       d="m -5,0 0,3 a 2,2 0 0 0 2,2 L 3,5 A 2,2 0 0 0 5,3 L 0,0 5,3 A 2,2 0 0 0 7,5 2,2 0 0 0 5,7 l 0,6 a 2,2 0 0 0 2,2 2,2 0 0 0 -2,2 l 0,6 a 2,2 0 0 0 2,2 2,2 0 0 0 -2,2 l 0,6 a 2,2 0 0 0 2,2 l 3,-5 -3,5 a 2,2 0 0 0 -2,2 l 0,6 a 2,2 0 0 0 2,2 2,2 0 0 0 -2,2 l 0,6 a 2,2 0 0 0 2,2 2,2 0 0 0 -2,2 l 0,6 a 2,2 0 0 0 2,2 2,2 0 0 0 -2,2 l 0,6 a 2,2 0 0 0 2,2 l 3,-5 -3,5 a 2,2 0 0 0 -2,2 l 0,6 a 2,2 0 0 0 2,2 l 6,0 a 2,2 0 0 0 2,-2 2,2 0 0 0 2,2 2,2 0 0 0 -2,2 l 0,6 a 2,2 0 0 0 2,2 l 6,0 a 2,2 0 0 0 2,-2 2,2 0 0 0 2,2 l 6,0 a 2,2 0 0 0 2,-2 2,2 0 0 0 2,2 l 6,0 a 2,2 0 0 0 2,-2 l -5,-3 5,3 -5,-3 5,-3 -5,3 5,-3 a 2,2 0 0 0 -2,-2 l -6,0 a 2,2 0 0 0 -2,2 2,2 0 0 0 -2,-2 l -6,0 a 2,2 0 0 0 -2,2 2,2 0 0 0 -2,-2 2,2 0 0 0 2,-2 l 0,-6 a 2,2 0 0 0 -2,-2 l -6,0 a 2,2 0 0 0 -2,2 2,2 0 0 0 -2,-2 l -3,-5 3,5 a 2,2 0 0 0 2,-2 l 0,-6 a 2,2 0 0 0 -2,-2 2,2 0 0 0 2,-2 l 0,-6 a 2,2 0 0 0 -2,-2 2,2 0 0 0 2,-2 l 0,-6 a 2,2 0 0 0 -2,-2 2,2 0 0 0 2,-2 l 0,-6 a 2,2 0 0 0 -2,-2 l -3,-5 3,5 a 2,2 0 0 0 2,-2 l 0,-6 a 2,2 0 0 0 -2,-2 2,2 0 0 0 2,-2 l 0,-6 a 2,2 0 0 0 -2,-2 2,2 0 0 0 2,-2 L 15,7 A 2,2 0 0 0 13,5 2,2 0 0 0 15,3 l 0,-6 A 2,2 0 0 0 13,-5 L 7,-5 A 2,2 0 0 0 5,-3 L 0,0 5,-3 A 2,2 0 0 0 3,-5 l -6,0 a 2,2 0 0 0 -2,2 l 0,3"
       id="path7466"
       style="fill:#008000;stroke:#000000;stroke-width:0.5" />
    <circle
       cx="13"
       cy="30"
       r="1"
       id="circle7468"
       d="m 14,30 c 0,0.552285 -0.447715,1 -1,1 -0.552285,0 -1,-0.447715 -1,-1 0,-0.552285 0.447715,-1 1,-1 0.552285,0 1,0.447715 1,1 z"
       sodipodi:cx="13"
       sodipodi:cy="30"
       sodipodi:rx="1"
       sodipodi:ry="1"
       style="fill:#000000" />
    <text
       x="10"
       y="13"
       style="font-size:8px;text-anchor:middle"
       font-size="8"
       id="text7470">H</text>
    <circle
       cx="13"
       cy="70"
       r="1"
       id="circle7472"
       d="m 14,70 c 0,0.552285 -0.447715,1 -1,1 -0.552285,0 -1,-0.447715 -1,-1 0,-0.552285 0.447715,-1 1,-1 0.552285,0 1,0.447715 1,1 z"
       sodipodi:cx="13"
       sodipodi:cy="70"
       sodipodi:rx="1"
       sodipodi:ry="1"
       style="fill:#000000" />
    <text
       x="10"
       y="53"
       style="font-size:8px;text-anchor:middle"
       font-size="8"
       id="text7474">O</text>
    <circle
       cx="40"
       cy="87"
       r="1"
       id="circle7476"
       d="m 41,87 c 0,0.552285 -0.447715,1 -1,1 -0.552285,0 -1,-0.447715 -1,-1 0,-0.552285 0.447715,-1 1,-1 0.552285,0 1,0.447715 1,1 z"
       sodipodi:cx="40"
       sodipodi:cy="87"
       sodipodi:rx="1"
       sodipodi:ry="1"
       style="fill:#000000" />
    <text
       x="20"
       y="93"
       style="font-size:8px;text-anchor:middle"
       font-size="8"
       id="text7478">W</text>
  </g>
  <g
     transform="translate(652.19718,683.49287)"
     id="g7480">
    <path
       d="m -5,0 0,3 a 2,2 0 0 0 2,2 L 3,5 A 2,2 0 0 0 5,3 L 0,0 5,3 a 2,2 0 0 0 2,2 l 6,0 a 2,2 0 0 0 2,-2 l 0,-6 a 2,2 0 0 0 -2,-2 2,2 0 0 0 2,-2 l 0,-6 a 2,2 0 0 0 -2,-2 2,2 0 0 0 2,-2 l 0,-6 a 2,2 0 0 0 -2,-2 l -3,5 3,-5 a 2,2 0 0 0 2,-2 l 0,-6 a 2,2 0 0 0 -2,-2 2,2 0 0 0 2,-2 l 0,-6 a 2,2 0 0 0 -2,-2 2,2 0 0 0 2,-2 l 0,-6 a 2,2 0 0 0 -2,-2 l -6,0 a 2,2 0 0 0 -2,2 l 5,3 -5,-3 a 2,2 0 0 0 -2,-2 2,2 0 0 0 2,-2 l 0,-6 a 2,2 0 0 0 -2,-2 2,2 0 0 0 2,-2 l 0,-6 a 2,2 0 0 0 -2,-2 l -6,0 a 2,2 0 0 0 -2,2 l 5,3 -5,-3 a 2,2 0 0 0 -2,-2 2,2 0 0 0 2,-2 l 0,-6 a 2,2 0 0 0 -2,-2 l -6,0 a 2,2 0 0 0 -2,2 2,2 0 0 0 -2,-2 2,2 0 0 0 2,-2 l 0,-6 a 2,2 0 0 0 -2,-2 2,2 0 0 0 2,-2 l 0,-6 a 2,2 0 0 0 -2,-2 l -3,5 3,-5 a 2,2 0 0 0 2,-2 l 0,-6 a 2,2 0 0 0 -2,-2 2,2 0 0 0 2,-2 l 0,-6 a 2,2 0 0 0 -2,-2 l -6,0 a 2,2 0 0 0 -2,2 2,2 0 0 0 -2,-2 l -6,0 a 2,2 0 0 0 -2,2 2,2 0 0 0 -2,-2 l -3,5 3,-5 a 2,2 0 0 0 2,-2 l 0,-6 a 2,2 0 0 0 -2,-2 l -6,0 a 2,2 0 0 0 -2,2 2,2 0 0 0 -2,-2 l -6,0 a 2,2 0 0 0 -2,2 2,2 0 0 0 -2,-2 l -6,0 a 2,2 0 0 0 -2,2 2,2 0 0 0 -2,-2 2,2 0 0 0 2,-2 l 0,-6 a 2,2 0 0 0 -2,-2 l -6,0 a 2,2 0 0 0 -2,2 l 5,3 -5,-3 a 2,2 0 0 0 -2,-2 l -6,0 a 2,2 0 0 0 -2,2 2,2 0 0 0 -2,-2 l -6,0 a 2,2 0 0 0 -2,2 2,2 0 0 0 -2,-2 l -6,0 a 2,2 0 0 0 -2,2 l 5,3 -5,-3 5,3 -5,3 5,-3 -5,3 a 2,2 0 0 0 2,2 l 6,0 a 2,2 0 0 0 2,-2 2,2 0 0 0 2,2 l 6,0 a 2,2 0 0 0 2,-2 2,2 0 0 0 2,2 l 6,0 a 2,2 0 0 0 2,-2 l 5,-3 -5,3 a 2,2 0 0 0 2,2 2,2 0 0 0 -2,2 l 0,6 a 2,2 0 0 0 2,2 l 6,0 a 2,2 0 0 0 2,-2 2,2 0 0 0 2,2 l 6,0 a 2,2 0 0 0 2,-2 2,2 0 0 0 2,2 l 6,0 a 2,2 0 0 0 2,-2 2,2 0 0 0 2,2 l 3,5 -3,-5 a 2,2 0 0 0 -2,2 l 0,6 a 2,2 0 0 0 2,2 l 6,0 a 2,2 0 0 0 2,-2 2,2 0 0 0 2,2 l 6,0 a 2,2 0 0 0 2,-2 2,2 0 0 0 2,2 2,2 0 0 0 -2,2 l 0,6 a 2,2 0 0 0 2,2 l 3,5 -3,-5 a 2,2 0 0 0 -2,2 l 0,6 a 2,2 0 0 0 2,2 2,2 0 0 0 -2,2 l 0,6 a 2,2 0 0 0 2,2 2,2 0 0 0 -2,2 l 0,6 a 2,2 0 0 0 2,2 l 6,0 a 2,2 0 0 0 2,-2 2,2 0 0 0 2,2 2,2 0 0 0 -2,2 l 0,6 a 2,2 0 0 0 2,2 l 6,0 a 2,2 0 0 0 2,-2 l 5,-3 -5,3 a 2,2 0 0 0 2,2 2,2 0 0 0 -2,2 l 0,6 a 2,2 0 0 0 2,2 2,2 0 0 0 -2,2 l 0,6 a 2,2 0 0 0 2,2 l 6,0 a 2,2 0 0 0 2,-2 l 5,-3 -5,3 a 2,2 0 0 0 2,2 2,2 0 0 0 -2,2 l 0,6 a 2,2 0 0 0 2,2 2,2 0 0 0 -2,2 l 0,6 a 2,2 0 0 0 2,2 l 3,5 -3,-5 a 2,2 0 0 0 -2,2 l 0,6 a 2,2 0 0 0 2,2 2,2 0 0 0 -2,2 l 0,6 a 2,2 0 0 0 2,2 2,2 0 0 0 -2,2 L 0,0 5,-3 A 2,2 0 0 0 3,-5 l -6,0 a 2,2 0 0 0 -2,2 l 0,3"
       id="path7482"
       style="fill:#008000;stroke:#000000;stroke-width:0.5" />
    <circle
       cx="7"
       cy="-20"
       r="1"
       id="circle7484"
       d="m 8,-20 c 0,0.552285 -0.4477153,1 -1,1 -0.5522847,0 -1,-0.447715 -1,-1 0,-0.552285 0.4477153,-1 1,-1 0.5522847,0 1,0.447715 1,1 z"
       sodipodi:cx="7"
       sodipodi:cy="-20"
       sodipodi:rx="1"
       sodipodi:ry="1"
       style="fill:#000000" />
    <text
       x="10"
       y="-7"
       style="font-size:8px;text-anchor:middle"
       font-size="8"
       id="text7486">Q</text>
    <circle
       cx="10"
       cy="-47"
       r="1"
       id="circle7488"
       d="m 11,-47 c 0,0.552285 -0.447715,1 -1,1 -0.5522847,0 -1,-0.447715 -1,-1 0,-0.552285 0.4477153,-1 1,-1 0.552285,0 1,0.447715 1,1 z"
       sodipodi:cx="10"
       sodipodi:cy="-47"
       sodipodi:rx="1"
       sodipodi:ry="1"
       style="fill:#000000" />
    <text
       x="10"
       y="-37"
       style="font-size:8px;text-anchor:middle"
       font-size="8"
       id="text7490">U</text>
    <circle
       cx="0"
       cy="-67"
       r="1"
       id="circle7492"
       d="m 1,-67 c 0,0.552285 -0.44771525,1 -1,1 -0.55228475,0 -1,-0.447715 -1,-1 0,-0.552285 0.44771525,-1 1,-1 0.55228475,0 1,0.447715 1,1 z"
       sodipodi:cx="0"
       sodipodi:cy="-67"
       sodipodi:rx="1"
       sodipodi:ry="1"
       style="fill:#000000" />
    <text
       x="0"
       y="-57"
       style="font-size:8px;text-anchor:middle"
       font-size="8"
       id="text7494">I</text>
    <circle
       cx="-23"
       cy="-100"
       r="1"
       id="circle7496"
       d="m -22,-100 c 0,0.552285 -0.447715,1 -1,1 -0.552285,0 -1,-0.447715 -1,-1 0,-0.55228 0.447715,-1 1,-1 0.552285,0 1,0.44772 1,1 z"
       sodipodi:cx="-23"
       sodipodi:cy="-100"
       sodipodi:rx="1"
       sodipodi:ry="1"
       style="fill:#000000" />
    <text
       x="-20"
       y="-77"
       style="font-size:8px;text-anchor:middle"
       font-size="8"
       id="text7498">C</text>
    <circle
       cx="-43"
       cy="-120"
       r="1"
       id="circle7500"
       d="m -42,-120 c 0,0.55228 -0.447715,1 -1,1 -0.552285,0 -1,-0.44772 -1,-1 0,-0.55228 0.447715,-1 1,-1 0.552285,0 1,0.44772 1,1 z"
       sodipodi:cx="-43"
       sodipodi:cy="-120"
       sodipodi:rx="1"
       sodipodi:ry="1"
       style="fill:#000000" />
    <text
       x="-20"
       y="-117"
       style="font-size:8px;text-anchor:middle"
       font-size="8"
       id="text7502">K</text>
    <circle
       cx="-70"
       cy="-137"
       r="1"
       id="circle7504"
       d="m -69,-137 c 0,0.55228 -0.447715,1 -1,1 -0.552285,0 -1,-0.44772 -1,-1 0,-0.55228 0.447715,-1 1,-1 0.552285,0 1,0.44772 1,1 z"
       sodipodi:cx="-70"
       sodipodi:cy="-137"
       sodipodi:rx="1"
       sodipodi:ry="1"
       style="fill:#000000" />
    <text
       x="-60"
       y="-127"
       style="font-size:8px;text-anchor:middle"
       font-size="8"
       id="text7506">L</text>
    <circle
       cx="-100"
       cy="-137"
       r="1"
       id="circle7508"
       d="m -99,-137 c 0,0.55228 -0.447715,1 -1,1 -0.55228,0 -1,-0.44772 -1,-1 0,-0.55228 0.44772,-1 1,-1 0.552285,0 1,0.44772 1,1 z"
       sodipodi:cx="-100"
       sodipodi:cy="-137"
       sodipodi:rx="1"
       sodipodi:ry="1"
       style="fill:#000000" />
    <text
       x="-90"
       y="-137"
       style="font-size:8px;text-anchor:middle"
       font-size="8"
       id="text7510">Y</text>
  </g>
  <g
     transform="translate(687.45511,622.32368)"
     id="g7512">
    <path
       d="m -5,0 0,3 a 2,2 0 0 0 2,2 L 3,5 A 2,2 0 0 0 5,3 L 0,0 5,3 a 2,2 0 0 0 2,2 l 6,0 a 2,2 0 0 0 2,-2 2,2 0 0 0 2,2 l 6,0 a 2,2 0 0 0 2,-2 2,2 0 0 0 2,2 l 6,0 a 2,2 0 0 0 2,-2 2,2 0 0 0 2,2 l 6,0 a 2,2 0 0 0 2,-2 2,2 0 0 0 2,2 l 3,-5 -3,5 a 2,2 0 0 0 -2,2 l 0,6 a 2,2 0 0 0 2,2 2,2 0 0 0 -2,2 2,2 0 0 0 -2,-2 l -6,0 a 2,2 0 0 0 -2,2 l 0,6 a 2,2 0 0 0 2,2 2,2 0 0 0 -2,2 l 0,6 a 2,2 0 0 0 2,2 2,2 0 0 0 -2,2 l 0,6 a 2,2 0 0 0 2,2 l 3,-5 -3,5 a 2,2 0 0 0 -2,2 l 0,6 a 2,2 0 0 0 2,2 2,2 0 0 0 -2,2 l 0,6 a 2,2 0 0 0 2,2 l 6,0 a 2,2 0 0 0 2,-2 2,2 0 0 0 2,2 l 6,0 a 2,2 0 0 0 2,-2 2,2 0 0 0 2,2 l 6,0 a 2,2 0 0 0 2,-2 l -5,-3 5,3 a 2,2 0 0 0 2,2 l 6,0 a 2,2 0 0 0 2,-2 2,2 0 0 0 2,2 l 6,0 a 2,2 0 0 0 2,-2 2,2 0 0 0 2,2 l 3,-5 -3,5 3,-5 3,5 -3,-5 3,5 a 2,2 0 0 0 2,-2 l 0,-6 a 2,2 0 0 0 -2,-2 l -6,0 a 2,2 0 0 0 -2,2 2,2 0 0 0 -2,-2 l -6,0 a 2,2 0 0 0 -2,2 2,2 0 0 0 -2,-2 l -6,0 a 2,2 0 0 0 -2,2 l -5,3 5,-3 a 2,2 0 0 0 -2,-2 l -6,0 a 2,2 0 0 0 -2,2 2,2 0 0 0 -2,-2 l -6,0 a 2,2 0 0 0 -2,2 2,2 0 0 0 -2,-2 2,2 0 0 0 2,-2 l 0,-6 a 2,2 0 0 0 -2,-2 l -3,-5 3,5 a 2,2 0 0 0 2,-2 l 0,-6 a 2,2 0 0 0 -2,-2 2,2 0 0 0 2,-2 l 0,-6 a 2,2 0 0 0 -2,-2 2,2 0 0 0 2,-2 2,2 0 0 0 2,2 l 6,0 a 2,2 0 0 0 2,-2 l 0,-6 a 2,2 0 0 0 -2,-2 2,2 0 0 0 2,-2 L 55,7 A 2,2 0 0 0 53,5 l -3,-5 3,5 a 2,2 0 0 0 2,-2 l 0,-6 a 2,2 0 0 0 -2,-2 l -6,0 a 2,2 0 0 0 -2,2 2,2 0 0 0 -2,-2 l -6,0 a 2,2 0 0 0 -2,2 2,2 0 0 0 -2,-2 l -6,0 a 2,2 0 0 0 -2,2 2,2 0 0 0 -2,-2 l -6,0 a 2,2 0 0 0 -2,2 2,2 0 0 0 -2,-2 L 7,-5 A 2,2 0 0 0 5,-3 L 0,0 5,-3 A 2,2 0 0 0 3,-5 l -6,0 a 2,2 0 0 0 -2,2 l 0,3"
       id="path7514"
       style="fill:#008000;stroke:#000000;stroke-width:0.5" />
    <circle
       cx="53"
       cy="0"
       r="1"
       id="circle7516"
       d="m 54,0 c 0,0.55228475 -0.447715,1 -1,1 -0.552285,0 -1,-0.44771525 -1,-1 0,-0.55228475 0.447715,-1 1,-1 0.552285,0 1,0.44771525 1,1 z"
       sodipodi:cx="53"
       sodipodi:cy="0"
       sodipodi:rx="1"
       sodipodi:ry="1"
       style="fill:#000000" />
    <text
       x="30"
       y="3"
       style="font-size:8px;text-anchor:middle"
       font-size="8"
       id="text7518">D</text>
    <circle
       cx="43"
       cy="40"
       r="1"
       id="circle7520"
       d="m 44,40 c 0,0.552285 -0.447715,1 -1,1 -0.552285,0 -1,-0.447715 -1,-1 0,-0.552285 0.447715,-1 1,-1 0.552285,0 1,0.447715 1,1 z"
       sodipodi:cx="43"
       sodipodi:cy="40"
       sodipodi:rx="1"
       sodipodi:ry="1"
       style="fill:#000000" />
    <text
       x="40"
       y="23"
       style="font-size:8px;text-anchor:middle"
       font-size="8"
       id="text7522">A</text>
    <circle
       cx="60"
       cy="57"
       r="1"
       id="circle7524"
       d="m 61,57 c 0,0.552285 -0.447715,1 -1,1 -0.552285,0 -1,-0.447715 -1,-1 0,-0.552285 0.447715,-1 1,-1 0.552285,0 1,0.447715 1,1 z"
       sodipodi:cx="60"
       sodipodi:cy="57"
       sodipodi:rx="1"
       sodipodi:ry="1"
       style="fill:#000000" />
    <text
       x="40"
       y="63"
       style="font-size:8px;text-anchor:middle"
       font-size="8"
       id="text7526">F</text>
    <circle
       cx="93"
       cy="60"
       r="1"
       id="circle7528"
       d="m 94,60 c 0,0.552285 -0.447715,1 -1,1 -0.552285,0 -1,-0.447715 -1,-1 0,-0.552285 0.447715,-1 1,-1 0.552285,0 1,0.447715 1,1 z"
       sodipodi:cx="93"
       sodipodi:cy="60"
       sodipodi:rx="1"
       sodipodi:ry="1"
       style="fill:#000000" />
    <text
       x="80"
       y="63"
       style="font-size:8px;text-anchor:middle"
       font-size="8"
       id="text7530">T</text>
  </g>
  <g
     transform="translate(796.17112,682.65558)"
     id="g7532">
    <path
       d="m -5,0 0,3 a 2,2 0 0 0 2,2 L 3,5 A 2,2 0 0 0 5,3 L 0,0 5,3 a 2,2 0 0 0 2,2 l 6,0 a 2,2 0 0 0 2,-2 2,2 0 0 0 2,2 l 6,0 a 2,2 0 0 0 2,-2 l 0,-6 a 2,2 0 0 0 -2,-2 2,2 0 0 0 2,-2 l 0,-6 a 2,2 0 0 0 -2,-2 2,2 0 0 0 2,-2 2,2 0 0 0 2,2 l 6,0 a 2,2 0 0 0 2,-2 l 0,-6 a 2,2 0 0 0 -2,-2 l -3,5 3,-5 a 2,2 0 0 0 2,-2 l 0,-6 a 2,2 0 0 0 -2,-2 2,2 0 0 0 2,-2 l 0,-6 a 2,2 0 0 0 -2,-2 2,2 0 0 0 2,-2 l 0,-6 a 2,2 0 0 0 -2,-2 l -6,0 a 2,2 0 0 0 -2,2 l 5,3 -5,-3 a 2,2 0 0 0 -2,-2 2,2 0 0 0 2,-2 l 0,-6 a 2,2 0 0 0 -2,-2 l -6,0 a 2,2 0 0 0 -2,2 2,2 0 0 0 -2,-2 l -3,5 3,-5 a 2,2 0 0 0 2,-2 l 0,-6 a 2,2 0 0 0 -2,-2 2,2 0 0 0 2,-2 2,2 0 0 0 2,2 l 6,0 a 2,2 0 0 0 2,-2 l -5,-3 5,3 a 2,2 0 0 0 2,2 2,2 0 0 0 -2,2 l 0,6 a 2,2 0 0 0 2,2 2,2 0 0 0 -2,2 l 0,6 a 2,2 0 0 0 2,2 l 6,0 a 2,2 0 0 0 2,-2 l -5,-3 5,3 a 2,2 0 0 0 2,2 l 6,0 a 2,2 0 0 0 2,-2 l 0,-6 a 2,2 0 0 0 -2,-2 2,2 0 0 0 2,-2 2,2 0 0 0 2,2 l 6,0 a 2,2 0 0 0 2,-2 l -5,-3 5,3 a 2,2 0 0 0 2,2 l 6,0 a 2,2 0 0 0 2,-2 l 0,-6 a 2,2 0 0 0 -2,-2 2,2 0 0 0 2,-2 2,2 0 0 0 2,2 l 6,0 a 2,2 0 0 0 2,-2 l 0,-6 a 2,2 0 0 0 -2,-2 2,2 0 0 0 2,-2 l 0,-6 a 2,2 0 0 0 -2,-2 2,2 0 0 0 2,-2 l 0,-6 a 2,2 0 0 0 -2,-2 l -6,0 a 2,2 0 0 0 -2,2 l 5,3 -5,-3 5,3 -5,3 5,-3 -5,3 a 2,2 0 0 0 2,2 2,2 0 0 0 -2,2 l 0,6 a 2,2 0 0 0 2,2 2,2 0 0 0 -2,2 2,2 0 0 0 -2,-2 l -6,0 a 2,2 0 0 0 -2,2 l 0,6 a 2,2 0 0 0 2,2 2,2 0 0 0 -2,2 l -5,3 5,-3 a 2,2 0 0 0 -2,-2 l -6,0 a 2,2 0 0 0 -2,2 2,2 0 0 0 -2,-2 l -6,0 a 2,2 0 0 0 -2,2 l 0,6 a 2,2 0 0 0 2,2 2,2 0 0 0 -2,2 l -5,3 5,-3 a 2,2 0 0 0 -2,-2 2,2 0 0 0 2,-2 l 0,-6 a 2,2 0 0 0 -2,-2 2,2 0 0 0 2,-2 l 0,-6 a 2,2 0 0 0 -2,-2 l -6,0 a 2,2 0 0 0 -2,2 l -5,3 5,-3 a 2,2 0 0 0 -2,-2 l -6,0 a 2,2 0 0 0 -2,2 2,2 0 0 0 -2,-2 l -6,0 a 2,2 0 0 0 -2,2 l 0,6 a 2,2 0 0 0 2,2 2,2 0 0 0 -2,2 l 0,6 a 2,2 0 0 0 2,2 l 3,5 -3,-5 a 2,2 0 0 0 -2,2 l 0,6 a 2,2 0 0 0 2,2 l 6,0 a 2,2 0 0 0 2,-2 2,2 0 0 0 2,2 2,2 0 0 0 -2,2 l 0,6 a 2,2 0 0 0 2,2 l 6,0 a 2,2 0 0 0 2,-2 l 5,-3 -5,3 a 2,2 0 0 0 2,2 2,2 0 0 0 -2,2 l 0,6 a 2,2 0 0 0 2,2 2,2 0 0 0 -2,2 l 0,6 a 2,2 0 0 0 2,2 l 3,5 -3,-5 a 2,2 0 0 0 -2,2 2,2 0 0 0 -2,-2 l -6,0 a 2,2 0 0 0 -2,2 l 0,6 a 2,2 0 0 0 2,2 2,2 0 0 0 -2,2 l 0,6 a 2,2 0 0 0 2,2 2,2 0 0 0 -2,2 2,2 0 0 0 -2,-2 L 7,-5 A 2,2 0 0 0 5,-3 L 0,0 5,-3 A 2,2 0 0 0 3,-5 l -6,0 a 2,2 0 0 0 -2,2 l 0,3"
       id="path7534"
       style="fill:#008000;stroke:#000000;stroke-width:0.5" />
    <circle
       cx="27"
       cy="-20"
       r="1"
       id="circle7536"
       d="m 28,-20 c 0,0.552285 -0.447715,1 -1,1 -0.552285,0 -1,-0.447715 -1,-1 0,-0.552285 0.447715,-1 1,-1 0.552285,0 1,0.447715 1,1 z"
       sodipodi:cx="27"
       sodipodi:cy="-20"
       sodipodi:rx="1"
       sodipodi:ry="1"
       style="fill:#000000" />
    <text
       x="20"
       y="-7"
       style="font-size:8px;text-anchor:middle"
       font-size="8"
       id="text7538">J</text>
    <circle
       cx="30"
       cy="-47"
       r="1"
       id="circle7540"
       d="m 31,-47 c 0,0.552285 -0.447715,1 -1,1 -0.552285,0 -1,-0.447715 -1,-1 0,-0.552285 0.447715,-1 1,-1 0.552285,0 1,0.447715 1,1 z"
       sodipodi:cx="30"
       sodipodi:cy="-47"
       sodipodi:rx="1"
       sodipodi:ry="1"
       style="fill:#000000" />
    <text
       x="30"
       y="-37"
       style="font-size:8px;text-anchor:middle"
       font-size="8"
       id="text7542">U</text>
    <circle
       cx="7"
       cy="-60"
       r="1"
       id="circle7544"
       d="m 8,-60 c 0,0.552285 -0.4477153,1 -1,1 -0.5522847,0 -1,-0.447715 -1,-1 0,-0.552285 0.4477153,-1 1,-1 0.5522847,0 1,0.447715 1,1 z"
       sodipodi:cx="7"
       sodipodi:cy="-60"
       sodipodi:rx="1"
       sodipodi:ry="1"
       style="fill:#000000" />
    <text
       x="20"
       y="-57"
       style="font-size:8px;text-anchor:middle"
       font-size="8"
       id="text7546">M</text>
    <circle
       cx="20"
       cy="-83"
       r="1"
       id="circle7548"
       d="m 21,-83 c 0,0.552285 -0.447715,1 -1,1 -0.552285,0 -1,-0.447715 -1,-1 0,-0.552285 0.447715,-1 1,-1 0.552285,0 1,0.447715 1,1 z"
       sodipodi:cx="20"
       sodipodi:cy="-83"
       sodipodi:rx="1"
       sodipodi:ry="1"
       style="fill:#000000" />
    <text
       x="10"
       y="-77"
       style="font-size:8px;text-anchor:middle"
       font-size="8"
       id="text7550">P</text>
    <circle
       cx="30"
       cy="-63"
       r="1"
       id="circle7552"
       d="m 31,-63 c 0,0.552285 -0.447715,1 -1,1 -0.552285,0 -1,-0.447715 -1,-1 0,-0.552285 0.447715,-1 1,-1 0.552285,0 1,0.447715 1,1 z"
       sodipodi:cx="30"
       sodipodi:cy="-63"
       sodipodi:rx="1"
       sodipodi:ry="1"
       style="fill:#000000" />
    <text
       x="30"
       y="-67"
       style="font-size:8px;text-anchor:middle"
       font-size="8"
       id="text7554">I</text>
    <circle
       cx="50"
       cy="-73"
       r="1"
       id="circle7556"
       d="m 51,-73 c 0,0.552285 -0.447715,1 -1,1 -0.552285,0 -1,-0.447715 -1,-1 0,-0.552285 0.447715,-1 1,-1 0.552285,0 1,0.447715 1,1 z"
       sodipodi:cx="50"
       sodipodi:cy="-73"
       sodipodi:rx="1"
       sodipodi:ry="1"
       style="fill:#000000" />
    <text
       x="40"
       y="-67"
       style="font-size:8px;text-anchor:middle"
       font-size="8"
       id="text7558">N</text>
    <circle
       cx="70"
       cy="-97"
       r="1"
       id="circle7560"
       d="m 71,-97 c 0,0.552285 -0.447715,1 -1,1 -0.552285,0 -1,-0.447715 -1,-1 0,-0.552285 0.447715,-1 1,-1 0.552285,0 1,0.447715 1,1 z"
       sodipodi:cx="70"
       sodipodi:cy="-97"
       sodipodi:rx="1"
       sodipodi:ry="1"
       style="fill:#000000" />
    <text
       x="70"
       y="-77"
       style="font-size:8px;text-anchor:middle"
       font-size="8"
       id="text7562">G</text>
  </g>
  <g
     transform="translate(893.50723,603.08972)"
     id="g7564">
    <path
       d="m -5,0 0,3 a 2,2 0 0 0 2,2 L 3,5 A 2,2 0 0 0 5,3 L 0,0 5,3 a 2,2 0 0 0 2,2 l 6,0 a 2,2 0 0 0 2,-2 l 0,-6 a 2,2 0 0 0 -2,-2 2,2 0 0 0 2,-2 2,2 0 0 0 2,2 l 6,0 a 2,2 0 0 0 2,-2 2,2 0 0 0 2,2 2,2 0 0 0 -2,2 l 0,6 a 2,2 0 0 0 2,2 l 3,-5 -3,5 a 2,2 0 0 0 -2,2 l 0,6 a 2,2 0 0 0 2,2 2,2 0 0 0 -2,2 l 0,6 a 2,2 0 0 0 2,2 l 6,0 a 2,2 0 0 0 2,-2 2,2 0 0 0 2,2 l 3,-5 -3,5 a 2,2 0 0 0 -2,2 2,2 0 0 0 -2,-2 l -6,0 a 2,2 0 0 0 -2,2 2,2 0 0 0 -2,-2 l -6,0 a 2,2 0 0 0 -2,2 l 0,6 a 2,2 0 0 0 2,2 2,2 0 0 0 -2,2 2,2 0 0 0 -2,-2 l -6,0 a 2,2 0 0 0 -2,2 l 5,3 -5,-3 A 2,2 0 0 0 3,35 l -6,0 a 2,2 0 0 0 -2,2 l 0,6 a 2,2 0 0 0 2,2 2,2 0 0 0 -2,2 l 0,6 a 2,2 0 0 0 2,2 2,2 0 0 0 -2,2 l 0,6 a 2,2 0 0 0 2,2 l 6,0 a 2,2 0 0 0 2,-2 2,2 0 0 0 2,2 l 6,0 a 2,2 0 0 0 2,-2 2,2 0 0 0 2,2 l 6,0 a 2,2 0 0 0 2,-2 l -5,-3 5,3 a 2,2 0 0 0 2,2 l 6,0 a 2,2 0 0 0 2,-2 2,2 0 0 0 2,2 2,2 0 0 0 -2,2 l 0,6 a 2,2 0 0 0 2,2 l 6,0 a 2,2 0 0 0 2,-2 2,2 0 0 0 2,2 l 6,0 a 2,2 0 0 0 2,-2 2,2 0 0 0 2,2 l 6,0 a 2,2 0 0 0 2,-2 l -5,-3 5,3 a 2,2 0 0 0 2,2 l 6,0 a 2,2 0 0 0 2,-2 2,2 0 0 0 2,2 2,2 0 0 0 -2,2 l 0,6 a 2,2 0 0 0 2,2 l 6,0 a 2,2 0 0 0 2,-2 2,2 0 0 0 2,2 l 6,0 a 2,2 0 0 0 2,-2 l -5,-3 5,3 -5,-3 5,-3 -5,3 5,-3 a 2,2 0 0 0 -2,-2 l -6,0 a 2,2 0 0 0 -2,2 2,2 0 0 0 -2,-2 2,2 0 0 0 2,-2 l 0,-6 a 2,2 0 0 0 -2,-2 l -6,0 a 2,2 0 0 0 -2,2 2,2 0 0 0 -2,-2 l -6,0 a 2,2 0 0 0 -2,2 l -5,3 5,-3 a 2,2 0 0 0 -2,-2 l -6,0 a 2,2 0 0 0 -2,2 2,2 0 0 0 -2,-2 l -6,0 a 2,2 0 0 0 -2,2 2,2 0 0 0 -2,-2 2,2 0 0 0 2,-2 l 0,-6 a 2,2 0 0 0 -2,-2 l -6,0 a 2,2 0 0 0 -2,2 2,2 0 0 0 -2,-2 l -6,0 a 2,2 0 0 0 -2,2 l -5,3 5,-3 a 2,2 0 0 0 -2,-2 l -6,0 a 2,2 0 0 0 -2,2 2,2 0 0 0 -2,-2 L 7,55 A 2,2 0 0 0 5,57 2,2 0 0 0 3,55 2,2 0 0 0 5,53 L 5,47 A 2,2 0 0 0 3,45 2,2 0 0 0 5,43 l 5,-3 -5,3 a 2,2 0 0 0 2,2 l 6,0 a 2,2 0 0 0 2,-2 2,2 0 0 0 2,2 l 6,0 a 2,2 0 0 0 2,-2 l 0,-6 a 2,2 0 0 0 -2,-2 2,2 0 0 0 2,-2 2,2 0 0 0 2,2 l 6,0 a 2,2 0 0 0 2,-2 2,2 0 0 0 2,2 l 6,0 a 2,2 0 0 0 2,-2 l 0,-6 a 2,2 0 0 0 -2,-2 l -3,-5 3,5 a 2,2 0 0 0 2,-2 l 0,-6 a 2,2 0 0 0 -2,-2 l -6,0 a 2,2 0 0 0 -2,2 2,2 0 0 0 -2,-2 2,2 0 0 0 2,-2 L 35,7 A 2,2 0 0 0 33,5 l -3,-5 3,5 a 2,2 0 0 0 2,-2 l 0,-6 a 2,2 0 0 0 -2,-2 2,2 0 0 0 2,-2 l 0,-6 a 2,2 0 0 0 -2,-2 l -6,0 a 2,2 0 0 0 -2,2 2,2 0 0 0 -2,-2 l -6,0 a 2,2 0 0 0 -2,2 2,2 0 0 0 -2,-2 l -6,0 a 2,2 0 0 0 -2,2 l 0,6 a 2,2 0 0 0 2,2 2,2 0 0 0 -2,2 L 0,0 5,-3 A 2,2 0 0 0 3,-5 l -6,0 a 2,2 0 0 0 -2,2 l 0,3"
       id="path7566"
       style="fill:#008000;stroke:#000000;stroke-width:0.5" />
    <circle
       cx="33"
       cy="0"
       r="1"
       id="circle7568"
       d="m 34,0 c 0,0.55228475 -0.447715,1 -1,1 -0.552285,0 -1,-0.44771525 -1,-1 0,-0.55228475 0.447715,-1 1,-1 0.552285,0 1,0.44771525 1,1 z"
       sodipodi:cx="33"
       sodipodi:cy="0"
       sodipodi:rx="1"
       sodipodi:ry="1"
       style="fill:#000000" />
    <text
       x="20"
       y="-7"
       style="font-size:8px;text-anchor:middle"
       font-size="8"
       id="text7570">Z</text>
    <circle
       cx="43"
       cy="20"
       r="1"
       id="circle7572"
       d="m 44,20 c 0,0.552285 -0.447715,1 -1,1 -0.552285,0 -1,-0.447715 -1,-1 0,-0.552285 0.447715,-1 1,-1 0.552285,0 1,0.447715 1,1 z"
       sodipodi:cx="43"
       sodipodi:cy="20"
       sodipodi:rx="1"
       sodipodi:ry="1"
       style="fill:#000000" />
    <text
       x="30"
       y="23"
       style="font-size:8px;text-anchor:middle"
       font-size="8"
       id="text7574">E</text>
    <circle
       cx="10"
       cy="43"
       r="1"
       id="circle7576"
       d="m 11,43 c 0,0.552285 -0.447715,1 -1,1 -0.5522847,0 -1,-0.447715 -1,-1 0,-0.552285 0.4477153,-1 1,-1 0.552285,0 1,0.447715 1,1 z"
       sodipodi:cx="10"
       sodipodi:cy="43"
       sodipodi:rx="1"
       sodipodi:ry="1"
       style="fill:#000000" />
    <text
       x="20"
       y="33"
       style="font-size:8px;text-anchor:middle"
       font-size="8"
       id="text7578">B</text>
    <circle
       cx="20"
       cy="57"
       r="1"
       id="circle7580"
       d="m 21,57 c 0,0.552285 -0.447715,1 -1,1 -0.552285,0 -1,-0.447715 -1,-1 0,-0.552285 0.447715,-1 1,-1 0.552285,0 1,0.447715 1,1 z"
       sodipodi:cx="20"
       sodipodi:cy="57"
       sodipodi:rx="1"
       sodipodi:ry="1"
       style="fill:#000000" />
    <text
       x="0"
       y="63"
       style="font-size:8px;text-anchor:middle"
       font-size="8"
       id="text7582">R</text>
    <circle
       cx="60"
       cy="67"
       r="1"
       id="circle7584"
       d="m 61,67 c 0,0.552285 -0.447715,1 -1,1 -0.552285,0 -1,-0.447715 -1,-1 0,-0.552285 0.447715,-1 1,-1 0.552285,0 1,0.447715 1,1 z"
       sodipodi:cx="60"
       sodipodi:cy="67"
       sodipodi:rx="1"
       sodipodi:ry="1"
       style="fill:#000000" />
    <text
       x="40"
       y="73"
       style="font-size:8px;text-anchor:middle"
       font-size="8"
       id="text7586">A</text>
    <circle
       cx="90"
       cy="77"
       r="1"
       id="circle7588"
       d="m 91,77 c 0,0.552285 -0.447715,1 -1,1 -0.552285,0 -1,-0.447715 -1,-1 0,-0.552285 0.447715,-1 1,-1 0.552285,0 1,0.447715 1,1 z"
       sodipodi:cx="90"
       sodipodi:cy="77"
       sodipodi:rx="1"
       sodipodi:ry="1"
       style="fill:#000000" />
    <text
       x="80"
       y="73"
       style="font-size:8px;text-anchor:middle"
       font-size="8"
       id="text7590">S</text>
  </g>
  <g
     transform="translate(1050.0718,635.01994)"
     id="g7592">
    <path
       d="m -5,0 0,3 a 2,2 0 0 0 2,2 L 3,5 A 2,2 0 0 0 5,3 L 0,0 5,3 A 2,2 0 0 0 7,5 2,2 0 0 0 5,7 l 0,6 a 2,2 0 0 0 2,2 2,2 0 0 0 -2,2 2,2 0 0 0 -2,-2 l -6,0 a 2,2 0 0 0 -2,2 2,2 0 0 0 -2,-2 l -6,0 a 2,2 0 0 0 -2,2 l 5,3 -5,-3 a 2,2 0 0 0 -2,-2 l -6,0 a 2,2 0 0 0 -2,2 2,2 0 0 0 -2,-2 l -6,0 a 2,2 0 0 0 -2,2 l 0,6 a 2,2 0 0 0 2,2 2,2 0 0 0 -2,2 l 5,3 -5,-3 a 2,2 0 0 0 -2,-2 l -6,0 a 2,2 0 0 0 -2,2 l 0,6 a 2,2 0 0 0 2,2 2,2 0 0 0 -2,2 l 0,6 a 2,2 0 0 0 2,2 2,2 0 0 0 -2,2 l 0,6 a 2,2 0 0 0 2,2 l 6,0 a 2,2 0 0 0 2,-2 2,2 0 0 0 2,2 l 6,0 a 2,2 0 0 0 2,-2 l -5,-3 5,3 -5,-3 5,-3 -5,3 5,-3 a 2,2 0 0 0 -2,-2 l -6,0 a 2,2 0 0 0 -2,2 2,2 0 0 0 -2,-2 2,2 0 0 0 2,-2 l 0,-6 a 2,2 0 0 0 -2,-2 2,2 0 0 0 2,-2 l 5,-3 -5,3 a 2,2 0 0 0 2,2 l 6,0 a 2,2 0 0 0 2,-2 l 0,-6 a 2,2 0 0 0 -2,-2 2,2 0 0 0 2,-2 2,2 0 0 0 2,2 l 6,0 a 2,2 0 0 0 2,-2 l 5,-3 -5,3 a 2,2 0 0 0 2,2 l 6,0 a 2,2 0 0 0 2,-2 2,2 0 0 0 2,2 l 6,0 a 2,2 0 0 0 2,-2 2,2 0 0 0 2,2 l 6,0 a 2,2 0 0 0 2,-2 l 0,-6 a 2,2 0 0 0 -2,-2 2,2 0 0 0 2,-2 L 15,7 A 2,2 0 0 0 13,5 2,2 0 0 0 15,3 l 0,-6 A 2,2 0 0 0 13,-5 L 7,-5 A 2,2 0 0 0 5,-3 L 0,0 5,-3 A 2,2 0 0 0 3,-5 l -6,0 a 2,2 0 0 0 -2,2 l 0,3"
       id="path7594"
       style="fill:#008000;stroke:#000000;stroke-width:0.5" />
    <circle
       cx="-10"
       cy="23"
       r="1"
       id="circle7596"
       d="m -9,23 c 0,0.552285 -0.4477153,1 -1,1 -0.552285,0 -1,-0.447715 -1,-1 0,-0.552285 0.447715,-1 1,-1 0.5522847,0 1,0.447715 1,1 z"
       sodipodi:cx="-10"
       sodipodi:cy="23"
       sodipodi:rx="1"
       sodipodi:ry="1"
       style="fill:#000000" />
    <text
       x="10"
       y="23"
       style="font-size:8px;text-anchor:middle"
       font-size="8"
       id="text7598">V</text>
    <circle
       cx="-30"
       cy="33"
       r="1"
       id="circle7600"
       d="m -29,33 c 0,0.552285 -0.447715,1 -1,1 -0.552285,0 -1,-0.447715 -1,-1 0,-0.552285 0.447715,-1 1,-1 0.552285,0 1,0.447715 1,1 z"
       sodipodi:cx="-30"
       sodipodi:cy="33"
       sodipodi:rx="1"
       sodipodi:ry="1"
       style="fill:#000000" />
    <text
       x="-30"
       y="23"
       style="font-size:8px;text-anchor:middle"
       font-size="8"
       id="text7602">E</text>
    <circle
       cx="-30"
       cy="47"
       r="1"
       id="circle7604"
       d="m -29,47 c 0,0.552285 -0.447715,1 -1,1 -0.552285,0 -1,-0.447715 -1,-1 0,-0.552285 0.447715,-1 1,-1 0.552285,0 1,0.447715 1,1 z"
       sodipodi:cx="-30"
       sodipodi:cy="47"
       sodipodi:rx="1"
       sodipodi:ry="1"
       style="fill:#000000" />
    <text
       x="-40"
       y="43"
       style="font-size:8px;text-anchor:middle"
       font-size="8"
       id="text7606">X</text>
  </g>
</svg>
