<?xml version="1.0" encoding="UTF-8" standalone="no"?>
<!-- Created with Inkscape (http://www.inkscape.org/) -->

<svg
   xmlns:dc="http://purl.org/dc/elements/1.1/"
   xmlns:cc="http://creativecommons.org/ns#"
   xmlns:rdf="http://www.w3.org/1999/02/22-rdf-syntax-ns#"
   xmlns:svg="http://www.w3.org/2000/svg"
   xmlns="http://www.w3.org/2000/svg"
   xmlns:sodipodi="http://sodipodi.sourceforge.net/DTD/sodipodi-0.dtd"
   xmlns:inkscape="http://www.inkscape.org/namespaces/inkscape"
   width="792pt"
   height="612pt"
   id="svg5399"
   version="1.1"
   inkscape:version="0.47 r22583"
   sodipodi:docname="New document 5">
  <defs
     id="defs5401">
    <inkscape:perspective
       sodipodi:type="inkscape:persp3d"
       inkscape:vp_x="0 : 382.5 : 1"
       inkscape:vp_y="0 : 1000 : 0"
       inkscape:vp_z="990 : 382.5 : 1"
       inkscape:persp3d-origin="495 : 255 : 1"
       id="perspective5408" />
    <inkscape:perspective
       id="perspective5217"
       inkscape:persp3d-origin="0.5 : 0.33333333 : 1"
       inkscape:vp_z="1 : 0.5 : 1"
       inkscape:vp_y="0 : 1000 : 0"
       inkscape:vp_x="0 : 0.5 : 1"
       sodipodi:type="inkscape:persp3d" />
  </defs>
  <sodipodi:namedview
     inkscape:document-units="in"
     pagecolor="#ffffff"
     bordercolor="#666666"
     borderopacity="1.0"
     inkscape:pageopacity="0.0"
     inkscape:pageshadow="2"
     inkscape:zoom="0.43415836"
     inkscape:cx="476.28169"
     inkscape:cy="380"
     inkscape:current-layer="layer1"
     id="namedview5403"
     showgrid="false"
     inkscape:window-width="791"
     inkscape:window-height="670"
     inkscape:window-x="0"
     inkscape:window-y="26"
     inkscape:window-maximized="0" />
  <metadata
     id="metadata5405">
    <rdf:RDF>
      <cc:Work
         rdf:about="">
        <dc:format>image/svg+xml</dc:format>
        <dc:type
           rdf:resource="http://purl.org/dc/dcmitype/StillImage" />
        <dc:title></dc:title>
      </cc:Work>
    </rdf:RDF>
  </metadata>
  <g
     inkscape:label="Layer 1"
     inkscape:groupmode="layer"
     id="layer1">
    <g
       id="g6421"
       transform="translate(1.4002845,33.002987)">
      <g
         id="g3761"
         transform="matrix(3.6946837,0,0,3.6946837,132.77671,311.00398)">
        <path
           style="fill:#fefde3;stroke:#000000;stroke-width:0.5"
           id="path3763"
           d="m -5,0 0,3 a 2,2 0 0 0 2,2 L 3,5 A 2,2 0 0 0 5,3 L 0,0 5,-3 A 2,2 0 0 0 3,-5 l -6,0 a 2,2 0 0 0 -2,2 z M 0,0 -1,-1 -3,1 -4,0" />
        <path
           style="fill:#77ff88;stroke:#000000;stroke-width:0.5"
           id="path3765"
           d="m 0,0 5,3 a 2,2 0 0 0 2,2 l 6,0 a 2,2 0 0 0 2,-2 2,2 0 0 0 2,2 l 6,0 a 2,2 0 0 0 2,-2 2,2 0 0 0 2,2 L 30,0 27,5 A 2,2 0 0 0 25,7 2,2 0 0 0 23,5 L 17,5 A 2,2 0 0 0 15,7 2,2 0 0 0 13,5 L 7,5 A 2,2 0 0 0 5,7 2,2 0 0 0 3,5 L -3,5 A 2,2 0 0 0 -5,7 L 0,10 -5,7 A 2,2 0 0 0 -7,5 l -6,0 a 2,2 0 0 0 -2,2 2,2 0 0 0 -2,-2 l -6,0 a 2,2 0 0 0 -2,2 l 0,6 a 2,2 0 0 0 2,2 2,2 0 0 0 -2,2 l 5,3 -5,-3 5,3 -5,3 5,-3 -5,3 a 2,2 0 0 0 2,2 l 6,0 a 2,2 0 0 0 2,-2 l 0,-6 a 2,2 0 0 0 -2,-2 2,2 0 0 0 2,-2 2,2 0 0 0 2,2 l 6,0 a 2,2 0 0 0 2,-2 l 5,-3 -5,3 a 2,2 0 0 0 2,2 l 6,0 a 2,2 0 0 0 2,-2 2,2 0 0 0 2,2 l 6,0 a 2,2 0 0 0 2,-2 2,2 0 0 0 2,2 l 6,0 a 2,2 0 0 0 2,-2 2,2 0 0 0 2,2 l 6,0 a 2,2 0 0 0 2,-2 L 35,7 A 2,2 0 0 0 33,5 l -3,-5 3,5 a 2,2 0 0 0 2,-2 l 0,-6 a 2,2 0 0 0 -2,-2 l -6,0 a 2,2 0 0 0 -2,2 2,2 0 0 0 -2,-2 l -6,0 a 2,2 0 0 0 -2,2 2,2 0 0 0 -2,-2 L 7,-5 A 2,2 0 0 0 5,-3 L 0,0" />
        <circle
           style="fill:#000000"
           sodipodi:ry="1"
           sodipodi:rx="1"
           sodipodi:cy="0"
           sodipodi:cx="33"
           d="m 34,0 c 0,0.55228475 -0.447715,1 -1,1 -0.552285,0 -1,-0.44771525 -1,-1 0,-0.55228475 0.447715,-1 1,-1 0.552285,0 1,0.44771525 1,1 z"
           id="circle3767"
           r="1"
           cy="0"
           cx="33" />
        <text
           id="text3769"
           font-size="8"
           style="font-size:8px;text-anchor:middle"
           y="3"
           x="20">T</text>
        <circle
           style="fill:#000000"
           sodipodi:ry="1"
           sodipodi:rx="1"
           sodipodi:cy="13"
           sodipodi:cx="0"
           d="m 1,13 c 0,0.552285 -0.44771525,1 -1,1 -0.55228475,0 -1,-0.447715 -1,-1 0,-0.552285 0.44771525,-1 1,-1 0.55228475,0 1,0.447715 1,1 z"
           id="circle3771"
           r="1"
           cy="13"
           cx="0" />
        <text
           id="text3773"
           font-size="8"
           style="font-size:8px;text-anchor:middle"
           y="13"
           x="20">H</text>
        <circle
           style="fill:#000000"
           sodipodi:ry="1"
           sodipodi:rx="1"
           sodipodi:cy="23"
           sodipodi:cx="-20"
           d="m -19,23 c 0,0.552285 -0.447715,1 -1,1 -0.552285,0 -1,-0.447715 -1,-1 0,-0.552285 0.447715,-1 1,-1 0.552285,0 1,0.447715 1,1 z"
           id="circle3775"
           r="1"
           cy="23"
           cx="-20" />
        <text
           id="text3777"
           font-size="8"
           style="font-size:8px;text-anchor:middle"
           y="13"
           x="-20">E</text>
      </g>
      <g
         id="g3779"
         transform="matrix(3.6946837,0,0,3.6946837,331.59198,553.26901)">
        <path
           style="fill:#fefde3;stroke:#000000;stroke-width:0.5"
           id="path3781"
           d="m -5,0 0,3 a 2,2 0 0 0 2,2 L 3,5 A 2,2 0 0 0 5,3 L 0,0 5,-3 A 2,2 0 0 0 3,-5 l -6,0 a 2,2 0 0 0 -2,2 z M 0,0 -1,-1 -3,1 -4,0" />
        <path
           style="fill:#77ff88;stroke:#000000;stroke-width:0.5"
           id="path3783"
           d="m 0,0 5,3 a 2,2 0 0 0 2,2 l 6,0 a 2,2 0 0 0 2,-2 l 0,-6 a 2,2 0 0 0 -2,-2 2,2 0 0 0 2,-2 l 0,-6 a 2,2 0 0 0 -2,-2 2,2 0 0 0 2,-2 l 0,-6 a 2,2 0 0 0 -2,-2 l -3,5 3,-5 a 2,2 0 0 0 2,-2 l 0,-6 a 2,2 0 0 0 -2,-2 2,2 0 0 0 2,-2 l 0,-6 a 2,2 0 0 0 -2,-2 2,2 0 0 0 2,-2 l 0,-6 a 2,2 0 0 0 -2,-2 l -6,0 a 2,2 0 0 0 -2,2 l 5,3 -5,-3 a 2,2 0 0 0 -2,-2 2,2 0 0 0 2,-2 l 0,-6 a 2,2 0 0 0 -2,-2 2,2 0 0 0 2,-2 l 0,-6 a 2,2 0 0 0 -2,-2 l -6,0 a 2,2 0 0 0 -2,2 l 5,3 -5,-3 a 2,2 0 0 0 -2,-2 2,2 0 0 0 2,-2 l 0,-6 a 2,2 0 0 0 -2,-2 l -6,0 a 2,2 0 0 0 -2,2 2,2 0 0 0 -2,-2 2,2 0 0 0 2,-2 l 0,-6 a 2,2 0 0 0 -2,-2 2,2 0 0 0 2,-2 l 0,-6 a 2,2 0 0 0 -2,-2 l -3,5 3,-5 a 2,2 0 0 0 2,-2 l 0,-6 a 2,2 0 0 0 -2,-2 2,2 0 0 0 2,-2 l 0,-6 a 2,2 0 0 0 -2,-2 l -6,0 a 2,2 0 0 0 -2,2 2,2 0 0 0 -2,-2 l -6,0 a 2,2 0 0 0 -2,2 2,2 0 0 0 -2,-2 l -3,5 3,-5 -3,5 -3,-5 3,5 -3,-5 a 2,2 0 0 0 -2,2 l 0,6 a 2,2 0 0 0 2,2 l 6,0 a 2,2 0 0 0 2,-2 2,2 0 0 0 2,2 l 6,0 a 2,2 0 0 0 2,-2 2,2 0 0 0 2,2 2,2 0 0 0 -2,2 l 0,6 a 2,2 0 0 0 2,2 l 3,5 -3,-5 a 2,2 0 0 0 -2,2 l 0,6 a 2,2 0 0 0 2,2 2,2 0 0 0 -2,2 l 0,6 a 2,2 0 0 0 2,2 2,2 0 0 0 -2,2 l 0,6 a 2,2 0 0 0 2,2 l 6,0 a 2,2 0 0 0 2,-2 2,2 0 0 0 2,2 2,2 0 0 0 -2,2 l 0,6 a 2,2 0 0 0 2,2 l 6,0 a 2,2 0 0 0 2,-2 l 5,-3 -5,3 a 2,2 0 0 0 2,2 2,2 0 0 0 -2,2 l 0,6 a 2,2 0 0 0 2,2 2,2 0 0 0 -2,2 l 0,6 a 2,2 0 0 0 2,2 l 6,0 a 2,2 0 0 0 2,-2 l 5,-3 -5,3 a 2,2 0 0 0 2,2 2,2 0 0 0 -2,2 l 0,6 a 2,2 0 0 0 2,2 2,2 0 0 0 -2,2 l 0,6 a 2,2 0 0 0 2,2 l 3,5 -3,-5 a 2,2 0 0 0 -2,2 l 0,6 a 2,2 0 0 0 2,2 2,2 0 0 0 -2,2 l 0,6 a 2,2 0 0 0 2,2 2,2 0 0 0 -2,2 L 0,0" />
        <circle
           style="fill:#000000"
           sodipodi:ry="1"
           sodipodi:rx="1"
           sodipodi:cy="-20"
           sodipodi:cx="7"
           d="m 8,-20 c 0,0.552285 -0.4477153,1 -1,1 -0.5522847,0 -1,-0.447715 -1,-1 0,-0.552285 0.4477153,-1 1,-1 0.5522847,0 1,0.447715 1,1 z"
           id="circle3785"
           r="1"
           cy="-20"
           cx="7" />
        <text
           id="text3787"
           font-size="8"
           style="font-size:8px;text-anchor:middle"
           y="-7"
           x="10">Q</text>
        <circle
           style="fill:#000000"
           sodipodi:ry="1"
           sodipodi:rx="1"
           sodipodi:cy="-47"
           sodipodi:cx="10"
           d="m 11,-47 c 0,0.552285 -0.447715,1 -1,1 -0.5522847,0 -1,-0.447715 -1,-1 0,-0.552285 0.4477153,-1 1,-1 0.552285,0 1,0.447715 1,1 z"
           id="circle3789"
           r="1"
           cy="-47"
           cx="10" />
        <text
           id="text3791"
           font-size="8"
           style="font-size:8px;text-anchor:middle"
           y="-37"
           x="10">U</text>
        <circle
           style="fill:#000000"
           sodipodi:ry="1"
           sodipodi:rx="1"
           sodipodi:cy="-67"
           sodipodi:cx="0"
           d="m 1,-67 c 0,0.552285 -0.44771525,1 -1,1 -0.55228475,0 -1,-0.447715 -1,-1 0,-0.552285 0.44771525,-1 1,-1 0.55228475,0 1,0.447715 1,1 z"
           id="circle3793"
           r="1"
           cy="-67"
           cx="0" />
        <text
           id="text3795"
           font-size="8"
           style="font-size:8px;text-anchor:middle"
           y="-57"
           x="0">I</text>
        <circle
           style="fill:#000000"
           sodipodi:ry="1"
           sodipodi:rx="1"
           sodipodi:cy="-100"
           sodipodi:cx="-23"
           d="m -22,-100 c 0,0.552285 -0.447715,1 -1,1 -0.552285,0 -1,-0.447715 -1,-1 0,-0.55228 0.447715,-1 1,-1 0.552285,0 1,0.44772 1,1 z"
           id="circle3797"
           r="1"
           cy="-100"
           cx="-23" />
        <text
           id="text3799"
           font-size="8"
           style="font-size:8px;text-anchor:middle"
           y="-77"
           x="-20">C</text>
        <circle
           style="fill:#000000"
           sodipodi:ry="1"
           sodipodi:rx="1"
           sodipodi:cy="-120"
           sodipodi:cx="-43"
           d="m -42,-120 c 0,0.55228 -0.447715,1 -1,1 -0.552285,0 -1,-0.44772 -1,-1 0,-0.55228 0.447715,-1 1,-1 0.552285,0 1,0.44772 1,1 z"
           id="circle3801"
           r="1"
           cy="-120"
           cx="-43" />
        <text
           id="text3803"
           font-size="8"
           style="font-size:8px;text-anchor:middle"
           y="-117"
           x="-20">K</text>
      </g>
      <g
         id="g3805"
         transform="matrix(3.6946837,0,0,3.6946837,431.70053,366.86373)">
        <path
           style="fill:#fefde3;stroke:#000000;stroke-width:0.5"
           id="path3807"
           d="m -5,0 0,3 a 2,2 0 0 0 2,2 L 3,5 A 2,2 0 0 0 5,3 L 0,0 5,-3 A 2,2 0 0 0 3,-5 l -6,0 a 2,2 0 0 0 -2,2 z M 0,0 -1,-1 -3,1 -4,0" />
        <path
           style="fill:#77ff88;stroke:#000000;stroke-width:0.5"
           id="path3809"
           d="M 0,0 5,3 A 2,2 0 0 0 7,5 2,2 0 0 0 5,7 l 0,6 a 2,2 0 0 0 2,2 2,2 0 0 0 -2,2 l 0,6 a 2,2 0 0 0 2,2 l 6,0 a 2,2 0 0 0 2,-2 2,2 0 0 0 2,2 2,2 0 0 0 -2,2 l 0,6 a 2,2 0 0 0 2,2 l 3,-5 -3,5 a 2,2 0 0 0 -2,2 l 0,6 a 2,2 0 0 0 2,2 l 6,0 a 2,2 0 0 0 2,-2 2,2 0 0 0 2,2 l 6,0 a 2,2 0 0 0 2,-2 2,2 0 0 0 2,2 l 6,0 a 2,2 0 0 0 2,-2 l 0,-6 a 2,2 0 0 0 -2,-2 2,2 0 0 0 2,-2 l 0,-6 a 2,2 0 0 0 -2,-2 2,2 0 0 0 2,-2 l 0,-6 a 2,2 0 0 0 -2,-2 l -3,5 3,-5 a 2,2 0 0 0 2,-2 L 45,7 A 2,2 0 0 0 43,5 2,2 0 0 0 45,3 l 0,-6 a 2,2 0 0 0 -2,-2 2,2 0 0 0 2,-2 l 0,-6 a 2,2 0 0 0 -2,-2 2,2 0 0 0 2,-2 l 0,-6 a 2,2 0 0 0 -2,-2 l -3,5 3,-5 a 2,2 0 0 0 2,-2 l 0,-6 a 2,2 0 0 0 -2,-2 l -6,0 a 2,2 0 0 0 -2,2 2,2 0 0 0 -2,-2 2,2 0 0 0 2,-2 l 0,-6 a 2,2 0 0 0 -2,-2 l -6,0 a 2,2 0 0 0 -2,2 2,2 0 0 0 -2,-2 l -6,0 a 2,2 0 0 0 -2,2 2,2 0 0 0 -2,-2 l -6,0 a 2,2 0 0 0 -2,2 l 5,3 -5,-3 a 2,2 0 0 0 -2,-2 l -6,0 a 2,2 0 0 0 -2,2 l 0,6 a 2,2 0 0 0 2,2 2,2 0 0 0 -2,2 2,2 0 0 0 -2,-2 l -6,0 a 2,2 0 0 0 -2,2 l 5,3 -5,-3 5,3 -5,3 5,-3 -5,3 a 2,2 0 0 0 2,2 l 6,0 a 2,2 0 0 0 2,-2 2,2 0 0 0 2,2 l 6,0 a 2,2 0 0 0 2,-2 l 0,-6 a 2,2 0 0 0 -2,-2 2,2 0 0 0 2,-2 l 5,-3 -5,3 a 2,2 0 0 0 2,2 l 6,0 a 2,2 0 0 0 2,-2 2,2 0 0 0 2,2 l 6,0 a 2,2 0 0 0 2,-2 2,2 0 0 0 2,2 2,2 0 0 0 -2,2 l 0,6 a 2,2 0 0 0 2,2 l 6,0 a 2,2 0 0 0 2,-2 2,2 0 0 0 2,2 l 3,5 -3,-5 a 2,2 0 0 0 -2,2 l 0,6 a 2,2 0 0 0 2,2 2,2 0 0 0 -2,2 l 0,6 a 2,2 0 0 0 2,2 2,2 0 0 0 -2,2 l 0,6 a 2,2 0 0 0 2,2 2,2 0 0 0 -2,2 l 0,6 a 2,2 0 0 0 2,2 l 3,5 -3,-5 a 2,2 0 0 0 -2,2 l 0,6 a 2,2 0 0 0 2,2 2,2 0 0 0 -2,2 l 0,6 a 2,2 0 0 0 2,2 2,2 0 0 0 -2,2 2,2 0 0 0 -2,-2 l -6,0 a 2,2 0 0 0 -2,2 2,2 0 0 0 -2,-2 l -3,-5 3,5 a 2,2 0 0 0 2,-2 l 0,-6 a 2,2 0 0 0 -2,-2 2,2 0 0 0 2,-2 l 0,-6 a 2,2 0 0 0 -2,-2 l -6,0 a 2,2 0 0 0 -2,2 2,2 0 0 0 -2,-2 2,2 0 0 0 2,-2 L 15,7 A 2,2 0 0 0 13,5 2,2 0 0 0 15,3 l 0,-6 A 2,2 0 0 0 13,-5 L 7,-5 A 2,2 0 0 0 5,-3 L 0,0" />
        <circle
           style="fill:#000000"
           sodipodi:ry="1"
           sodipodi:rx="1"
           sodipodi:cy="30"
           sodipodi:cx="23"
           d="m 24,30 c 0,0.552285 -0.447715,1 -1,1 -0.552285,0 -1,-0.447715 -1,-1 0,-0.552285 0.447715,-1 1,-1 0.552285,0 1,0.447715 1,1 z"
           id="circle3811"
           r="1"
           cy="30"
           cx="23" />
        <text
           id="text3813"
           font-size="8"
           style="font-size:8px;text-anchor:middle"
           y="23"
           x="10">B</text>
        <circle
           style="fill:#000000"
           sodipodi:ry="1"
           sodipodi:rx="1"
           sodipodi:cy="20"
           sodipodi:cx="37"
           d="m 38,20 c 0,0.552285 -0.447715,1 -1,1 -0.552285,0 -1,-0.447715 -1,-1 0,-0.552285 0.447715,-1 1,-1 0.552285,0 1,0.447715 1,1 z"
           id="circle3815"
           r="1"
           cy="20"
           cx="37" />
        <text
           id="text3817"
           font-size="8"
           style="font-size:8px;text-anchor:middle"
           y="43"
           x="40">R</text>
        <circle
           style="fill:#000000"
           sodipodi:ry="1"
           sodipodi:rx="1"
           sodipodi:cy="-20"
           sodipodi:cx="37"
           d="m 38,-20 c 0,0.552285 -0.447715,1 -1,1 -0.552285,0 -1,-0.447715 -1,-1 0,-0.552285 0.447715,-1 1,-1 0.552285,0 1,0.447715 1,1 z"
           id="circle3819"
           r="1"
           cy="-20"
           cx="37" />
        <text
           id="text3821"
           font-size="8"
           style="font-size:8px;text-anchor:middle"
           y="3"
           x="40">O</text>
        <circle
           style="fill:#000000"
           sodipodi:ry="1"
           sodipodi:rx="1"
           sodipodi:cy="-37"
           sodipodi:cx="10"
           d="m 11,-37 c 0,0.552285 -0.447715,1 -1,1 -0.5522847,0 -1,-0.447715 -1,-1 0,-0.552285 0.4477153,-1 1,-1 0.552285,0 1,0.447715 1,1 z"
           id="circle3823"
           r="1"
           cy="-37"
           cx="10" />
        <text
           id="text3825"
           font-size="8"
           style="font-size:8px;text-anchor:middle"
           y="-37"
           x="30">W</text>
        <circle
           style="fill:#000000"
           sodipodi:ry="1"
           sodipodi:rx="1"
           sodipodi:cy="-27"
           sodipodi:cx="-10"
           d="m -9,-27 c 0,0.552285 -0.4477153,1 -1,1 -0.552285,0 -1,-0.447715 -1,-1 0,-0.552285 0.447715,-1 1,-1 0.5522847,0 1,0.447715 1,1 z"
           id="circle3827"
           r="1"
           cy="-27"
           cx="-10" />
        <text
           id="text3829"
           font-size="8"
           style="font-size:8px;text-anchor:middle"
           y="-27"
           x="0">N</text>
      </g>
      <g
         id="g3831"
         transform="matrix(3.6946837,0,0,3.6946837,641.58135,513.07793)">
        <path
           style="fill:#fefde3;stroke:#000000;stroke-width:0.5"
           id="path3833"
           d="m -5,0 0,3 a 2,2 0 0 0 2,2 L 3,5 A 2,2 0 0 0 5,3 L 0,0 5,-3 A 2,2 0 0 0 3,-5 l -6,0 a 2,2 0 0 0 -2,2 z M 0,0 -1,-1 -3,1 -4,0" />
        <path
           style="fill:#77ff88;stroke:#000000;stroke-width:0.5"
           id="path3835"
           d="m 0,0 5,3 a 2,2 0 0 0 2,2 l 6,0 a 2,2 0 0 0 2,-2 2,2 0 0 0 2,2 l 6,0 a 2,2 0 0 0 2,-2 l 0,-6 a 2,2 0 0 0 -2,-2 2,2 0 0 0 2,-2 l 0,-6 a 2,2 0 0 0 -2,-2 2,2 0 0 0 2,-2 l 0,-6 a 2,2 0 0 0 -2,-2 l -3,5 3,-5 a 2,2 0 0 0 2,-2 l 0,-6 a 2,2 0 0 0 -2,-2 2,2 0 0 0 2,-2 l 0,-6 a 2,2 0 0 0 -2,-2 2,2 0 0 0 2,-2 l 0,-6 a 2,2 0 0 0 -2,-2 2,2 0 0 0 2,-2 l 0,-6 a 2,2 0 0 0 -2,-2 l -3,5 3,-5 a 2,2 0 0 0 2,-2 l 0,-6 a 2,2 0 0 0 -2,-2 l -6,0 a 2,2 0 0 0 -2,2 2,2 0 0 0 -2,-2 l -6,0 a 2,2 0 0 0 -2,2 2,2 0 0 0 -2,-2 l -6,0 a 2,2 0 0 0 -2,2 l 0,6 a 2,2 0 0 0 2,2 2,2 0 0 0 -2,2 l 0,6 a 2,2 0 0 0 2,2 l 3,-5 -3,5 3,-5 3,5 -3,-5 3,5 a 2,2 0 0 0 2,-2 l 0,-6 a 2,2 0 0 0 -2,-2 2,2 0 0 0 2,-2 2,2 0 0 0 2,2 l 6,0 a 2,2 0 0 0 2,-2 2,2 0 0 0 2,2 l 3,5 -3,-5 a 2,2 0 0 0 -2,2 l 0,6 a 2,2 0 0 0 2,2 2,2 0 0 0 -2,2 l 0,6 a 2,2 0 0 0 2,2 2,2 0 0 0 -2,2 l 0,6 a 2,2 0 0 0 2,2 2,2 0 0 0 -2,2 l 0,6 a 2,2 0 0 0 2,2 l 3,5 -3,-5 a 2,2 0 0 0 -2,2 l 0,6 a 2,2 0 0 0 2,2 2,2 0 0 0 -2,2 l 0,6 a 2,2 0 0 0 2,2 2,2 0 0 0 -2,2 2,2 0 0 0 -2,-2 L 7,-5 A 2,2 0 0 0 5,-3 L 0,0" />
        <circle
           style="fill:#000000"
           sodipodi:ry="1"
           sodipodi:rx="1"
           sodipodi:cy="-20"
           sodipodi:cx="17"
           d="m 18,-20 c 0,0.552285 -0.447715,1 -1,1 -0.552285,0 -1,-0.447715 -1,-1 0,-0.552285 0.447715,-1 1,-1 0.552285,0 1,0.447715 1,1 z"
           id="circle3837"
           r="1"
           cy="-20"
           cx="17" />
        <text
           id="text3839"
           font-size="8"
           style="font-size:8px;text-anchor:middle"
           y="3"
           x="20">F</text>
        <circle
           style="fill:#000000"
           sodipodi:ry="1"
           sodipodi:rx="1"
           sodipodi:cy="-60"
           sodipodi:cx="17"
           d="m 18,-60 c 0,0.552285 -0.447715,1 -1,1 -0.552285,0 -1,-0.447715 -1,-1 0,-0.552285 0.447715,-1 1,-1 0.552285,0 1,0.447715 1,1 z"
           id="circle3841"
           r="1"
           cy="-60"
           cx="17" />
        <text
           id="text3843"
           font-size="8"
           style="font-size:8px;text-anchor:middle"
           y="-37"
           x="20">O</text>
        <circle
           style="fill:#000000"
           sodipodi:ry="1"
           sodipodi:rx="1"
           sodipodi:cy="-60"
           sodipodi:cx="3"
           d="m 4,-60 c 0,0.552285 -0.4477153,1 -1,1 -0.5522847,0 -1,-0.447715 -1,-1 0,-0.552285 0.4477153,-1 1,-1 0.5522847,0 1,0.447715 1,1 z"
           id="circle3845"
           r="1"
           cy="-60"
           cx="3" />
        <text
           id="text3847"
           font-size="8"
           style="font-size:8px;text-anchor:middle"
           y="-67"
           x="10">X</text>
      </g>
      <g
         id="g3849"
         transform="matrix(3.6946837,0,0,3.6946837,743.58221,589.08706)">
        <path
           style="fill:#fefde3;stroke:#000000;stroke-width:0.5"
           id="path3851"
           d="m -5,0 0,3 a 2,2 0 0 0 2,2 L 3,5 A 2,2 0 0 0 5,3 L 0,0 5,-3 A 2,2 0 0 0 3,-5 l -6,0 a 2,2 0 0 0 -2,2 z M 0,0 -1,-1 -3,1 -4,0" />
        <path
           style="fill:#77ff88;stroke:#000000;stroke-width:0.5"
           id="path3853"
           d="m 0,0 5,3 a 2,2 0 0 0 2,2 l 6,0 a 2,2 0 0 0 2,-2 2,2 0 0 0 2,2 l 6,0 a 2,2 0 0 0 2,-2 l 0,-6 a 2,2 0 0 0 -2,-2 2,2 0 0 0 2,-2 l 0,-6 a 2,2 0 0 0 -2,-2 2,2 0 0 0 2,-2 2,2 0 0 0 2,2 l 6,0 a 2,2 0 0 0 2,-2 l 0,-6 a 2,2 0 0 0 -2,-2 l -3,5 3,-5 a 2,2 0 0 0 2,-2 l 0,-6 a 2,2 0 0 0 -2,-2 2,2 0 0 0 2,-2 l 0,-6 a 2,2 0 0 0 -2,-2 2,2 0 0 0 2,-2 l 0,-6 a 2,2 0 0 0 -2,-2 l -6,0 a 2,2 0 0 0 -2,2 l 5,3 -5,-3 a 2,2 0 0 0 -2,-2 2,2 0 0 0 2,-2 l 0,-6 a 2,2 0 0 0 -2,-2 l -6,0 a 2,2 0 0 0 -2,2 2,2 0 0 0 -2,-2 l -3,5 3,-5 a 2,2 0 0 0 2,-2 l 0,-6 a 2,2 0 0 0 -2,-2 2,2 0 0 0 2,-2 2,2 0 0 0 2,2 l 6,0 a 2,2 0 0 0 2,-2 l -5,-3 5,3 a 2,2 0 0 0 2,2 l 6,0 a 2,2 0 0 0 2,-2 2,2 0 0 0 2,2 2,2 0 0 0 -2,2 l 0,6 a 2,2 0 0 0 2,2 l 6,0 a 2,2 0 0 0 2,-2 2,2 0 0 0 2,2 l 6,0 a 2,2 0 0 0 2,-2 l -5,-3 5,3 -5,-3 5,-3 -5,3 5,-3 a 2,2 0 0 0 -2,-2 l -6,0 a 2,2 0 0 0 -2,2 2,2 0 0 0 -2,-2 2,2 0 0 0 2,-2 l 0,-6 a 2,2 0 0 0 -2,-2 l -6,0 a 2,2 0 0 0 -2,2 2,2 0 0 0 -2,-2 l -6,0 a 2,2 0 0 0 -2,2 l -5,3 5,-3 a 2,2 0 0 0 -2,-2 l -6,0 a 2,2 0 0 0 -2,2 2,2 0 0 0 -2,-2 l -6,0 a 2,2 0 0 0 -2,2 l 0,6 a 2,2 0 0 0 2,2 2,2 0 0 0 -2,2 l 0,6 a 2,2 0 0 0 2,2 l 3,5 -3,-5 a 2,2 0 0 0 -2,2 l 0,6 a 2,2 0 0 0 2,2 l 6,0 a 2,2 0 0 0 2,-2 2,2 0 0 0 2,2 2,2 0 0 0 -2,2 l 0,6 a 2,2 0 0 0 2,2 l 6,0 a 2,2 0 0 0 2,-2 l 5,-3 -5,3 a 2,2 0 0 0 2,2 2,2 0 0 0 -2,2 l 0,6 a 2,2 0 0 0 2,2 2,2 0 0 0 -2,2 l 0,6 a 2,2 0 0 0 2,2 l 3,5 -3,-5 a 2,2 0 0 0 -2,2 2,2 0 0 0 -2,-2 l -6,0 a 2,2 0 0 0 -2,2 l 0,6 a 2,2 0 0 0 2,2 2,2 0 0 0 -2,2 l 0,6 a 2,2 0 0 0 2,2 2,2 0 0 0 -2,2 2,2 0 0 0 -2,-2 L 7,-5 A 2,2 0 0 0 5,-3 L 0,0" />
        <circle
           style="fill:#000000"
           sodipodi:ry="1"
           sodipodi:rx="1"
           sodipodi:cy="-20"
           sodipodi:cx="27"
           d="m 28,-20 c 0,0.552285 -0.447715,1 -1,1 -0.552285,0 -1,-0.447715 -1,-1 0,-0.552285 0.447715,-1 1,-1 0.552285,0 1,0.447715 1,1 z"
           id="circle3855"
           r="1"
           cy="-20"
           cx="27" />
        <text
           id="text3857"
           font-size="8"
           style="font-size:8px;text-anchor:middle"
           y="-7"
           x="20">J</text>
        <circle
           style="fill:#000000"
           sodipodi:ry="1"
           sodipodi:rx="1"
           sodipodi:cy="-47"
           sodipodi:cx="30"
           d="m 31,-47 c 0,0.552285 -0.447715,1 -1,1 -0.552285,0 -1,-0.447715 -1,-1 0,-0.552285 0.447715,-1 1,-1 0.552285,0 1,0.447715 1,1 z"
           id="circle3859"
           r="1"
           cy="-47"
           cx="30" />
        <text
           id="text3861"
           font-size="8"
           style="font-size:8px;text-anchor:middle"
           y="-37"
           x="30">U</text>
        <circle
           style="fill:#000000"
           sodipodi:ry="1"
           sodipodi:rx="1"
           sodipodi:cy="-60"
           sodipodi:cx="7"
           d="m 8,-60 c 0,0.552285 -0.4477153,1 -1,1 -0.5522847,0 -1,-0.447715 -1,-1 0,-0.552285 0.4477153,-1 1,-1 0.5522847,0 1,0.447715 1,1 z"
           id="circle3863"
           r="1"
           cy="-60"
           cx="7" />
        <text
           id="text3865"
           font-size="8"
           style="font-size:8px;text-anchor:middle"
           y="-57"
           x="20">M</text>
        <circle
           style="fill:#000000"
           sodipodi:ry="1"
           sodipodi:rx="1"
           sodipodi:cy="-83"
           sodipodi:cx="20"
           d="m 21,-83 c 0,0.552285 -0.447715,1 -1,1 -0.552285,0 -1,-0.447715 -1,-1 0,-0.552285 0.447715,-1 1,-1 0.552285,0 1,0.447715 1,1 z"
           id="circle3867"
           r="1"
           cy="-83"
           cx="20" />
        <text
           id="text3869"
           font-size="8"
           style="font-size:8px;text-anchor:middle"
           y="-77"
           x="10">P</text>
        <circle
           style="fill:#000000"
           sodipodi:ry="1"
           sodipodi:rx="1"
           sodipodi:cy="-73"
           sodipodi:cx="50"
           d="m 51,-73 c 0,0.552285 -0.447715,1 -1,1 -0.552285,0 -1,-0.447715 -1,-1 0,-0.552285 0.447715,-1 1,-1 0.552285,0 1,0.447715 1,1 z"
           id="circle3871"
           r="1"
           cy="-73"
           cx="50" />
        <text
           id="text3873"
           font-size="8"
           style="font-size:8px;text-anchor:middle"
           y="-77"
           x="40">S</text>
      </g>
    </g>
  </g>
</svg>
